SplineFontDB: 3.0
FontName: Ume-P-Mincho
FullName: Ume P Mincho
FamilyName: Ume P Mincho
Weight: Book
Copyright: Author: HORAI Wataru. License: This font is a free software. Unlimited permission is granted to use, copy, and distribute it, with or without modification, either commercially and noncommercially. THIS FONT IS PROVIDED "AS IS" WITHOUT WARRANTY.
Version: Look update time of this file.
ItalicAngle: 0
UnderlinePosition: -72
UnderlineWidth: 48
Ascent: 3520
Descent: 576
sfntRevision: 0x00050000
LayerCount: 2
Layer: 0 0 "Arri+AOgA-re"  1
Layer: 1 0 "Avant"  0
HasVMetrics: 1
XUID: [1021 509 -937916376 15271471]
FSType: 8
OS2Version: 2
OS2_WeightWidthSlopeOnly: 0
OS2_UseTypoMetrics: 1
CreationTime: -2082844800
ModificationTime: 1367343069
PfmFamily: 17
TTFWeight: 400
TTFWidth: 5
LineGap: 0
VLineGap: 0
Panose: 2 0 6 0 0 0 0 0 0 0
OS2TypoAscent: 3520
OS2TypoAOffset: 0
OS2TypoDescent: -576
OS2TypoDOffset: 0
OS2TypoLinegap: 0
OS2WinAscent: 3520
OS2WinAOffset: 0
OS2WinDescent: 576
OS2WinDOffset: 0
HheadAscent: 3520
HheadAOffset: 0
HheadDescent: -576
HheadDOffset: 0
OS2SubXSize: 2048
OS2SubYSize: 2048
OS2SubXOff: 0
OS2SubYOff: 1472
OS2SupXSize: 2048
OS2SupYSize: 2048
OS2SupXOff: 0
OS2SupYOff: 1760
OS2StrikeYSize: 208
OS2StrikeYPos: 1056
OS2Vendor: 'Take'
OS2CodePages: 4002009f.dfd70000
OS2UnicodeRanges: a00002bf.68c7fcfb.00000010.00000000
Lookup: 1 1 0 "'vert' Formes verticales alternatives (CJK) dans Hiragana & katakana lookup 0"  {"sous-table 'vert' Formes verticales alternatives (CJK) dans Hiragana & katakana lookup 0"  } ['vert' ('kana' <'JAN ' 'dflt' > ) ]
MarkAttachClasses: 1
DEI: 91125
LangName: 1033 "" "" "Regular" "Ume P Mincho" "" "Look update time of this file." "" "Ume P Mincho" 

StartChar: .notdef
Encoding: 65536 -1 0
Width: 4096
Flags: W
LayerCount: 2
Fore
SplineSet
400 400 m 1
 400 620 l 1
 620 620 l 1
 620 400 l 1
 400 400 l 1
EndSplineSet
EndChar

StartChar: exclam
Encoding: 33 33 2
Width: 1248
GlyphClass: 2
Flags: W
LayerCount: 2
Fore
SplineSet
816 3248 m 1
 672 800 l 1
 560 800 l 1
 416 3248 l 1
 816 3248 l 1
416 64 m 0
 416 117.333007812 434.666992188 165.333007812 472 208 c 0
 509.333007812 250.666992188 560 272 624 272 c 0
 688 272 738.666992188 250.666992188 776 208 c 0
 813.333007812 165.333007812 832 117.333007812 832 64 c 0
 832 10.6669921875 813.333007812 -37.3330078125 776 -80 c 0
 738.666992188 -122.666992188 688 -144 624 -144 c 0
 560 -144 509.333007812 -122.666992188 472 -80 c 0
 434.666992188 -37.3330078125 416 10.6669921875 416 64 c 0
EndSplineSet
EndChar

StartChar: quotedbl
Encoding: 34 34 3
Width: 1888
GlyphClass: 2
Flags: W
LayerCount: 2
Fore
SplineSet
496 3072 m 0
 496 3189.33300781 525.333984375 3266.66601562 584.000976562 3303.99902344 c 0
 642.66796875 3341.33203125 698.66796875 3359.99902344 752.000976562 3359.99902344 c 0
 826.66796875 3359.99902344 890.66796875 3333.33203125 944.000976562 3279.99902344 c 0
 997.333984375 3226.66601562 1024.00097656 3157.33300781 1024.00097656 3072 c 0
 1024.00097656 2912 973.333984375 2760 872.000976562 2616 c 0
 770.66796875 2472 650.66796875 2373.33300781 512.000976562 2320 c 1
 448.000976562 2384 l 1
 597.333984375 2501.33300781 698.666992188 2650.66601562 752 2831.99902344 c 1
 677.333007812 2842.66601562 616 2869.33300781 568 2912 c 0
 520 2954.66699219 496 3008 496 3072 c 0
1232.00097656 3056 m 0
 1232.00097656 3173.33300781 1261.33496094 3250.66601562 1320.00195312 3287.99902344 c 0
 1378.66894531 3325.33203125 1434.66894531 3343.99902344 1488.00195312 3343.99902344 c 0
 1562.66894531 3343.99902344 1626.66894531 3317.33203125 1680.00195312 3263.99902344 c 0
 1733.33496094 3210.66601562 1760.00195312 3141.33300781 1760.00195312 3056 c 0
 1760.00195312 2896 1709.33496094 2744 1608.00195312 2600 c 0
 1506.66894531 2456 1386.66894531 2357.33300781 1248.00195312 2304 c 1
 1184.00195312 2368 l 1
 1333.33496094 2485.33300781 1434.66796875 2634.66601562 1488.00097656 2815.99902344 c 1
 1413.33398438 2826.66601562 1352.00097656 2853.33300781 1304.00097656 2896 c 0
 1256.00097656 2938.66699219 1232.00097656 2992 1232.00097656 3056 c 0
EndSplineSet
EndChar

StartChar: numbersign
Encoding: 35 35 4
Width: 2048
GlyphClass: 2
Flags: W
LayerCount: 2
Fore
SplineSet
560 -304 m 1
 432 -304 l 1
 508 688 l 1
 128 688 l 1
 128 992 l 1
 531 992 l 1
 611 2032 l 1
 128 2032 l 1
 128 2336 l 1
 634 2336 l 1
 704 3248 l 1
 832 3248 l 1
 762 2336 l 1
 1386 2336 l 1
 1456 3248 l 1
 1600 3248 l 1
 1526 2336 l 1
 1920 2336 l 1
 1920 2032 l 1
 1501 2032 l 1
 1417 992 l 1
 1920 992 l 1
 1920 688 l 1
 1392 688 l 1
 1312 -304 l 1
 1184 -304 l 1
 1260 688 l 1
 636 688 l 1
 560 -304 l 1
659 992 m 1
 1283 992 l 1
 1363 2032 l 1
 739 2032 l 1
 659 992 l 1
EndSplineSet
EndChar

StartChar: dollar
Encoding: 36 36 5
Width: 2048
GlyphClass: 2
Flags: W
LayerCount: 2
Fore
SplineSet
928 3360 m 1
 1119.99804688 3360 l 1
 1119.99804688 2811 l 1
 1194.66503906 2805 1261.33203125 2793.33300781 1319.99902344 2776 c 0
 1410.66601562 2749.33300781 1503.99902344 2704 1599.99902344 2640 c 1
 1759.99902344 2816 l 1
 1903.99902344 2816 l 1
 1903.99902344 1936 l 1
 1759.99902344 1936 l 1
 1749.33203125 2085.33300781 1709.33203125 2216 1639.99902344 2328 c 0
 1570.66601562 2440 1482.66601562 2525.33300781 1375.99902344 2584 c 0
 1301.33203125 2625.33300781 1215.99902344 2652 1119.99902344 2664 c 1
 1119.99902344 1611 l 1
 1409.99902344 1515.66699219 1607.33203125 1402.66699219 1711.99902344 1272 c 0
 1818.66601562 1138.66699219 1871.99902344 976 1871.99902344 784 c 0
 1871.99902344 549.333007812 1802.66601562 370.666015625 1663.99902344 247.999023438 c 0
 1531.33203125 130.666015625 1349.99902344 69.3330078125 1119.99902344 64 c 1
 1119.99902344 -304 l 1
 927.999023438 -304 l 1
 927.999023438 72 l 1
 848.666015625 80.6669921875 779.333007812 96.6669921875 720 120 c 0
 624 157.333007812 533.333007812 224 448 320 c 1
 304 64 l 1
 160 64 l 1
 160 976 l 1
 304 976 l 1
 336 773.333007812 389.333007812 621.333007812 464 520 c 0
 538.666992188 418.666992188 624 341.333984375 720 288.000976562 c 0
 779.333007812 255.333984375 848.666015625 232.666992188 927.999023438 220 c 1
 927.999023438 1408 l 1
 650.666015625 1503.33300781 463.999023438 1596.66601562 367.999023438 1687.99902344 c 0
 261.33203125 1789.33203125 207.999023438 1925.33203125 207.999023438 2095.99902344 c 0
 207.999023438 2298.66601562 293.33203125 2469.33300781 463.999023438 2608 c 0
 614.666015625 2730 769.333007812 2798.33300781 928 2813 c 1
 928 3360 l 1
639.998046875 2520 m 0
 533.331054688 2418.66699219 479.998046875 2277.33398438 479.998046875 2096.00097656 c 1
 490.665039062 1968.00097656 538.665039062 1874.66796875 623.998046875 1816.00097656 c 0
 685.998046875 1773.33398438 787.331054688 1726.66699219 927.998046875 1676 c 1
 927.998046875 2668 l 1
 824.665039062 2653.33300781 728.665039062 2604 639.998046875 2520 c 0
1439.99804688 344 m 0
 1535.99804688 434.666992188 1583.99707031 581.33203125 1583.99707031 783.999023438 c 0
 1583.99707031 890.666015625 1551.99707031 991.999023438 1487.99707031 1087.99902344 c 0
 1432.6640625 1170.66601562 1309.99707031 1253.33300781 1119.99707031 1336 c 1
 1119.99707031 209 l 1
 1244.6640625 215.666992188 1351.33105469 260.666992188 1439.99804688 344 c 0
EndSplineSet
EndChar

StartChar: percent
Encoding: 37 37 6
Width: 2048
GlyphClass: 2
Flags: W
LayerCount: 2
Fore
SplineSet
208 2560 m 0
 208 2762.66699219 256 2928 352 3056 c 0
 448 3184 565.333007812 3248 704 3248 c 0
 842.666992188 3248 960 3184 1056 3056 c 0
 1152 2928 1200 2762.66699219 1200 2560 c 0
 1200 2357.33300781 1152 2192 1056 2064 c 0
 960 1936 842.666992188 1872 704 1872 c 0
 565.333007812 1872 448 1933.33300781 352 2056 c 0
 256 2178.66699219 208 2346.66699219 208 2560 c 0
416 2560 m 0
 416 2389.33300781 445.333007812 2250.66601562 504 2143.99902344 c 0
 562.666992188 2037.33203125 629.333984375 1983.99902344 704.000976562 1983.99902344 c 0
 778.66796875 1983.99902344 845.334960938 2037.33203125 904.001953125 2143.99902344 c 0
 962.668945312 2250.66601562 992.001953125 2389.33300781 992.001953125 2560 c 0
 992.001953125 2730.66699219 962.668945312 2872 904.001953125 2984 c 0
 845.334960938 3096 778.66796875 3152 704.000976562 3152 c 0
 629.333984375 3152 562.666992188 3096 504 2984 c 0
 445.333007812 2872 416 2730.66699219 416 2560 c 0
848 384 m 0
 848 586.666992188 896 752 992 880 c 0
 1088 1008 1205.33300781 1072 1344 1072 c 0
 1482.66699219 1072 1600 1008 1696 880 c 0
 1792 752 1840 586.666992188 1840 384 c 0
 1840 181.333007812 1792 16 1696 -112 c 0
 1600 -240 1482.66699219 -304 1344 -304 c 0
 1205.33300781 -304 1088 -242.666992188 992 -120 c 0
 896 2.6669921875 848 170.666992188 848 384 c 0
1056 384 m 0
 1056 213.333007812 1085.33300781 74.666015625 1144 -32.0009765625 c 0
 1202.66699219 -138.66796875 1269.33398438 -192.000976562 1344.00097656 -192.000976562 c 0
 1418.66796875 -192.000976562 1485.33496094 -138.66796875 1544.00195312 -32.0009765625 c 0
 1602.66894531 74.666015625 1632.00195312 213.333007812 1632.00195312 384 c 0
 1632.00195312 554.666992188 1602.66894531 696 1544.00195312 808 c 0
 1485.33496094 920 1418.66796875 976 1344.00097656 976 c 0
 1269.33398438 976 1202.66699219 920 1144 808 c 0
 1085.33300781 696 1056 554.666992188 1056 384 c 0
1616 3248 m 1
 1760 3184 l 1
 432 -304 l 1
 288 -240 l 1
 1616 3248 l 1
EndSplineSet
EndChar

StartChar: ampersand
Encoding: 38 38 7
Width: 2512
GlyphClass: 2
Flags: W
LayerCount: 2
Fore
SplineSet
1040 64 m 0
 730.666992188 64 506.666992188 133.33203125 368 271.999023438 c 0
 229.333007812 410.666015625 160 565.333007812 160 736 c 0
 160 917.333007812 213.333007812 1074.66601562 320 1207.99902344 c 0
 378.666992188 1280.66601562 481.666992188 1359.33300781 629 1444 c 1
 529.666992188 1683.33300781 480 1900.66601562 480 2095.99902344 c 0
 480 2405.33203125 549.333007812 2623.99902344 688 2751.99902344 c 0
 826.666992188 2879.99902344 986.666992188 2943.99902344 1168 2943.99902344 c 0
 1349.33300781 2943.99902344 1498.66601562 2887.99902344 1615.99902344 2775.99902344 c 0
 1733.33203125 2663.99902344 1791.99902344 2527.99902344 1791.99902344 2367.99902344 c 0
 1791.99902344 2207.99902344 1738.66601562 2053.33203125 1631.99902344 1903.99902344 c 0
 1525.33203125 1754.66601562 1359.99902344 1631.99902344 1135.99902344 1535.99902344 c 0
 1047.99902344 1499.33203125 969.33203125 1462.99902344 899.999023438 1426.99902344 c 1
 908.666015625 1407.66601562 917.999023438 1387.99902344 927.999023438 1367.99902344 c 0
 1066.66601562 1085.33203125 1255.99902344 829.33203125 1495.99902344 599.999023438 c 0
 1537.33203125 559.999023438 1576.66503906 523.666015625 1613.99804688 490.999023438 c 1
 1647.99804688 523.666015625 1680.66503906 559.999023438 1711.99804688 599.999023438 c 0
 1893.33105469 829.33203125 1983.99804688 1087.99902344 1983.99804688 1375.99902344 c 1
 1775.99804688 1375.99902344 l 1
 1775.99804688 1471.99902344 l 1
 2335.99804688 1471.99902344 l 1
 2335.99804688 1375.99902344 l 1
 2111.99804688 1375.99902344 l 1
 2111.99804688 1023.99902344 2015.99804688 717.33203125 1823.99804688 455.999023438 c 0
 1802.66503906 426.666015625 1780.33203125 399.333007812 1756.99902344 374 c 1
 1862.99902344 295.333007812 1943.99902344 256 1999.99902344 256 c 1
 2138.66601562 245.333007812 2245.33300781 341.333007812 2320 544 c 1
 2416 512 l 1
 2352 170.666992188 2213.33300781 0 2000 0 c 0
 1880 0 1732.66699219 67.6669921875 1558 203 c 1
 1410 110.333007812 1237.33300781 64 1040 64 c 0
1088 1663.99902344 m 1
 1258.66699219 1749.33203125 1378.66699219 1856.00097656 1448 1984.00097656 c 0
 1517.33300781 2112.00097656 1552 2240.00097656 1552 2368.00097656 c 0
 1552 2506.66796875 1512 2616.00097656 1432 2696.00097656 c 0
 1352 2776.00097656 1264 2816.00097656 1168 2816.00097656 c 0
 1061.33300781 2816.00097656 960 2762.66796875 864 2656.00097656 c 0
 768 2549.33398438 720 2362.66699219 720 2096 c 0
 720 1939.33300781 761.333007812 1759 844 1555 c 1
 918 1590.33300781 999.333007812 1626.66601562 1088 1663.99902344 c 1
1376 360.000976562 m 2
 1120 600.000976562 906.666992188 885.333007812 736 1216 c 0
 721.333007812 1244 707.333007812 1272 694 1300 c 1
 632.666992188 1252.66699219 588 1206 560 1160 c 0
 485.333007812 1037.33300781 448 896 448 736 c 0
 448 586.666992188 496 469.333984375 592 384.000976562 c 0
 688 298.66796875 837.333007812 256.000976562 1040 256.000976562 c 0
 1170 256.000976562 1290 283.333984375 1400 338.000976562 c 1
 1376 360.000976562 l 2
EndSplineSet
EndChar

StartChar: quotesingle
Encoding: 39 39 8
Width: 1248
GlyphClass: 2
Flags: W
LayerCount: 2
Fore
SplineSet
352 3072 m 0
 352 3189.33300781 381.333984375 3266.66601562 440.000976562 3303.99902344 c 0
 498.66796875 3341.33203125 554.66796875 3359.99902344 608.000976562 3359.99902344 c 0
 682.66796875 3359.99902344 746.66796875 3333.33203125 800.000976562 3279.99902344 c 0
 853.333984375 3226.66601562 880.000976562 3157.33300781 880.000976562 3072 c 0
 880.000976562 2912 829.333984375 2760 728.000976562 2616 c 0
 626.66796875 2472 506.66796875 2373.33300781 368.000976562 2320 c 1
 304.000976562 2384 l 1
 453.333984375 2501.33300781 554.666992188 2650.66601562 608 2831.99902344 c 1
 533.333007812 2842.66601562 472 2869.33300781 424 2912 c 0
 376 2954.66699219 352 3008 352 3072 c 0
EndSplineSet
EndChar

StartChar: parenleft
Encoding: 40 40 9
Width: 1248
GlyphClass: 2
Flags: W
LayerCount: 2
Fore
SplineSet
1120 3264 m 1
 1184 3168.00097656 l 1
 853.333007812 2890.66796875 634.666015625 2618.66796875 527.999023438 2352.00097656 c 0
 421.33203125 2085.33398438 367.999023438 1792.00097656 367.999023438 1472.00097656 c 0
 367.999023438 1173.33398438 421.33203125 890.666992188 527.999023438 624 c 0
 634.666015625 357.333007812 853.333007812 80 1184 -208 c 1
 1120 -304 l 1
 768 -101.333007812 512 168 352 504 c 0
 192 840 112 1162.66699219 112 1472 c 0
 112 1813.33300781 192 2144 352 2464 c 0
 512 2784 768 3050.66699219 1120 3264 c 1
EndSplineSet
EndChar

StartChar: parenright
Encoding: 41 41 10
Width: 1248
GlyphClass: 2
Flags: W
LayerCount: 2
Fore
SplineSet
128 -304 m 1
 64 -208.000976562 l 1
 384 58.666015625 600 325.333007812 712 592 c 0
 824 858.666992188 880 1152 880 1472 c 0
 880 1781.33300781 824 2069.33300781 712 2336 c 0
 600 2602.66699219 384 2880 64 3168 c 1
 128 3264 l 1
 480 3061.33300781 736 2792 896 2456 c 0
 1056 2120 1136 1792 1136 1472 c 0
 1136 1130.66699219 1056 802.666992188 896 488 c 0
 736 173.333007812 480 -90.6669921875 128 -304 c 1
EndSplineSet
EndChar

StartChar: asterisk
Encoding: 42 42 11
Width: 2048
GlyphClass: 2
Flags: W
LayerCount: 2
Fore
SplineSet
1008 2704 m 0
 1050.66699219 2704 1093.33398438 2672.00195312 1136.00097656 2608.00195312 c 1
 1178.66796875 2554.66894531 1189.33496094 2485.3359375 1168.00195312 2400.00292969 c 1
 1136.00195312 2314.66992188 1114.66894531 2224.00292969 1104.00195312 2128.00292969 c 1
 1082.66894531 2021.3359375 1066.66894531 1866.66894531 1056.00195312 1664.00195312 c 0
 1056.00195312 1621.33496094 1072.00195312 1610.66796875 1104.00195312 1632.00097656 c 0
 1264.00195312 1760.00097656 1381.33496094 1861.33398438 1456.00195312 1936.00097656 c 1
 1520.00195312 2021.33398438 1578.66894531 2096.00097656 1632.00195312 2160.00097656 c 1
 1674.66894531 2224.00097656 1733.3359375 2261.33398438 1808.00292969 2272.00097656 c 1
 1850.66992188 2272.00097656 1888.00292969 2266.66796875 1920.00292969 2256.00097656 c 1
 1952.00292969 2224.00097656 l 2
 1984.00292969 2192.00097656 1989.3359375 2144.00097656 1968.00292969 2080.00097656 c 1
 1936.00292969 2016.00097656 1882.66992188 1968.00097656 1808.00292969 1936.00097656 c 1
 1733.3359375 1893.33398438 1648.00292969 1850.66699219 1552.00292969 1808 c 1
 1456.00292969 1754.66699219 1328.00292969 1669.33398438 1168.00292969 1552.00097656 c 1
 1125.3359375 1530.66796875 1125.3359375 1509.33496094 1168.00292969 1488.00195312 c 1
 1328.00292969 1360.00195312 1456.00292969 1274.66894531 1552.00292969 1232.00195312 c 1
 1648.00292969 1178.66894531 1733.3359375 1136.00195312 1808.00292969 1104.00195312 c 0
 1882.66992188 1072.00195312 1936.00292969 1024.00195312 1968.00292969 960.001953125 c 1
 1978.66992188 917.334960938 1978.66992188 880.001953125 1968.00292969 848.001953125 c 0
 1968.00292969 837.334960938 1962.66992188 826.66796875 1952.00292969 816.000976562 c 0
 1930.66992188 784.000976562 1882.66992188 768.000976562 1808.00292969 768.000976562 c 0
 1733.3359375 768.000976562 1674.66894531 805.333984375 1632.00195312 880.000976562 c 1
 1578.66894531 944.000976562 1520.00195312 1018.66796875 1456.00195312 1104.00097656 c 1
 1381.33496094 1178.66796875 1264.00195312 1280.00097656 1104.00195312 1408.00097656 c 0
 1072.00195312 1429.33398438 1056.00195312 1413.33398438 1056.00195312 1360.00097656 c 0
 1066.66894531 1157.33398438 1082.66894531 1008.00097656 1104.00195312 912.000976562 c 1
 1114.66894531 805.333984375 1136.00195312 714.666992188 1168.00195312 640 c 1
 1189.33496094 554.666992188 1178.66796875 485.333984375 1136.00097656 432.000976562 c 1
 1093.33398438 368.000976562 1050.66699219 336.000976562 1008 336.000976562 c 0
 965.333007812 336.000976562 928 368.000976562 896 432.000976562 c 1
 853.333007812 485.333984375 842.666015625 554.666992188 863.999023438 640 c 0
 885.33203125 714.666992188 906.665039062 805.333984375 927.998046875 912.000976562 c 0
 949.331054688 1008.00097656 959.998046875 1157.33398438 959.998046875 1360.00097656 c 0
 959.998046875 1413.33398438 943.998046875 1429.33398438 911.998046875 1408.00097656 c 1
 762.665039062 1280.00097656 650.665039062 1178.66796875 575.998046875 1104.00097656 c 1
 511.998046875 1018.66796875 453.331054688 944.000976562 399.998046875 880.000976562 c 1
 346.665039062 805.333984375 287.998046875 768.000976562 223.998046875 768.000976562 c 0
 170.665039062 768.000976562 133.33203125 773.333984375 111.999023438 784.000976562 c 1
 101.33203125 784.000976562 90.6650390625 794.66796875 79.998046875 816.000976562 c 1
 58.6650390625 837.333984375 47.998046875 864.000976562 47.998046875 896.000976562 c 1
 58.6650390625 917.333984375 63.998046875 938.666992188 63.998046875 960 c 1
 85.3310546875 1024 138.6640625 1072 223.997070312 1104 c 0
 298.6640625 1136 383.997070312 1178.66699219 479.997070312 1232 c 1
 565.330078125 1274.66699219 693.330078125 1360 863.997070312 1488 c 1
 906.6640625 1509.33300781 906.6640625 1530.66601562 863.997070312 1551.99902344 c 1
 693.330078125 1669.33203125 565.330078125 1754.66503906 479.997070312 1807.99804688 c 1
 383.997070312 1850.66503906 298.6640625 1893.33203125 223.997070312 1935.99902344 c 1
 138.6640625 1967.99902344 85.3310546875 2015.99902344 63.998046875 2079.99902344 c 0
 42.6650390625 2143.99902344 47.998046875 2191.99902344 79.998046875 2223.99902344 c 1
 101.331054688 2255.99902344 149.331054688 2271.99902344 223.998046875 2271.99902344 c 1
 287.998046875 2261.33203125 346.665039062 2223.99902344 399.998046875 2159.99902344 c 0
 453.331054688 2095.99902344 511.998046875 2021.33203125 575.998046875 1935.99902344 c 1
 650.665039062 1861.33203125 762.665039062 1759.99902344 911.998046875 1631.99902344 c 1
 943.998046875 1610.66601562 959.998046875 1621.33300781 959.998046875 1664 c 0
 959.998046875 1866.66699219 949.331054688 2021.33398438 927.998046875 2128.00097656 c 0
 906.665039062 2224.00097656 885.33203125 2314.66796875 863.999023438 2400.00097656 c 0
 842.666015625 2485.33398438 853.333007812 2554.66699219 896 2608 c 1
 928 2672 965.333007812 2704 1008 2704 c 0
EndSplineSet
EndChar

StartChar: plus
Encoding: 43 43 12
Width: 2048
GlyphClass: 2
Flags: W
LayerCount: 2
Fore
SplineSet
944 2848 m 1
 1168 2848 l 1
 1168 1664 l 1
 1936 1664 l 1
 1936 1472 l 1
 1168 1472 l 1
 1168 128 l 1
 944 128 l 1
 944 1472 l 1
 128 1472 l 1
 128 1664 l 1
 944 1664 l 1
 944 2848 l 1
EndSplineSet
EndChar

StartChar: comma
Encoding: 44 44 13
Width: 1248
GlyphClass: 2
Flags: W
LayerCount: 2
Fore
SplineSet
336 -512 m 1
 272 -448.001953125 l 1
 432 -266.668945312 533.333007812 -69.3359375 576 143.997070312 c 1
 490.666992188 154.6640625 426.666992188 181.331054688 384 223.998046875 c 0
 341.333007812 266.665039062 320 325.33203125 320 399.999023438 c 0
 320 485.33203125 344 549.33203125 392 591.999023438 c 0
 440 634.666015625 501.333007812 655.999023438 576 655.999023438 c 0
 640 655.999023438 701.333007812 631.999023438 760 583.999023438 c 0
 818.666992188 535.999023438 848 474.666015625 848 399.999023438 c 0
 848 175.999023438 789.333007812 -18.66796875 672 -184.000976562 c 0
 554.666992188 -349.333984375 442.666992188 -458.666992188 336 -512 c 1
EndSplineSet
EndChar

StartChar: hyphen
Encoding: 45 45 14
Width: 2048
GlyphClass: 2
Flags: W
LayerCount: 2
Fore
SplineSet
128 1664 m 1
 1936 1664 l 1
 1936 1472 l 1
 128 1472 l 1
 128 1664 l 1
EndSplineSet
EndChar

StartChar: period
Encoding: 46 46 15
Width: 1248
GlyphClass: 2
Flags: W
LayerCount: 2
Fore
SplineSet
352 64 m 0
 352 138.666992188 373.333007812 197.333984375 416 240.000976562 c 0
 458.666992188 282.66796875 512 304.000976562 576 304.000976562 c 0
 640 304.000976562 696 282.66796875 744 240.000976562 c 0
 792 197.333984375 816 138.666992188 816 64 c 0
 816 -10.6669921875 792 -66.6669921875 744 -104 c 0
 696 -141.333007812 640 -160 576 -160 c 0
 512 -160 458.666992188 -141.333007812 416 -104 c 0
 373.333007812 -66.6669921875 352 -10.6669921875 352 64 c 0
EndSplineSet
EndChar

StartChar: slash
Encoding: 47 47 16
Width: 2048
GlyphClass: 2
Flags: W
LayerCount: 2
Fore
SplineSet
1840 3216 m 1
 1882.66699219 3258.66699219 1920.00097656 3269.33300781 1952.00097656 3248 c 1
 1994.66796875 3226.66699219 2010.66796875 3189.33398438 2000.00097656 3136.00097656 c 1
 192.000976562 -223.999023438 l 1
 149.333984375 -266.666015625 106.666992188 -277.333007812 64 -256 c 1
 21.3330078125 -245.333007812 5.3330078125 -213.333007812 16 -160 c 1
 1840 3216 l 1
EndSplineSet
EndChar

StartChar: zero
Encoding: 48 48 17
Width: 2048
GlyphClass: 2
Flags: W
LayerCount: 2
Fore
SplineSet
208 1472 m 0
 208 1877.33300781 285.333984375 2202.66601562 440.000976562 2447.99902344 c 0
 594.66796875 2693.33203125 789.334960938 2815.99902344 1024.00195312 2815.99902344 c 0
 1248.00195312 2815.99902344 1440.00195312 2693.33203125 1600.00195312 2447.99902344 c 0
 1760.00195312 2202.66601562 1840.00195312 1877.33300781 1840.00195312 1472 c 0
 1840.00195312 1056 1762.66894531 717.333007812 1608.00195312 456 c 0
 1453.33496094 194.666992188 1258.66796875 64 1024.00097656 64 c 0
 789.333984375 64 594.666992188 194.666992188 440 456 c 0
 285.333007812 717.333007812 208 1056 208 1472 c 0
496.000976562 1472 m 0
 496.000976562 1098.66699219 541.333984375 794.665039062 632.000976562 559.998046875 c 0
 722.66796875 325.331054688 853.334960938 207.998046875 1024.00195312 207.998046875 c 0
 1194.66894531 207.998046875 1325.3359375 325.331054688 1416.00292969 559.998046875 c 0
 1506.66992188 794.665039062 1552.00292969 1098.66503906 1552.00292969 1471.99804688 c 0
 1552.00292969 1834.66503906 1506.66992188 2125.33203125 1416.00292969 2343.99902344 c 0
 1325.3359375 2562.66601562 1194.66894531 2671.99902344 1024.00195312 2671.99902344 c 0
 853.334960938 2671.99902344 722.66796875 2565.33203125 632.000976562 2351.99902344 c 0
 541.333984375 2138.66601562 496.000976562 1845.33300781 496.000976562 1472 c 0
EndSplineSet
EndChar

StartChar: one
Encoding: 49 49 18
Width: 2048
GlyphClass: 2
Flags: W
LayerCount: 2
Fore
SplineSet
928 2592 m 1
 528 2512 l 1
 528 2608 l 1
 1072 2816 l 1
 1152 2816 l 1
 1152 176 l 1
 1552 176 l 1
 1552 80 l 1
 528 80 l 1
 528 176 l 1
 928 176 l 1
 928 2592 l 1
EndSplineSet
EndChar

StartChar: two
Encoding: 50 50 19
Width: 2048
GlyphClass: 2
Flags: W
LayerCount: 2
Fore
SplineSet
960 2816 m 0
 1216 2816 1424 2751.99804688 1584 2623.99804688 c 0
 1744 2495.99804688 1824 2298.66503906 1824 2031.99804688 c 0
 1824 1807.99804688 1642.66699219 1535.99804688 1280 1215.99804688 c 0
 746.666992188 746.665039062 480 447.998046875 480 319.998046875 c 1
 1600 319.998046875 l 1
 1808 799.998046875 l 1
 1904 799.998046875 l 1
 1808 79.998046875 l 1
 208 79.998046875 l 1
 208 223.998046875 l 2
 208 437.331054688 496 799.998046875 1072 1311.99804688 c 1
 1392 1589.33105469 1552 1829.33105469 1552 2031.99804688 c 0
 1552 2266.66503906 1493.33300781 2437.33203125 1376 2543.99902344 c 0
 1258.66699219 2650.66601562 1120 2703.99902344 960 2703.99902344 c 0
 842.666992188 2703.99902344 738.666992188 2666.66601562 648 2591.99902344 c 0
 557.333007812 2517.33203125 496 2426.66503906 464 2319.99804688 c 1
 560 2234.66503906 589.333007812 2157.33203125 552 2087.99902344 c 0
 514.666992188 2018.66601562 458.666992188 1983.99902344 384 1983.99902344 c 1
 341.333007812 1994.66601562 304 2013.33300781 272 2040 c 0
 240 2066.66699219 218.666992188 2106.66699219 208 2160 c 1
 208 2330.66699219 274.666992188 2482.66699219 408 2616 c 0
 541.333007812 2749.33300781 725.333007812 2816 960 2816 c 0
EndSplineSet
EndChar

StartChar: three
Encoding: 51 51 20
Width: 2048
GlyphClass: 2
Flags: W
LayerCount: 2
Fore
SplineSet
1776 848 m 0
 1776 624 1709.33300781 437.3359375 1576 288.002929688 c 0
 1442.66699219 138.669921875 1248 64.0029296875 992 64.0029296875 c 0
 842.666992188 64.0029296875 714.666992188 90.669921875 608 144.002929688 c 0
 501.333007812 197.3359375 416 266.668945312 352 352.001953125 c 0
 288 437.334960938 256 517.334960938 256 592.001953125 c 0
 256 677.334960938 274.666992188 738.66796875 312 776.000976562 c 0
 349.333007812 813.333984375 394.666015625 832.000976562 447.999023438 832.000976562 c 0
 501.33203125 832.000976562 541.33203125 813.333984375 567.999023438 776.000976562 c 0
 594.666015625 738.66796875 607.999023438 698.66796875 607.999023438 656.000976562 c 0
 607.999023438 581.333984375 581.33203125 517.333984375 527.999023438 464.000976562 c 1
 538.666015625 432.000976562 589.333007812 386.66796875 680 328.000976562 c 0
 770.666992188 269.333984375 874.666992188 240.000976562 992 240.000976562 c 0
 1141.33300781 240.000976562 1261.33300781 296.000976562 1352 408.000976562 c 0
 1442.66699219 520.000976562 1488 666.66796875 1488 848.000976562 c 0
 1488 1029.33398438 1448 1168.00097656 1368 1264.00097656 c 0
 1288 1360.00097656 1205.33300781 1421.33398438 1120 1448.00097656 c 0
 1034.66699219 1474.66796875 960 1482.66796875 896 1472.00097656 c 1
 896 1632.00097656 l 1
 1648 2592.00097656 l 1
 752 2592.00097656 l 2
 581.333007812 2592.00097656 464 2416.00097656 400 2064.00097656 c 1
 288 2064.00097656 l 1
 400 2816.00097656 l 1
 1808 2816.00097656 l 1
 1808 2592.00097656 l 1
 1024 1616.00097656 l 1
 1098.66699219 1626.66796875 1202.66699219 1602.66796875 1336 1544.00097656 c 0
 1469.33300781 1485.33398438 1576 1394.66699219 1656 1272 c 0
 1736 1149.33300781 1776 1008 1776 848 c 0
EndSplineSet
EndChar

StartChar: four
Encoding: 52 52 21
Width: 2048
GlyphClass: 2
Flags: W
LayerCount: 2
Fore
SplineSet
1888 992 m 1
 1888 896 l 1
 1392 896 l 1
 1392 496 l 1
 1392 432 l 1
 1392 176 l 1
 1632 176 l 1
 1632 80 l 1
 928 80 l 1
 928 176 l 1
 1168 176 l 1
 1168 432 l 1
 1168 496 l 1
 1168 896 l 1
 160 896 l 1
 160 992 l 1
 1344 2816 l 1
 1392 2816 l 1
 1392 992 l 1
 1888 992 l 1
320 992 m 1
 1168 992 l 1
 1168 2256 l 1
 320 992 l 1
EndSplineSet
EndChar

StartChar: five
Encoding: 53 53 22
Width: 2048
GlyphClass: 2
Flags: W
LayerCount: 2
Fore
SplineSet
400 2816 m 1
 1823.99902344 2816.00097656 l 1
 1775.99902344 2592.00097656 l 1
 543.999023438 2592.00097656 l 1
 463.999023438 1568.00097656 l 1
 570.666015625 1664.00097656 666.666015625 1730.66796875 751.999023438 1768.00097656 c 0
 837.33203125 1805.33398438 927.999023438 1824.00097656 1023.99902344 1824.00097656 c 0
 1226.66601562 1824.00097656 1413.33300781 1744.00097656 1584 1584.00097656 c 0
 1754.66699219 1424.00097656 1840 1210.66796875 1840 944.000976562 c 0
 1840 677.333984375 1762.66699219 464.000976562 1608 304.000976562 c 0
 1453.33300781 144.000976562 1248 64.0009765625 992 64.0009765625 c 0
 746.666992188 64.0009765625 544 130.66796875 384 264.000976562 c 0
 224 397.333984375 144 533.333984375 144 672.000976562 c 0
 144 736.000976562 160 786.66796875 192 824.000976562 c 0
 224 861.333984375 272 885.333984375 336 896.000976562 c 1
 400 896.000976562 450.666992188 880.000976562 488 848.000976562 c 0
 525.333007812 816.000976562 544 768.000976562 544 704.000976562 c 0
 544 640.000976562 506.666992188 581.333984375 432 528.000976562 c 1
 464 453.333984375 538.666992188 381.333984375 656 312.000976562 c 0
 773.333007812 242.66796875 885.333007812 208.000976562 992 208.000976562 c 0
 1141.33300781 208.000976562 1274.66601562 269.333984375 1391.99902344 392.000976562 c 0
 1509.33203125 514.66796875 1567.99902344 704.000976562 1567.99902344 960.000976562 c 0
 1567.99902344 1173.33398438 1514.66601562 1346.66699219 1407.99902344 1480 c 0
 1301.33203125 1613.33300781 1173.33203125 1680 1023.99902344 1680 c 0
 938.666015625 1680 853.333007812 1656 768 1608 c 0
 682.666992188 1560 592 1477.33300781 496 1360 c 1
 288 1376 l 1
 400 2816 l 1
EndSplineSet
EndChar

StartChar: six
Encoding: 54 54 23
Width: 2048
GlyphClass: 2
Flags: W
LayerCount: 2
Fore
SplineSet
1584 2816 m 1
 1600 2720 l 1
 1216 2666.66699219 930.666992188 2514.66699219 744 2264 c 0
 557.333007812 2013.33300781 458.666015625 1701.33300781 447.999023438 1328 c 1
 607.999023438 1594.66699219 810.666015625 1728 1055.99902344 1728 c 0
 1269.33203125 1728 1453.33203125 1650.66699219 1607.99902344 1496 c 0
 1762.66601562 1341.33300781 1839.99902344 1136 1839.99902344 880 c 0
 1839.99902344 624 1767.99902344 424 1623.99902344 280 c 0
 1479.99902344 136 1295.99902344 64 1071.99902344 64 c 0
 805.33203125 64 591.999023438 176 431.999023438 400 c 0
 271.999023438 624 191.999023438 906.666992188 191.999023438 1248 c 0
 191.999023438 1696 309.33203125 2069.33300781 543.999023438 2368 c 0
 778.666015625 2666.66699219 1125.33300781 2816 1584 2816 c 1
448 1120 m 1
 448 853.333007812 509.33203125 634.66796875 631.999023438 464.000976562 c 0
 754.666015625 293.333984375 901.333007812 208.000976562 1072 208.000976562 c 0
 1221.33300781 208.000976562 1341.33300781 266.66796875 1432 384.000976562 c 0
 1522.66699219 501.333984375 1568 666.666992188 1568 880 c 0
 1568 1072 1520 1237.33300781 1424 1376 c 0
 1328 1514.66699219 1205.33300781 1584 1056 1584 c 0
 885.333007812 1584 744 1522.66699219 632 1400 c 0
 520 1277.33300781 458.666992188 1184 448 1120 c 1
EndSplineSet
EndChar

StartChar: seven
Encoding: 55 55 24
Width: 2048
GlyphClass: 2
Flags: W
LayerCount: 2
Fore
SplineSet
720 80 m 1
 922.666992188 1061.33300781 1231.99902344 1898.66601562 1647.99902344 2591.99902344 c 1
 783.999023438 2591.99902344 l 2
 602.666015625 2591.99902344 469.333007812 2415.99902344 384 2063.99902344 c 1
 288 2063.99902344 l 1
 400 2815.99902344 l 1
 1808 2815.99902344 l 1
 1808 2591.99902344 l 1
 1402.66699219 1802.66601562 1146.66699219 965.333007812 1040 80 c 1
 720 80 l 1
EndSplineSet
EndChar

StartChar: eight
Encoding: 56 56 25
Width: 2048
GlyphClass: 2
Flags: W
LayerCount: 2
Fore
SplineSet
1056 64 m 0
 768 64 541.33203125 128.001953125 375.999023438 256.001953125 c 0
 210.666015625 384.001953125 127.999023438 554.668945312 127.999023438 768.001953125 c 0
 127.999023438 992.001953125 194.666015625 1173.33496094 327.999023438 1312.00195312 c 0
 420.666015625 1408.00195312 542.333007812 1496.33496094 693 1577.00195312 c 1
 569.666992188 1648.33496094 477.333984375 1714.66796875 416.000976562 1776.00097656 c 0
 309.333984375 1882.66796875 256.000976562 2016.00097656 256.000976562 2176.00097656 c 0
 256.000976562 2368.00097656 328.000976562 2522.66796875 472.000976562 2640.00097656 c 0
 616.000976562 2757.33398438 800.000976562 2816.00097656 1024.00097656 2816.00097656 c 0
 1237.33398438 2816.00097656 1418.66699219 2752.00097656 1568 2624.00097656 c 0
 1717.33300781 2496.00097656 1792 2346.66796875 1792 2176.00097656 c 0
 1792 2005.33398438 1744 1853.33398438 1648 1720.00097656 c 0
 1584 1631.33398438 1492 1553.33398438 1372 1486.00097656 c 1
 1552.66699219 1392.00097656 1684.66699219 1299.33398438 1768 1208.00097656 c 0
 1880 1085.33398438 1936 938.666992188 1936 768 c 0
 1936 554.666992188 1861.33300781 384 1712 256 c 0
 1562.66699219 128 1344 64 1056 64 c 0
519.999023438 1184.00195312 m 0
 450.666015625 1077.33496094 415.999023438 938.670898438 415.999023438 768.00390625 c 0
 415.999023438 586.670898438 479.999023438 448.00390625 607.999023438 352.00390625 c 0
 735.999023438 256.00390625 885.33203125 208.00390625 1055.99902344 208.00390625 c 0
 1237.33203125 208.00390625 1383.99902344 261.336914062 1495.99902344 368.00390625 c 0
 1607.99902344 474.670898438 1663.99902344 608.00390625 1663.99902344 768.00390625 c 0
 1663.99902344 906.670898438 1618.66601562 1018.67089844 1527.99902344 1104.00390625 c 0
 1437.33203125 1189.33691406 1269.33203125 1290.66992188 1023.99902344 1408.00292969 c 0
 952.666015625 1441.3359375 886.666015625 1473.66894531 825.999023438 1505.00195312 c 1
 675.33203125 1373.00195312 573.33203125 1266.00195312 519.999023438 1184.00195312 c 0
1423.99902344 1792.00488281 m 0
 1477.33203125 1898.671875 1504 2026.671875 1504 2176.00488281 c 0
 1504 2314.671875 1458.66699219 2432.00488281 1368 2528.00488281 c 0
 1277.33300781 2624.00488281 1162.66601562 2672.00488281 1023.99902344 2672.00488281 c 0
 895.999023438 2672.00488281 783.999023438 2624.00488281 687.999023438 2528.00488281 c 0
 591.999023438 2432.00488281 543.999023438 2314.671875 543.999023438 2176.00488281 c 0
 543.999023438 2058.671875 591.999023438 1954.671875 687.999023438 1864.00488281 c 0
 783.999023438 1773.33789062 943.999023438 1680.00488281 1167.99902344 1584.00488281 c 0
 1190.66601562 1574.00488281 1212.99902344 1563.671875 1234.99902344 1553.00488281 c 1
 1324.99902344 1640.33789062 1387.99902344 1720.00488281 1423.99902344 1792.00488281 c 0
EndSplineSet
EndChar

StartChar: nine
Encoding: 57 57 26
Width: 2048
GlyphClass: 2
Flags: W
LayerCount: 2
Fore
SplineSet
432 48 m 1
 416 144.000976562 l 1
 800 197.333984375 1088 349.333984375 1280 600.000976562 c 0
 1472 850.66796875 1573.33300781 1168.00097656 1584 1552.00097656 c 1
 1424 1274.66796875 1216 1136.00097656 960 1136.00097656 c 0
 746.666992188 1136.00097656 562.666992188 1216.00097656 408 1376.00097656 c 0
 253.333007812 1536.00097656 176 1744.00097656 176 2000.00097656 c 0
 176 2256.00097656 248 2456.00097656 392 2600.00097656 c 0
 536 2744.00097656 720 2816.00097656 944 2816.00097656 c 0
 1221.33300781 2816.00097656 1440 2704.00097656 1600 2480.00097656 c 0
 1760 2256.00097656 1840 1973.33398438 1840 1632.00097656 c 0
 1840 1173.33398438 1722.66699219 794.666992188 1488 496 c 0
 1253.33300781 197.333007812 901.333007812 48 432 48 c 1
1584 1760.00097656 m 1
 1584 2026.66796875 1522.66699219 2245.33300781 1400 2416 c 0
 1277.33300781 2586.66699219 1125.33300781 2672 944 2672 c 0
 794.666992188 2672 674.666992188 2613.33300781 584 2496 c 0
 493.333007812 2378.66699219 448 2213.33398438 448 2000.00097656 c 0
 448 1808.00097656 496 1640.00097656 592 1496.00097656 c 0
 688 1352.00097656 810.666992188 1280.00097656 960 1280.00097656 c 0
 1141.33300781 1280.00097656 1288 1344.00097656 1400 1472.00097656 c 0
 1512 1600.00097656 1573.33300781 1696.00097656 1584 1760.00097656 c 1
EndSplineSet
EndChar

StartChar: colon
Encoding: 58 58 27
Width: 1248
GlyphClass: 2
Flags: W
LayerCount: 2
Fore
SplineSet
336 2128 m 0
 336 2202.66699219 362.666992188 2269.33398438 416 2328.00097656 c 0
 469.333007812 2386.66796875 538.666015625 2416.00097656 623.999023438 2416.00097656 c 0
 698.666015625 2416.00097656 762.666015625 2386.66796875 815.999023438 2328.00097656 c 0
 869.33203125 2269.33398438 895.999023438 2202.66699219 895.999023438 2128 c 0
 895.999023438 2053.33300781 869.33203125 1989.33300781 815.999023438 1936 c 0
 762.666015625 1882.66699219 698.666015625 1856 623.999023438 1856 c 0
 538.666015625 1856 469.333007812 1882.66699219 416 1936 c 0
 362.666992188 1989.33300781 336 2053.33300781 336 2128 c 0
336 720 m 0
 336 794.666992188 362.666992188 858.666992188 416 912 c 0
 469.333007812 965.333007812 538.666015625 992 623.999023438 992 c 0
 698.666015625 992 762.666015625 965.333007812 815.999023438 912 c 0
 869.33203125 858.666992188 895.999023438 794.666992188 895.999023438 720 c 0
 895.999023438 645.333007812 869.33203125 578.666015625 815.999023438 519.999023438 c 0
 762.666015625 461.33203125 698.666015625 431.999023438 623.999023438 431.999023438 c 0
 538.666015625 431.999023438 469.333007812 461.33203125 416 519.999023438 c 0
 362.666992188 578.666015625 336 645.333007812 336 720 c 0
EndSplineSet
EndChar

StartChar: semicolon
Encoding: 59 59 28
Width: 1248
GlyphClass: 2
Flags: W
LayerCount: 2
Fore
SplineSet
368 752 m 0
 368 869.333007812 397.333984375 946.666015625 456.000976562 983.999023438 c 0
 514.66796875 1021.33203125 570.66796875 1039.99902344 624.000976562 1039.99902344 c 0
 698.66796875 1039.99902344 762.66796875 1010.66601562 816.000976562 951.999023438 c 0
 869.333984375 893.33203125 896.000976562 815.999023438 896.000976562 719.999023438 c 0
 896.000976562 559.999023438 845.333984375 413.33203125 744.000976562 279.999023438 c 0
 642.66796875 146.666015625 522.66796875 53.3330078125 384.000976562 0 c 1
 320.000976562 64 l 1
 469.333984375 181.333007812 570.666992188 330.666015625 624 511.999023438 c 1
 549.333007812 522.666015625 488 549.333007812 440 592 c 0
 392 634.666992188 368 688 368 752 c 0
336.000976562 2128 m 0
 336.000976562 2202.66699219 362.66796875 2269.33398438 416.000976562 2328.00097656 c 0
 469.333984375 2386.66796875 538.666992188 2416.00097656 624 2416.00097656 c 0
 698.666992188 2416.00097656 762.666992188 2386.66796875 816 2328.00097656 c 0
 869.333007812 2269.33398438 896 2202.66699219 896 2128 c 0
 896 2053.33300781 869.333007812 1989.33300781 816 1936 c 0
 762.666992188 1882.66699219 698.666992188 1856 624 1856 c 0
 538.666992188 1856 469.333984375 1882.66699219 416.000976562 1936 c 0
 362.66796875 1989.33300781 336.000976562 2053.33300781 336.000976562 2128 c 0
EndSplineSet
EndChar

StartChar: less
Encoding: 60 60 29
Width: 2048
GlyphClass: 2
Flags: W
LayerCount: 2
Fore
SplineSet
1680 2800 m 1
 1760 2736 l 1
 496 1472 l 1
 1760 208 l 1
 1680 144 l 1
 352 1472 l 1
 1680 2800 l 1
EndSplineSet
EndChar

StartChar: equal
Encoding: 61 61 30
Width: 2048
GlyphClass: 2
Flags: W
LayerCount: 2
Fore
SplineSet
128 1952 m 1
 1888 1952 l 1
 1888 1760 l 1
 128 1760 l 1
 128 1952 l 1
128 1168 m 1
 1888 1168 l 1
 1888 976 l 1
 128 976 l 1
 128 1168 l 1
EndSplineSet
EndChar

StartChar: greater
Encoding: 62 62 31
Width: 2048
GlyphClass: 2
Flags: W
LayerCount: 2
Fore
SplineSet
400 128 m 1
 320 192 l 1
 1600 1456 l 1
 320 2736 l 1
 400 2800 l 1
 1744 1456 l 1
 400 128 l 1
EndSplineSet
EndChar

StartChar: question
Encoding: 63 63 32
Width: 2048
GlyphClass: 2
Flags: W
LayerCount: 2
Fore
SplineSet
976 3184 m 0
 1210.66699219 3184 1408 3117.33300781 1568 2984 c 0
 1728 2850.66699219 1808 2672 1808 2448 c 0
 1808 2309.33300781 1768 2184 1688 2072 c 0
 1608 1960 1504 1840 1376 1712 c 1
 1162.66699219 1456 1056 1216 1056 992 c 2
 1056 800 l 1
 928 800 l 1
 928 992 l 2
 928 1216 1034.66699219 1488 1248 1808 c 1
 1365.33300781 1957.33300781 1440 2074.66601562 1472 2159.99902344 c 0
 1504 2245.33203125 1520 2341.33203125 1520 2447.99902344 c 0
 1520 2607.99902344 1474.66699219 2749.33203125 1384 2871.99902344 c 0
 1293.33300781 2994.66601562 1157.33300781 3055.99902344 976 3055.99902344 c 0
 794.666992188 3055.99902344 650.666992188 2997.33203125 544 2879.99902344 c 0
 437.333007812 2762.66601562 373.333007812 2629.33300781 352 2480 c 1
 394.666992188 2480 434.666992188 2464 472 2432 c 0
 509.333007812 2400 528 2357.33300781 528 2304 c 0
 528 2250.66699219 512 2208 480 2176 c 0
 448 2144 405.333007812 2128 352 2128 c 0
 309.333007812 2128 269.333007812 2146.66699219 232 2184 c 0
 194.666992188 2221.33300781 176 2277.33300781 176 2352 c 0
 176 2586.66699219 248 2784 392 2944 c 0
 536 3104 730.666992188 3184 976 3184 c 0
784 96 m 0
 784 160 802.666992188 213.333007812 840 256 c 0
 877.333007812 298.666992188 928 320 992 320 c 0
 1056 320 1106.66699219 298.666992188 1144 256 c 0
 1181.33300781 213.333007812 1200 160 1200 96 c 0
 1200 32 1181.33300781 -18.6669921875 1144 -56 c 0
 1106.66699219 -93.3330078125 1056 -112 992 -112 c 0
 928 -112 877.333007812 -93.3330078125 840 -56 c 0
 802.666992188 -18.6669921875 784 32 784 96 c 0
EndSplineSet
EndChar

StartChar: at
Encoding: 64 64 33
Width: 2976
GlyphClass: 2
Flags: W
LayerCount: 2
Fore
SplineSet
272 1504 m 0
 272 1962.66699219 391.998046875 2360 631.998046875 2696 c 0
 871.998046875 3032 1167.99804688 3200 1519.99804688 3200 c 0
 1914.66503906 3200 2213.33203125 3061.33300781 2415.99902344 2784 c 0
 2618.66601562 2506.66699219 2719.99902344 2192 2719.99902344 1840 c 0
 2719.99902344 1466.66699219 2639.99902344 1165.33398438 2479.99902344 936.000976562 c 0
 2319.99902344 706.66796875 2138.66601562 592.000976562 1935.99902344 592.000976562 c 0
 1765.33203125 592.000976562 1658.66503906 682.66796875 1615.99804688 864.000976562 c 1
 1498.66503906 714.66796875 1365.33203125 634.66796875 1215.99902344 624.000976562 c 1
 1087.99902344 634.66796875 989.33203125 701.334960938 919.999023438 824.001953125 c 0
 850.666015625 946.668945312 842.666015625 1162.66894531 895.999023438 1472.00195312 c 0
 938.666015625 1706.66894531 1013.33300781 1936.00195312 1120 2160.00195312 c 0
 1226.66699219 2384.00195312 1381.33398438 2496.00195312 1584.00097656 2496.00195312 c 1
 1648.00097656 2485.33496094 1717.33398438 2458.66796875 1792.00097656 2416.00097656 c 1
 1808.00097656 2576.00097656 l 1
 2048.00097656 2576.00097656 l 1
 1840.00097656 896.000976562 l 2
 1829.33398438 800.000976562 1872.00097656 752.000976562 1968.00097656 752.000976562 c 0
 2106.66796875 752.000976562 2237.33496094 853.333984375 2360.00195312 1056.00097656 c 0
 2482.66894531 1258.66796875 2544.00195312 1520.00097656 2544.00195312 1840.00097656 c 0
 2544.00195312 2160.00097656 2458.66894531 2445.33398438 2288.00195312 2696.00097656 c 0
 2117.33496094 2946.66796875 1866.66796875 3072.00097656 1536.00097656 3072.00097656 c 0
 1248.00097656 3072.00097656 994.66796875 2917.33398438 776.000976562 2608.00097656 c 0
 557.333984375 2298.66796875 448.000976562 1930.66796875 448.000976562 1504.00097656 c 0
 448.000976562 1066.66796875 538.66796875 701.334960938 720.000976562 408.001953125 c 0
 901.333984375 114.668945312 1184.00097656 -31.998046875 1568.00097656 -31.998046875 c 0
 1760.00097656 -31.998046875 1960.00097656 24.001953125 2168.00097656 136.001953125 c 0
 2376.00097656 248.001953125 2549.33398438 416.001953125 2688.00097656 640.001953125 c 1
 2768.00097656 592.001953125 l 1
 2661.33398438 357.334960938 2493.33398438 170.66796875 2264.00097656 32.0009765625 c 0
 2034.66796875 -106.666015625 1802.66796875 -175.999023438 1568.00097656 -175.999023438 c 0
 1141.33398438 -175.999023438 818.666992188 -13.33203125 600 312.000976562 c 0
 381.333007812 637.333984375 272 1034.66699219 272 1504 c 0
1775.99804688 2288 m 1
 1690.66503906 2341.33300781 1621.33105469 2368.00097656 1567.99804688 2368.00097656 c 0
 1461.33105469 2368.00097656 1367.99804688 2250.66796875 1287.99804688 2016.00097656 c 0
 1207.99804688 1781.33398438 1157.33105469 1594.66699219 1135.99804688 1456 c 1
 1082.66503906 1189.33300781 1074.66503906 1008 1111.99804688 912 c 0
 1149.33105469 816 1199.99804688 768 1263.99804688 768 c 0
 1359.99804688 768 1471.99804688 848 1599.99804688 1008 c 1
 1775.99804688 2288 l 1
EndSplineSet
EndChar

StartChar: A
Encoding: 65 65 34
Width: 2720
GlyphClass: 2
Flags: W
LayerCount: 2
Fore
SplineSet
464 176 m 1
 784 176 l 1
 784 80 l 1
 0 80 l 1
 0 176 l 1
 320 176 l 1
 1200 2816 l 1
 1360 2816 l 1
 2432 176 l 1
 2720 176 l 1
 2720 80 l 1
 1872 80 l 1
 1872 176 l 1
 2160 176 l 1
 1766 1184 l 1
 802 1184 l 1
 464 176 l 1
1248 2512 m 1
 840 1296 l 1
 1723 1296 l 1
 1248 2512 l 1
EndSplineSet
EndChar

StartChar: B
Encoding: 66 66 35
Width: 2544
GlyphClass: 2
Flags: W
LayerCount: 2
Fore
SplineSet
208 2816 m 1
 1440 2815.99902344 l 2
 1685.33300781 2815.99902344 1882.66601562 2754.66601562 2031.99902344 2631.99902344 c 0
 2181.33203125 2509.33203125 2255.99902344 2351.99902344 2255.99902344 2159.99902344 c 0
 2255.99902344 1978.66601562 2191.99902344 1829.33300781 2063.99902344 1712 c 0
 1935.99902344 1594.66699219 1834.66601562 1530.66699219 1759.99902344 1520 c 1
 1930.66601562 1456 2069.33300781 1360 2176 1232 c 0
 2282.66699219 1104 2336 965.333007812 2336 816 c 0
 2336 592 2274.66699219 413.333007812 2152 280 c 0
 2029.33300781 146.666992188 1792 80 1440 80 c 2
 208 80 l 1
 208 176 l 1
 464 176 l 1
 464 2720 l 1
 208 2720 l 1
 208 2816 l 1
2048 815.999023438 m 0
 2048 997.33203125 1973.33300781 1151.99902344 1824 1279.99902344 c 0
 1674.66699219 1407.99902344 1520 1471.99902344 1360 1471.99902344 c 2
 688 1471.99902344 l 1
 688 175.999023438 l 1
 1440 175.999023438 l 1
 1600 165.33203125 1741.33300781 215.999023438 1864 327.999023438 c 0
 1986.66699219 439.999023438 2048 602.666015625 2048 815.999023438 c 0
1968 2159.99902344 m 0
 1968 2309.33203125 1912 2439.99902344 1800 2551.99902344 c 0
 1688 2663.99902344 1568 2719.99902344 1440 2719.99902344 c 2
 688 2719.99902344 l 1
 688 1567.99902344 l 1
 1360 1567.99902344 l 2
 1509.33300781 1567.99902344 1648 1623.99902344 1776 1735.99902344 c 0
 1904 1847.99902344 1968 1989.33203125 1968 2159.99902344 c 0
EndSplineSet
EndChar

StartChar: C
Encoding: 67 67 36
Width: 2864
GlyphClass: 2
Flags: W
LayerCount: 2
Fore
SplineSet
256 1440 m 0
 256 1877.33300781 378.66796875 2216 624.000976562 2456 c 0
 869.333984375 2696 1178.66699219 2816 1552 2816 c 0
 1712 2816 1837.33300781 2805.33300781 1928 2784 c 0
 2018.66699219 2762.66699219 2117.33398438 2730.66699219 2224.00097656 2688 c 1
 2464.00097656 2816 l 1
 2592.00097656 2816 l 1
 2592.00097656 1952 l 1
 2464.00097656 1952 l 1
 2421.33398438 2144 2325.33398438 2312 2176.00097656 2456 c 0
 2026.66796875 2600 1818.66796875 2672 1552.00097656 2672 c 0
 1210.66796875 2672 957.334960938 2557.33300781 792.001953125 2328 c 0
 626.668945312 2098.66699219 544.001953125 1802.66699219 544.001953125 1440 c 0
 544.001953125 1077.33300781 632.001953125 789.333007812 808.001953125 576 c 0
 984.001953125 362.666992188 1232.00195312 256 1552.00195312 256 c 0
 1776.00195312 256 1970.66894531 314.666992188 2136.00195312 432 c 0
 2301.33496094 549.333007812 2410.66796875 720 2464.00097656 944 c 1
 2608.00097656 912 l 1
 2554.66796875 634.666992188 2426.66796875 424 2224.00097656 280 c 0
 2021.33398438 136 1797.33398438 64 1552.00097656 64 c 0
 1125.33398438 64 802.666992188 202.666992188 584 480 c 0
 365.333007812 757.333007812 256 1077.33300781 256 1440 c 0
EndSplineSet
EndChar

StartChar: D
Encoding: 68 68 37
Width: 2832
GlyphClass: 2
Flags: W
LayerCount: 2
Fore
SplineSet
208 2816 m 1
 1200.00097656 2816 l 2
 1648.00097656 2816 1973.33398438 2682.66699219 2176.00097656 2416 c 0
 2378.66796875 2149.33300781 2480.00097656 1813.33300781 2480.00097656 1408 c 0
 2480.00097656 1002.66699219 2378.66796875 680 2176.00097656 440 c 0
 1973.33398438 200 1642.66699219 80 1184 80 c 2
 208 80 l 1
 208 176 l 1
 464 176 l 1
 464 2720 l 1
 208 2720 l 1
 208 2816 l 1
2192.00097656 1408 m 0
 2192.00097656 1834.66699219 2101.33496094 2160 1920.00195312 2384 c 0
 1738.66894531 2608 1498.66894531 2720 1200.00195312 2720 c 2
 688.001953125 2720 l 1
 688.001953125 176 l 1
 1184.00195312 176 l 2
 1493.33496094 176 1738.66796875 290.666992188 1920.00097656 520 c 0
 2101.33398438 749.333007812 2192.00097656 1045.33300781 2192.00097656 1408 c 0
EndSplineSet
EndChar

StartChar: E
Encoding: 69 69 38
Width: 2448
GlyphClass: 2
Flags: W
LayerCount: 2
Fore
SplineSet
240 2816 m 1
 2192 2816 l 1
 2192 2128 l 1
 2048 2128 l 1
 2048 2522.66699219 1888 2720 1568 2720 c 2
 688 2720 l 1
 688 1568 l 1
 1440 1568 l 2
 1600 1568 1685.33300781 1690.66699219 1696 1936 c 1
 1824 1936 l 1
 1824 1136 l 1
 1696 1136 l 1
 1685.33300781 1360 1600 1472 1440 1472 c 2
 688 1472 l 1
 688 176 l 1
 1568 176 l 2
 1888 176 2048 368 2048 752 c 1
 2192 752 l 1
 2192 80 l 1
 208 80 l 1
 208 176 l 1
 464 176 l 1
 464 2720 l 1
 240 2720 l 1
 240 2816 l 1
EndSplineSet
EndChar

StartChar: F
Encoding: 70 70 39
Width: 2448
GlyphClass: 2
Flags: W
LayerCount: 2
Fore
SplineSet
240 2816 m 1
 2192 2816 l 1
 2192 2128 l 1
 2048 2128 l 1
 2048 2522.66699219 1888 2720 1568 2720 c 2
 688 2720 l 1
 688 1568 l 1
 1440 1568 l 2
 1600 1568 1685.33300781 1690.66699219 1696 1936 c 1
 1824 1936 l 1
 1824 1136 l 1
 1696 1136 l 1
 1685.33300781 1360 1600 1472 1440 1472 c 2
 688 1472 l 1
 688 176 l 1
 960 176 l 1
 960 80 l 1
 208 80 l 1
 208 176 l 1
 464 176 l 1
 464 2720 l 1
 240 2720 l 1
 240 2816 l 1
EndSplineSet
EndChar

StartChar: G
Encoding: 71 71 40
Width: 2912
GlyphClass: 2
Flags: W
LayerCount: 2
Fore
SplineSet
2224 1216 m 1
 1936.00097656 1215.99902344 l 1
 1936.00097656 1311.99902344 l 1
 2720.00097656 1311.99902344 l 1
 2720.00097656 1215.99902344 l 1
 2480.00097656 1215.99902344 l 1
 2480.00097656 79.9990234375 l 1
 2336.00097656 79.9990234375 l 1
 2240.00097656 239.999023438 l 1
 2026.66796875 122.666015625 1781.33496094 63.9990234375 1504.00195312 63.9990234375 c 0
 1088.00195312 63.9990234375 773.334960938 194.666015625 560.001953125 455.999023438 c 0
 346.668945312 717.33203125 240.001953125 1061.33203125 240.001953125 1487.99902344 c 0
 240.001953125 1882.66601562 354.668945312 2202.66601562 584.001953125 2447.99902344 c 0
 813.334960938 2693.33203125 1114.66796875 2815.99902344 1488.00097656 2815.99902344 c 0
 1605.33398438 2815.99902344 1720.00097656 2802.66601562 1832.00097656 2775.99902344 c 0
 1944.00097656 2749.33203125 2064.00097656 2709.33203125 2192.00097656 2655.99902344 c 1
 2336.00097656 2815.99902344 l 1
 2480.00097656 2815.99902344 l 1
 2480.00097656 2095.99902344 l 1
 2336.00097656 2095.99902344 l 1
 2272.00097656 2266.66601562 2165.33398438 2405.33300781 2016.00097656 2512 c 0
 1866.66796875 2618.66699219 1690.66796875 2672 1488.00097656 2672 c 0
 1221.33398438 2672 994.666992188 2557.33300781 808 2328 c 0
 621.333007812 2098.66699219 528 1818.66699219 528 1488 c 0
 528 1082.66699219 616 770.666992188 792 552 c 0
 968 333.333007812 1205.33300781 224 1504 224 c 0
 1781.33300781 224 2021.33300781 282.666992188 2224 400 c 1
 2224 1216 l 1
EndSplineSet
EndChar

StartChar: H
Encoding: 72 72 41
Width: 2960
GlyphClass: 2
Flags: W
LayerCount: 2
Fore
SplineSet
656 176 m 1
 896 176 l 1
 896 80 l 1
 192 80 l 1
 192 176 l 1
 432 176 l 1
 432 2720 l 1
 144 2720 l 1
 144 2816 l 1
 944 2816 l 1
 944 2720 l 1
 656 2720 l 1
 656 1552 l 1
 2272 1552 l 1
 2272 2720 l 1
 1984 2720 l 1
 1984 2816 l 1
 2784 2816 l 1
 2784 2720 l 1
 2496 2720 l 1
 2496 176 l 1
 2736 176 l 1
 2736 80 l 1
 2032 80 l 1
 2032 176 l 1
 2272 176 l 1
 2272 1456 l 1
 656 1456 l 1
 656 176 l 1
EndSplineSet
EndChar

StartChar: I
Encoding: 73 73 42
Width: 1184
GlyphClass: 2
Flags: W
LayerCount: 2
Fore
SplineSet
688 176 m 1
 928 176 l 1
 928 80 l 1
 224 80 l 1
 224 176 l 1
 464 176 l 1
 464 2720 l 1
 240 2720 l 1
 240 2816 l 1
 912 2816 l 1
 912 2720 l 1
 688 2720 l 1
 688 176 l 1
EndSplineSet
EndChar

StartChar: J
Encoding: 74 74 43
Width: 1584
GlyphClass: 2
Flags: W
LayerCount: 2
Fore
SplineSet
640 2720 m 1
 639.999023438 2816.00292969 l 1
 1343.99902344 2816.00292969 l 1
 1343.99902344 2720.00292969 l 1
 1103.99902344 2720.00292969 l 1
 1103.99902344 896.002929688 l 2
 1103.99902344 597.3359375 1047.99902344 384.002929688 935.999023438 256.002929688 c 0
 823.999023438 128.002929688 671.999023438 64.0029296875 479.999023438 64.0029296875 c 0
 330.666015625 64.0029296875 213.333007812 112.002929688 128 208.002929688 c 0
 42.6669921875 304.002929688 0 400.002929688 0 496.002929688 c 0
 0 560.002929688 10.6669921875 610.669921875 32 648.002929688 c 0
 53.3330078125 685.3359375 96 704.002929688 160 704.002929688 c 1
 224 693.3359375 269.333007812 658.668945312 296 600.001953125 c 0
 322.666992188 541.334960938 298.666992188 480.001953125 224 416.001953125 c 1
 234.666992188 341.334960938 264 282.66796875 312 240.000976562 c 0
 360 197.333984375 416 176.000976562 480 176.000976562 c 0
 608 176.000976562 706.666992188 226.66796875 776 328.000976562 c 0
 845.333007812 429.333984375 880 618.666992188 880 896 c 2
 880 2720 l 1
 640 2720 l 1
EndSplineSet
EndChar

StartChar: K
Encoding: 75 75 44
Width: 2736
GlyphClass: 2
Flags: W
LayerCount: 2
Fore
SplineSet
672 176 m 1
 912 176 l 1
 912 80 l 1
 208 80 l 1
 208 176 l 1
 448 176 l 1
 448 2720 l 1
 208 2720 l 1
 208 2816 l 1
 912 2816 l 1
 912 2720 l 1
 672 2720 l 1
 672 1376 l 1
 1952 2720 l 1
 1680 2720 l 1
 1680 2816 l 1
 2416 2816 l 1
 2416 2720 l 1
 2144 2720 l 1
 1281 1829 l 1
 2352 176 l 1
 2624 176 l 1
 2624 80 l 1
 1776 80 l 1
 1776 176 l 1
 2064 176 l 1
 1122 1665 l 1
 672 1200 l 1
 672 176 l 1
EndSplineSet
EndChar

StartChar: L
Encoding: 76 76 45
Width: 2400
GlyphClass: 2
Flags: W
LayerCount: 2
Fore
SplineSet
448 2720 m 1
 208 2720 l 1
 208 2816 l 1
 912 2816 l 1
 912 2720 l 1
 672 2720 l 1
 672 176 l 1
 1504 176 l 2
 1866.66699219 176 2048 378.666992188 2048 784 c 1
 2192 784 l 1
 2192 80 l 1
 208 80 l 1
 208 176 l 1
 448 176 l 1
 448 2720 l 1
EndSplineSet
EndChar

StartChar: M
Encoding: 77 77 46
Width: 3280
GlyphClass: 2
Flags: W
LayerCount: 2
Fore
SplineSet
400 2720 m 1
 160 2720 l 1
 160 2816 l 1
 688 2816 l 1
 1680 688 l 1
 2560 2816 l 1
 3072 2816 l 1
 3072 2720 l 1
 2832 2720 l 1
 2832 176 l 1
 3072 176 l 1
 3072 80 l 1
 2368 80 l 1
 2368 176 l 1
 2608 176 l 1
 2608 2528 l 1
 1680 288 l 1
 1568 288 l 1
 496 2624 l 1
 496 176 l 1
 736 176 l 1
 736 80 l 1
 160 80 l 1
 160 176 l 1
 400 176 l 1
 400 2720 l 1
EndSplineSet
EndChar

StartChar: N
Encoding: 78 78 47
Width: 2720
GlyphClass: 2
Flags: W
LayerCount: 2
Fore
SplineSet
144 2816 m 1
 608 2816 l 1
 2224 544 l 1
 2224 2720 l 1
 1984 2720 l 1
 1984 2816 l 1
 2560 2816 l 1
 2560 2720 l 1
 2320 2720 l 1
 2320 80 l 1
 2224 80 l 1
 496 2592 l 1
 496 176 l 1
 736 176 l 1
 736 80 l 1
 160 80 l 1
 160 176 l 1
 400 176 l 1
 400 2720 l 1
 144 2720 l 1
 144 2816 l 1
EndSplineSet
EndChar

StartChar: O
Encoding: 79 79 48
Width: 3136
GlyphClass: 2
Flags: W
LayerCount: 2
Fore
SplineSet
288 1472 m 0
 288 1834.66699219 405.333007812 2149.33300781 640 2416 c 0
 874.666992188 2682.66699219 1189.33398438 2816 1584.00097656 2816 c 0
 1946.66796875 2816 2248.00097656 2688 2488.00097656 2432 c 0
 2728.00097656 2176 2848.00097656 1856 2848.00097656 1472 c 0
 2848.00097656 1056 2736.00097656 717.333007812 2512.00097656 456 c 0
 2288.00097656 194.666992188 1978.66796875 64 1584.00097656 64 c 0
 1189.33398438 64 874.666992188 200 640 472 c 0
 405.333007812 744 288 1077.33300781 288 1472 c 0
576 1471.99902344 m 0
 576 1119.99902344 666.668945312 821.330078125 848.001953125 575.997070312 c 0
 1029.33496094 330.6640625 1274.66796875 207.997070312 1584.00097656 207.997070312 c 0
 1882.66796875 207.997070312 2120.00097656 330.6640625 2296.00097656 575.997070312 c 0
 2472.00097656 821.330078125 2560.00097656 1119.99707031 2560.00097656 1471.99707031 c 0
 2560.00097656 1802.6640625 2469.33398438 2085.33105469 2288.00097656 2319.99804688 c 0
 2106.66796875 2554.66503906 1872.00097656 2671.99804688 1584.00097656 2671.99804688 c 0
 1285.33398438 2671.99804688 1042.66699219 2557.33105469 856 2327.99804688 c 0
 669.333007812 2098.66503906 576 1813.33203125 576 1471.99902344 c 0
EndSplineSet
EndChar

StartChar: P
Encoding: 80 80 49
Width: 2304
GlyphClass: 2
Flags: W
LayerCount: 2
Fore
SplineSet
224 2816 m 1
 1312 2816 l 2
 1557.33300781 2816 1765.33300781 2754.66699219 1936 2632 c 0
 2106.66699219 2509.33300781 2192 2330.66601562 2192 2095.99902344 c 0
 2192 1850.66601562 2109.33300781 1669.33300781 1944 1552 c 0
 1778.66699219 1434.66699219 1568 1376 1312 1376 c 2
 688 1376 l 1
 688 176 l 1
 928 176 l 1
 928 80 l 1
 224 80 l 1
 224 176 l 1
 464 176 l 1
 464 2720 l 1
 224 2720 l 1
 224 2816 l 1
688 2720 m 1
 688 1472.00195312 l 1
 1312 1472.00195312 l 2
 1493.33300781 1472.00195312 1637.33300781 1530.66894531 1744 1648.00195312 c 0
 1850.66699219 1765.33496094 1904 1914.66796875 1904 2096.00097656 c 0
 1904 2277.33398438 1853.33300781 2426.66699219 1752 2544 c 0
 1650.66699219 2661.33300781 1504 2720 1312 2720 c 2
 688 2720 l 1
EndSplineSet
EndChar

StartChar: Q
Encoding: 81 81 50
Width: 3136
GlyphClass: 2
Flags: W
LayerCount: 2
Fore
SplineSet
2320 -16 m 0
 2405.33300781 -16 2474.66894531 -0.0009765625 2528.00195312 31.9990234375 c 0
 2581.33496094 63.9990234375 2634.66796875 122.666015625 2688.00097656 207.999023438 c 1
 2784.00097656 159.999023438 l 1
 2741.33398438 21.33203125 2682.66699219 -88.0009765625 2608 -168.000976562 c 0
 2533.33300781 -248.000976562 2442.66601562 -288.000976562 2335.99902344 -288.000976562 c 0
 2143.99902344 -288.000976562 1991.99902344 -208.000976562 1879.99902344 -48.0009765625 c 0
 1852.66601562 -8.66796875 1825.99902344 33.33203125 1799.99902344 77.9990234375 c 1
 1730.66601562 68.666015625 1658.66601562 63.9990234375 1583.99902344 63.9990234375 c 0
 1189.33203125 63.9990234375 874.665039062 199.999023438 639.998046875 471.999023438 c 0
 405.331054688 743.999023438 287.998046875 1077.33203125 287.998046875 1471.99902344 c 0
 287.998046875 1834.66601562 405.331054688 2149.33300781 639.998046875 2416 c 0
 874.665039062 2682.66699219 1189.33203125 2816 1583.99902344 2816 c 0
 1946.66601562 2816 2247.99902344 2688 2487.99902344 2432 c 0
 2727.99902344 2176 2847.99902344 1856 2847.99902344 1472 c 0
 2847.99902344 1056 2735.99902344 717.333007812 2511.99902344 456 c 0
 2393.99902344 318 2252.33203125 216.666992188 2086.99902344 152 c 1
 2179.66601562 40 2257.33300781 -16 2320 -16 c 0
576.002929688 1471.99902344 m 0
 576.002929688 1161.99902344 646.337890625 893.331054688 787.004882812 665.998046875 c 1
 841.671875 779.998046875 902.004882812 869.998046875 968.004882812 935.998046875 c 0
 1069.33789062 1037.33105469 1178.67089844 1087.99804688 1296.00390625 1087.99804688 c 0
 1520.00390625 1087.99804688 1682.67089844 962.665039062 1784.00390625 711.998046875 c 0
 1852.00390625 544.665039062 1918.67089844 406.998046875 1984.00390625 298.998046875 c 1
 2103.33691406 360.331054688 2207.33691406 452.6640625 2296.00390625 575.997070312 c 0
 2472.00390625 821.330078125 2560.00390625 1119.99707031 2560.00390625 1471.99707031 c 0
 2560.00390625 1802.6640625 2469.33691406 2085.33105469 2288.00390625 2319.99804688 c 0
 2106.67089844 2554.66503906 1872.00390625 2671.99804688 1584.00390625 2671.99804688 c 0
 1285.33691406 2671.99804688 1042.66992188 2557.33105469 856.002929688 2327.99804688 c 0
 669.3359375 2098.66503906 576.002929688 1813.33203125 576.002929688 1471.99902344 c 0
1584.00488281 559.998046875 m 0
 1498.671875 805.331054688 1402.671875 927.998046875 1296.00488281 927.998046875 c 1
 1189.33789062 938.665039062 1101.33789062 898.665039062 1032.00488281 807.998046875 c 0
 984.671875 745.998046875 933.671875 655.331054688 879.004882812 535.998046875 c 1
 1057.00488281 317.331054688 1292.00488281 207.998046875 1584.00488281 207.998046875 c 0
 1632.671875 207.998046875 1679.671875 211.331054688 1725.00488281 217.998046875 c 1
 1674.33789062 320.665039062 1627.33789062 434.665039062 1584.00488281 559.998046875 c 0
EndSplineSet
EndChar

StartChar: R
Encoding: 82 82 51
Width: 2464
GlyphClass: 2
Flags: W
LayerCount: 2
Fore
SplineSet
208 2816 m 1
 1264 2815.99902344 l 2
 1541.33300781 2815.99902344 1765.33300781 2757.33203125 1936 2639.99902344 c 0
 2106.66699219 2522.66601562 2192 2357.33300781 2192 2144 c 0
 2192 1941.33300781 2109.33300781 1786.66601562 1944 1679.99902344 c 0
 1799.33300781 1586.66601562 1628.33300781 1534.33300781 1431 1523 c 1
 2112 176 l 1
 2416 176 l 1
 2416 80 l 1
 1888 80 l 1
 1176 1520 l 1
 688 1520 l 1
 688 176 l 1
 928 176 l 1
 928 80 l 1
 208 80 l 1
 208 176 l 1
 464 176 l 1
 464 2720 l 1
 208 2720 l 1
 208 2816 l 1
688 2719.99902344 m 1
 688 1616.00097656 l 1
 1264 1616.00097656 l 2
 1466.66699219 1616.00097656 1626.66699219 1674.66796875 1744 1792.00097656 c 0
 1861.33300781 1909.33398438 1920 2026.66699219 1920 2144 c 0
 1920 2325.33300781 1856 2466.66601562 1728 2567.99902344 c 0
 1600 2669.33203125 1445.33300781 2719.99902344 1264 2719.99902344 c 2
 688 2719.99902344 l 1
EndSplineSet
EndChar

StartChar: S
Encoding: 83 83 52
Width: 2064
GlyphClass: 2
Flags: W
LayerCount: 2
Fore
SplineSet
1024 2816 m 0
 1120 2816 1213.33007812 2805.33105469 1303.99707031 2783.99804688 c 0
 1394.6640625 2762.66503906 1482.6640625 2730.66503906 1567.99707031 2687.99804688 c 1
 1759.99707031 2815.99804688 l 1
 1903.99707031 2815.99804688 l 1
 1903.99707031 1919.99804688 l 1
 1759.99707031 1919.99804688 l 1
 1749.33007812 2069.33105469 1714.66308594 2199.99804688 1655.99609375 2311.99804688 c 0
 1597.32910156 2423.99804688 1514.66210938 2511.99804688 1407.99511719 2575.99804688 c 0
 1301.328125 2639.99804688 1173.328125 2671.99804688 1023.99511719 2671.99804688 c 0
 853.328125 2671.99804688 719.995117188 2621.33105469 623.995117188 2519.99804688 c 0
 527.995117188 2418.66503906 479.995117188 2298.66503906 479.995117188 2159.99804688 c 0
 479.995117188 2010.66503906 538.662109375 1898.66503906 655.995117188 1823.99804688 c 0
 773.328125 1749.33105469 922.661132812 1679.99804688 1103.99414062 1615.99804688 c 0
 1391.99414062 1509.33105469 1591.99414062 1391.99804688 1703.99414062 1263.99804688 c 0
 1815.99414062 1135.99804688 1871.99414062 975.998046875 1871.99414062 783.998046875 c 0
 1871.99414062 559.998046875 1805.32714844 383.998046875 1671.99414062 255.998046875 c 0
 1538.66113281 127.998046875 1317.328125 63.998046875 1007.99511719 63.998046875 c 0
 890.662109375 63.998046875 789.329101562 77.3310546875 703.99609375 103.998046875 c 0
 618.663085938 130.665039062 538.663085938 165.33203125 463.99609375 207.999023438 c 1
 303.99609375 63.9990234375 l 1
 159.99609375 63.9990234375 l 1
 159.99609375 1007.99902344 l 1
 319.99609375 1007.99902344 l 1
 351.99609375 815.999023438 394.663085938 663.999023438 447.99609375 551.999023438 c 0
 501.329101562 439.999023438 581.329101562 354.666015625 687.99609375 295.999023438 c 0
 794.663085938 237.33203125 901.330078125 207.999023438 1007.99707031 207.999023438 c 0
 1178.6640625 207.999023438 1317.33105469 253.33203125 1423.99804688 343.999023438 c 0
 1530.66503906 434.666015625 1583.99804688 581.333007812 1583.99804688 784 c 0
 1583.99804688 890.666992188 1549.33105469 992 1479.99804688 1088 c 0
 1410.66503906 1184 1258.66503906 1280 1023.99804688 1376 c 1
 778.665039062 1461.33300781 581.33203125 1560 431.999023438 1672 c 0
 282.666015625 1784 207.999023438 1946.66699219 207.999023438 2160 c 0
 207.999023438 2320 277.33203125 2469.33300781 415.999023438 2608 c 0
 554.666015625 2746.66699219 757.333007812 2816 1024 2816 c 0
EndSplineSet
EndChar

StartChar: T
Encoding: 84 84 53
Width: 2560
GlyphClass: 2
Flags: W
LayerCount: 2
Fore
SplineSet
1392 176 m 1
 1632 176 l 1
 1632 80 l 1
 928 80 l 1
 928 176 l 1
 1168 176 l 1
 1168 2720 l 1
 944 2720 l 2
 560 2720 362.666992188 2512 352 2096 c 1
 208 2096 l 1
 208 2816 l 1
 2336 2816 l 1
 2336 2096 l 1
 2192 2096 l 1
 2192 2512 2000 2720 1616 2720 c 2
 1392 2720 l 1
 1392 176 l 1
EndSplineSet
EndChar

StartChar: U
Encoding: 85 85 54
Width: 2832
GlyphClass: 2
Flags: W
LayerCount: 2
Fore
SplineSet
656 1104 m 2
 656 794.666992188 733.33203125 565.333007812 887.999023438 416 c 0
 1042.66601562 266.666992188 1237.33300781 192 1472 192 c 0
 1706.66699219 192 1898.66699219 272 2048 432 c 0
 2197.33300781 592 2277.33300781 816 2288 1104 c 1
 2288 2720 l 1
 2000 2720 l 1
 2000 2816 l 1
 2704 2816 l 1
 2704 2720 l 1
 2432 2720 l 1
 2432 1104 l 2
 2432 805.333007812 2344 557.333007812 2168 360 c 0
 1992 162.666992188 1760 64 1472 64 c 0
 1152 64 898.666992188 152 712 328 c 0
 525.333007812 504 432 762.666992188 432 1104 c 2
 432 2720 l 1
 208 2720 l 1
 208 2816 l 1
 896 2816 l 1
 896 2720 l 1
 656 2720 l 1
 656 1104 l 2
EndSplineSet
EndChar

StartChar: V
Encoding: 86 86 55
Width: 2720
GlyphClass: 2
Flags: W
LayerCount: 2
Fore
SplineSet
1424 432 m 1
 2304 2720 l 1
 2032 2720 l 1
 2032 2816 l 1
 2720 2816 l 1
 2720 2720 l 1
 2448 2720 l 1
 1424 80 l 1
 1312 80 l 1
 240 2720 l 1
 0 2720 l 1
 0 2816 l 1
 768 2816 l 1
 768 2720 l 1
 496 2720 l 1
 1424 432 l 1
EndSplineSet
EndChar

StartChar: W
Encoding: 87 87 56
Width: 3568
GlyphClass: 2
Flags: W
LayerCount: 2
Fore
SplineSet
3248 2720 m 1
 3072 2720 l 1
 3072 2816 l 1
 3568 2816 l 1
 3568 2720 l 1
 3392 2720 l 1
 2640 80 l 1
 2512 80 l 1
 1744 2416 l 1
 1104 80 l 1
 976 80 l 1
 192 2720 l 1
 0 2720 l 1
 0 2816 l 1
 624 2816 l 1
 624 2720 l 1
 432 2720 l 1
 1088 496 l 1
 1728 2816 l 1
 1856 2816 l 1
 2624 512 l 1
 3248 2720 l 1
EndSplineSet
EndChar

StartChar: X
Encoding: 88 88 57
Width: 2688
GlyphClass: 2
Flags: W
LayerCount: 2
Fore
SplineSet
2128 2704 m 1
 1840 2704 l 1
 1840 2816 l 1
 2560 2816 l 1
 2560 2704 l 1
 2288 2704 l 1
 1440 1486 l 1
 2352 176 l 1
 2560 176 l 1
 2560 80 l 1
 1872 80 l 1
 1872 176 l 1
 2080 176 l 1
 1308 1296 l 1
 528 176 l 1
 816 176 l 1
 816 80 l 1
 128 80 l 1
 128 176 l 1
 368 176 l 1
 1228 1411 l 1
 336 2704 l 1
 128 2704 l 1
 128 2816 l 1
 848 2816 l 1
 848 2704 l 1
 592 2704 l 1
 1360 1601 l 1
 2128 2704 l 1
EndSplineSet
EndChar

StartChar: Y
Encoding: 89 89 58
Width: 2560
GlyphClass: 2
Flags: W
LayerCount: 2
Fore
SplineSet
1616 176 m 1
 1616 80 l 1
 912 80 l 1
 912 176 l 1
 1152 176 l 1
 1152 1072 l 1
 256 2704 l 1
 32 2704 l 1
 32 2816 l 1
 800 2816 l 1
 800 2704 l 1
 528 2704 l 1
 1312 1280 l 1
 2144 2704 l 1
 1872 2704 l 1
 1872 2816 l 1
 2528 2816 l 1
 2528 2704 l 1
 2288 2704 l 1
 1376 1152 l 1
 1376 176 l 1
 1616 176 l 1
EndSplineSet
EndChar

StartChar: Z
Encoding: 90 90 59
Width: 2304
GlyphClass: 2
Flags: W
LayerCount: 2
Fore
SplineSet
2048 2816 m 1
 2048 2704 l 1
 544 192 l 1
 1360 192 l 2
 1722.66699219 192 1904 378.666992188 1904 752 c 1
 2048 752 l 1
 2048 80 l 1
 256 80 l 1
 256 176 l 1
 1760 2704 l 1
 864 2704 l 2
 554.666992188 2704 400 2544 400 2224 c 1
 256 2224 l 1
 256 2816 l 1
 2048 2816 l 1
EndSplineSet
EndChar

StartChar: bracketleft
Encoding: 91 91 60
Width: 1360
GlyphClass: 2
Flags: W
LayerCount: 2
Fore
SplineSet
320 3296 m 1
 1216 3296 l 1
 1216 3104 l 1
 528 3104 l 1
 528 -192 l 1
 1216 -192 l 1
 1216 -384 l 1
 320 -384 l 1
 320 3296 l 1
EndSplineSet
EndChar

StartChar: backslash
Encoding: 92 92 61
Width: 2048
GlyphClass: 2
Flags: W
LayerCount: 2
Fore
SplineSet
1136 176 m 1
 1376 176 l 1
 1376 80 l 1
 672 80 l 1
 672 176 l 1
 912 176 l 1
 912 992 l 1
 272 992 l 1
 272 1104 l 1
 912 1104 l 1
 912 1264 l 1
 713 1728 l 1
 272 1728 l 1
 272 1840 l 1
 665 1840 l 1
 288 2720 l 1
 80 2720 l 1
 80 2816 l 1
 768 2816 l 1
 768 2720 l 1
 544 2720 l 1
 918 1840 l 1
 1253 1840 l 1
 1616 2720 l 1
 1408 2720 l 1
 1408 2816 l 1
 1968 2816 l 1
 1968 2720 l 1
 1760 2720 l 1
 1383 1840 l 1
 1760 1840 l 1
 1760 1728 l 1
 1335 1728 l 1
 1136 1264 l 1
 1136 1104 l 1
 1760 1104 l 1
 1760 992 l 1
 1136 992 l 1
 1136 176 l 1
1088 1440 m 1
 1207 1728 l 1
 966 1728 l 1
 1088 1440 l 1
EndSplineSet
EndChar

StartChar: bracketright
Encoding: 93 93 62
Width: 1360
GlyphClass: 2
Flags: W
LayerCount: 2
Fore
SplineSet
1056 3296 m 1
 1056 -384 l 1
 176 -384 l 1
 176 -192 l 1
 864 -192 l 1
 864 3104 l 1
 176 3104 l 1
 176 3296 l 1
 1056 3296 l 1
EndSplineSet
EndChar

StartChar: asciicircum
Encoding: 94 94 63
Width: 1248
GlyphClass: 2
Flags: W
LayerCount: 2
Fore
SplineSet
400 3440 m 1
 832 3440 l 1
 1200 2832 l 1
 1120 2800 l 1
 624 3200 l 1
 128 2800 l 1
 48 2832 l 1
 400 3440 l 1
EndSplineSet
EndChar

StartChar: underscore
Encoding: 95 95 64
Width: 1248
GlyphClass: 2
Flags: W
LayerCount: 2
Fore
SplineSet
0 -320 m 1
 1248 -320 l 1
 1248 -480 l 1
 0 -480 l 1
 0 -320 l 1
EndSplineSet
EndChar

StartChar: grave
Encoding: 96 96 65
Width: 1248
GlyphClass: 2
Flags: W
LayerCount: 2
Fore
SplineSet
144 3328 m 1
 144 3440 l 1
 624 3440 l 1
 1104 2832 l 1
 1008 2752 l 1
 144 3328 l 1
EndSplineSet
EndChar

StartChar: a
Encoding: 97 97 66
Width: 1856
GlyphClass: 2
Flags: W
LayerCount: 2
Fore
SplineSet
960 1872 m 2
 1077.33300781 1872 1189.33496094 1834.66699219 1296.00195312 1760 c 0
 1402.66894531 1685.33300781 1456.00195312 1546.66601562 1456.00195312 1343.99902344 c 2
 1456.00195312 303.999023438 l 2
 1456.00195312 250.666015625 1482.66894531 221.333007812 1536.00195312 216 c 0
 1589.33496094 210.666992188 1642.66796875 298.666992188 1696.00097656 480 c 1
 1792.00097656 432 l 1
 1738.66796875 186.666992188 1626.66796875 64 1456.00097656 64 c 0
 1392.00097656 64 1338.66796875 85.3330078125 1296.00097656 128 c 0
 1253.33398438 170.666992188 1232.00097656 218.666992188 1232.00097656 272 c 1
 1114.66796875 133.333007812 960.000976562 64 768.000976562 64 c 2
 576.000976562 64 l 2
 469.333984375 64 376.000976562 106.666992188 296.000976562 192 c 0
 216.000976562 277.333007812 176.000976562 368 176.000976562 464 c 0
 176.000976562 720 282.66796875 906.666992188 496.000976562 1024 c 0
 709.333984375 1141.33300781 954.666992188 1216 1232 1248 c 1
 1232 1344 l 2
 1232 1482.66699219 1205.33300781 1581.33398438 1152 1640.00097656 c 0
 1098.66699219 1698.66796875 1034.66699219 1728.00097656 960 1728.00097656 c 0
 864 1728.00097656 770.666992188 1704.00097656 680 1656.00097656 c 0
 589.333007812 1608.00097656 544 1536.00097656 544 1440.00097656 c 0
 544 1365.33398438 480 1306.66699219 352 1264 c 1
 288 1264 256 1296 256 1360 c 0
 256 1520 322.666992188 1645.33300781 456 1736 c 0
 589.333007812 1826.66699219 693.333007812 1872 768 1872 c 2
 960 1872 l 2
1232.00195312 1120 m 1
 1008.00195312 1077.33300781 818.66796875 1005.33300781 664.000976562 904 c 0
 509.333984375 802.666992188 432.000976562 656 432.000976562 464 c 0
 432.000976562 389.333007812 453.333984375 328 496.000976562 280 c 0
 538.66796875 232 629.334960938 208 768.001953125 208 c 0
 928.001953125 208 1082.66894531 277.333007812 1232.00195312 416 c 1
 1232.00195312 1120 l 1
 1232.00195312 1120 l 1
EndSplineSet
EndChar

StartChar: b
Encoding: 98 98 67
Width: 2048
GlyphClass: 2
Flags: W
LayerCount: 2
Fore
SplineSet
416 80 m 1
 319.999023438 79.9990234375 l 1
 319.999023438 2703.99902344 l 1
 111.999023438 2703.99902344 l 1
 111.999023438 2799.99902344 l 1
 431.999023438 2943.99902344 l 1
 543.999023438 2943.99902344 l 1
 543.999023438 1695.99902344 l 1
 714.666015625 1813.33203125 890.666015625 1871.99902344 1071.99902344 1871.99902344 c 0
 1306.66601562 1871.99902344 1493.33300781 1789.33203125 1632 1623.99902344 c 0
 1770.66699219 1458.66601562 1840 1237.33300781 1840 960 c 0
 1840 661.333007812 1768 437.333007812 1624 288 c 0
 1480 138.666992188 1280 64 1024 64 c 0
 853.333007812 64 693.333007812 117.333007812 544 224 c 1
 416 80 l 1
1023.99902344 207.999023438 m 0
 1183.99902344 207.999023438 1320 271.999023438 1432 399.999023438 c 0
 1544 527.999023438 1600 714.666015625 1600 959.999023438 c 0
 1600 1226.66601562 1546.66699219 1418.66601562 1440 1535.99902344 c 0
 1333.33300781 1653.33203125 1210.66601562 1711.99902344 1071.99902344 1711.99902344 c 0
 901.33203125 1711.99902344 725.33203125 1663.99902344 543.999023438 1567.99902344 c 1
 543.999023438 319.999023438 l 1
 693.33203125 245.33203125 853.33203125 207.999023438 1023.99902344 207.999023438 c 0
EndSplineSet
EndChar

StartChar: c
Encoding: 99 99 68
Width: 1904
GlyphClass: 2
Flags: W
LayerCount: 2
Fore
SplineSet
1056 1872 m 0
 1226.66699219 1872 1386.66796875 1818.66601562 1536.00097656 1711.99902344 c 0
 1685.33398438 1605.33203125 1760.00097656 1487.99902344 1760.00097656 1359.99902344 c 0
 1760.00097656 1295.99902344 1746.66796875 1245.33203125 1720.00097656 1207.99902344 c 0
 1693.33398438 1170.66601562 1658.66699219 1151.99902344 1616 1151.99902344 c 0
 1541.33300781 1151.99902344 1488 1178.66601562 1456 1231.99902344 c 0
 1424 1285.33203125 1440 1359.99902344 1504 1455.99902344 c 1
 1482.66699219 1519.99902344 1426.66699219 1581.33203125 1336 1639.99902344 c 0
 1245.33300781 1698.66601562 1152 1727.99902344 1056 1727.99902344 c 0
 874.666992188 1727.99902344 733.333984375 1655.99902344 632.000976562 1511.99902344 c 0
 530.66796875 1367.99902344 480.000976562 1194.66601562 480.000976562 991.999023438 c 0
 480.000976562 767.999023438 530.66796875 589.33203125 632.000976562 455.999023438 c 0
 733.333984375 322.666015625 874.666992188 255.999023438 1056 255.999023438 c 0
 1216 255.999023438 1349.33300781 285.33203125 1456 343.999023438 c 0
 1562.66699219 402.666015625 1658.66699219 501.333007812 1744 640 c 1
 1840 592 l 1
 1786.66699219 432 1688 304 1544 208 c 0
 1400 112 1237.33300781 64 1056 64 c 0
 789.333007812 64 578.666015625 149.333007812 423.999023438 320 c 0
 269.33203125 490.666992188 191.999023438 714.666992188 191.999023438 992 c 0
 191.999023438 1248 269.33203125 1458.66699219 423.999023438 1624 c 0
 578.666015625 1789.33300781 789.333007812 1872 1056 1872 c 0
EndSplineSet
EndChar

StartChar: d
Encoding: 100 100 69
Width: 2048
GlyphClass: 2
Flags: W
LayerCount: 2
Fore
SplineSet
1488 2704 m 1
 1280.00195312 2704.00097656 l 1
 1280.00195312 2800.00097656 l 1
 1584.00195312 2944.00097656 l 1
 1712.00195312 2944.00097656 l 1
 1712.00195312 256.000976562 l 1
 1920.00195312 256.000976562 l 1
 1920.00195312 160.000976562 l 1
 1600.00195312 80.0009765625 l 1
 1488.00195312 80.0009765625 l 1
 1488.00195312 304.000976562 l 1
 1349.33496094 144.000976562 1178.66796875 64.0009765625 976.000976562 64.0009765625 c 0
 730.66796875 64.0009765625 544.000976562 149.333984375 416.000976562 320.000976562 c 0
 288.000976562 490.66796875 224.000976562 720.000976562 224.000976562 1008.00097656 c 0
 224.000976562 1253.33398438 290.66796875 1458.66699219 424.000976562 1624 c 0
 557.333984375 1789.33300781 730.666992188 1872 944 1872 c 0
 1136 1872 1317.33300781 1797.33300781 1488 1648 c 1
 1488 2704 l 1
944.001953125 1728.00097656 m 1
 784.001953125 1717.33398438 666.66796875 1637.33398438 592.000976562 1488.00097656 c 0
 517.333984375 1338.66796875 480.000976562 1178.66796875 480.000976562 1008.00097656 c 0
 480.000976562 773.333984375 520.000976562 581.333984375 600.000976562 432.000976562 c 0
 680.000976562 282.66796875 805.333984375 208.000976562 976.000976562 208.000976562 c 0
 1146.66796875 208.000976562 1317.33496094 293.333984375 1488.00195312 464.000976562 c 1
 1488.00195312 1504.00097656 l 1
 1317.33496094 1653.33398438 1136.00195312 1728.00097656 944.001953125 1728.00097656 c 1
EndSplineSet
EndChar

StartChar: e
Encoding: 101 101 70
Width: 1936
GlyphClass: 2
Flags: W
LayerCount: 2
Fore
SplineSet
992 1872 m 0
 1194.66699219 1872 1373.33496094 1797.33203125 1528.00195312 1647.99902344 c 0
 1682.66894531 1498.66601562 1760.00195312 1333.33300781 1760.00195312 1152 c 2
 1760.00195312 1040 l 1
 529.001953125 1040 l 1
 528.334960938 1024 528.001953125 1008 528.001953125 992 c 0
 528.001953125 725.333007812 578.668945312 536 680.001953125 424 c 0
 781.334960938 312 922.66796875 256 1104.00097656 256 c 0
 1221.33398438 256 1333.33398438 280 1440.00097656 328 c 0
 1546.66796875 376 1648.00097656 480 1744.00097656 640 c 1
 1840.00097656 608 l 1
 1797.33398438 437.333007812 1704.00097656 304 1560.00097656 208 c 0
 1416.00097656 112 1264.00097656 64 1104.00097656 64 c 0
 837.333984375 64 626.666992188 130.666992188 472 264 c 0
 317.333007812 397.333007812 240 640 240 992 c 0
 240 1301.33300781 320 1525.33300781 480 1664 c 0
 640 1802.66699219 810.666992188 1872 992 1872 c 0
1472.00097656 1151.99902344 m 1
 1461.33398438 1322.66601562 1410.66796875 1461.33300781 1320.00097656 1568 c 0
 1229.33398438 1674.66699219 1120.00097656 1728 992.000976562 1728 c 0
 864.000976562 1728 754.66796875 1666.66699219 664.000976562 1544 c 0
 594.000976562 1449.33300781 551.000976562 1318.66601562 535.000976562 1151.99902344 c 1
 1472.00097656 1151.99902344 l 1
EndSplineSet
EndChar

StartChar: f
Encoding: 102 102 71
Width: 1040
GlyphClass: 2
Flags: W
LayerCount: 2
Fore
SplineSet
848 176 m 1
 847.997070312 80 l 1
 143.997070312 80 l 1
 143.997070312 176 l 1
 383.997070312 176 l 1
 383.997070312 1776 l 1
 -0.0029296875 1776 l 1
 -0.0029296875 1872 l 1
 383.997070312 1872 l 1
 383.997070312 2240 l 1
 394.6640625 2624 533.331054688 2816 799.998046875 2816 c 2
 975.998046875 2816 l 2
 1103.99804688 2816 1213.33105469 2781.33300781 1303.99804688 2712 c 0
 1394.66503906 2642.66699219 1439.99804688 2554.66699219 1439.99804688 2448 c 0
 1439.99804688 2309.33300781 1381.33105469 2240 1263.99804688 2240 c 0
 1178.66503906 2240 1125.33203125 2277.33300781 1103.99902344 2352 c 0
 1082.66601562 2426.66699219 1114.66601562 2496 1199.99902344 2560 c 1
 1114.66601562 2656 1013.33300781 2704 896 2704 c 0
 704 2704 608 2549.33300781 608 2240 c 2
 608 1872 l 1
 1120 1872 l 1
 1120 1776 l 1
 608 1776 l 1
 608 176 l 1
 848 176 l 1
EndSplineSet
EndChar

StartChar: g
Encoding: 103 103 72
Width: 1936
GlyphClass: 2
Flags: W
LayerCount: 2
Fore
SplineSet
1456 208 m 2
 1456 335.999023438 l 1
 1274.66699219 218.666015625 1104 159.999023438 944 159.999023438 c 0
 698.666992188 159.999023438 514.666992188 234.666015625 392 383.999023438 c 0
 269.333007812 533.33203125 208 735.999023438 208 991.999023438 c 0
 208 1301.33203125 272 1525.33203125 400 1663.99902344 c 0
 528 1802.66601562 661.333007812 1871.99902344 800 1871.99902344 c 2
 960 1871.99902344 l 2
 1098.66699219 1871.99902344 1264 1802.66601562 1456 1663.99902344 c 1
 1520 1871.99902344 l 1
 1680 1871.99902344 l 1
 1680 271.999023438 l 2
 1680 5.33203125 1616 -192.000976562 1488 -320.000976562 c 0
 1360 -448.000976562 1168 -512.000976562 912 -512.000976562 c 0
 752 -512.000976562 600 -474.66796875 456 -400.000976562 c 0
 312 -325.333984375 240 -226.666992188 240 -104 c 0
 240 18.6669921875 293.333007812 74.6669921875 400 64 c 1
 464 53.3330078125 506.666992188 21.3330078125 528 -32 c 0
 549.333007812 -85.3330078125 533.333007812 -149.333007812 480 -224 c 1
 586.666992188 -330.666992188 730.666992188 -384 912 -384 c 0
 1082.66699219 -384 1216 -333.333007812 1312 -232 c 0
 1408 -130.666992188 1456 16 1456 208 c 2
944 303.999023438 m 0
 1114.66699219 303.999023438 1285.33398438 357.33203125 1456.00097656 463.999023438 c 1
 1456.00097656 1519.99902344 l 1
 1285.33398438 1658.66601562 1114.66699219 1727.99902344 944 1727.99902344 c 0
 784 1727.99902344 661.333007812 1666.66601562 576 1543.99902344 c 0
 490.666992188 1421.33203125 448 1237.33203125 448 991.999023438 c 0
 448 746.666015625 490.666992188 570.666015625 576 463.999023438 c 0
 661.333007812 357.33203125 784 303.999023438 944 303.999023438 c 0
EndSplineSet
EndChar

StartChar: h
Encoding: 104 104 73
Width: 2048
GlyphClass: 2
Flags: W
LayerCount: 2
Fore
SplineSet
576 176 m 1
 815.998046875 176 l 1
 815.998046875 80 l 1
 111.998046875 80 l 1
 111.998046875 176 l 1
 351.998046875 176 l 1
 351.998046875 2704 l 1
 143.998046875 2704 l 1
 143.998046875 2800 l 1
 479.998046875 2944 l 1
 575.998046875 2944 l 1
 575.998046875 1536 l 1
 746.665039062 1760 943.998046875 1872 1167.99804688 1872 c 2
 1311.99804688 1872 l 2
 1418.66503906 1872 1514.66503906 1824 1599.99804688 1728 c 0
 1685.33105469 1632 1727.99804688 1493.33300781 1727.99804688 1312 c 2
 1727.99804688 176 l 1
 1967.99804688 176 l 1
 1967.99804688 80 l 1
 1263.99804688 80 l 1
 1263.99804688 176 l 1
 1503.99804688 176 l 1
 1503.99804688 1312 l 2
 1503.99804688 1472 1469.33105469 1581.33300781 1399.99804688 1640 c 0
 1330.66503906 1698.66699219 1253.33203125 1728 1167.99902344 1728 c 0
 954.666015625 1728 757.333007812 1616 576 1392 c 1
 576 176 l 1
EndSplineSet
EndChar

StartChar: i
Encoding: 105 105 74
Width: 992
GlyphClass: 2
Flags: W
LayerCount: 2
Fore
SplineSet
848 176 m 1
 848 80 l 1
 144 80 l 1
 144 176 l 1
 384 176 l 1
 384 1648 l 1
 160 1648 l 1
 160 1728 l 1
 512 1872 l 1
 608 1872 l 1
 608 176 l 1
 848 176 l 1
256 2672 m 0
 256 2736 277.333007812 2789.33300781 320 2832 c 0
 362.666992188 2874.66699219 416 2896 480 2896 c 0
 544 2896 597.333007812 2874.66699219 640 2832 c 0
 682.666992188 2789.33300781 704 2736 704 2672 c 0
 704 2618.66699219 682.666992188 2570.66699219 640 2528 c 0
 597.333007812 2485.33300781 544 2464 480 2464 c 0
 416 2464 362.666992188 2485.33300781 320 2528 c 0
 277.333007812 2570.66699219 256 2618.66699219 256 2672 c 0
EndSplineSet
EndChar

StartChar: j
Encoding: 106 106 75
Width: 992
GlyphClass: 2
Flags: W
LayerCount: 2
Fore
SplineSet
336 -512 m 0
 250.666992188 -512 173.333007812 -477.333007812 104 -408 c 0
 34.6669921875 -338.666992188 0 -250.666992188 0 -144 c 1
 -10.6669921875 -101.333007812 0 -61.3330078125 32 -24 c 0
 64 13.3330078125 106.666992188 32 160 32 c 0
 202.666992188 32 237.333984375 18.6669921875 264.000976562 -8 c 0
 290.66796875 -34.6669921875 304.000976562 -74.6669921875 304.000976562 -128 c 0
 304.000976562 -192 272.000976562 -245.333007812 208.000976562 -288 c 1
 229.333984375 -341.333007812 272.000976562 -368 336.000976562 -368 c 0
 432.000976562 -368 506.66796875 -328 560.000976562 -248 c 0
 613.333984375 -168 640.000976562 -10.6669921875 640.000976562 224 c 2
 640.000976562 1632 l 1
 368.000976562 1632 l 1
 368.000976562 1744 l 1
 752.000976562 1872 l 1
 864.000976562 1872 l 1
 864.000976562 224 l 2
 864.000976562 -21.3330078125 818.66796875 -205.333007812 728.000976562 -328 c 0
 637.333984375 -450.666992188 506.666992188 -512 336 -512 c 0
511.999023438 2672 m 0
 511.999023438 2736 533.33203125 2789.33300781 575.999023438 2832 c 0
 618.666015625 2874.66699219 671.999023438 2896 735.999023438 2896 c 0
 799.999023438 2896 853.33203125 2874.66699219 895.999023438 2832 c 0
 938.666015625 2789.33300781 959.999023438 2736 959.999023438 2672 c 0
 959.999023438 2618.66699219 938.666015625 2570.66699219 895.999023438 2528 c 0
 853.33203125 2485.33300781 799.999023438 2464 735.999023438 2464 c 0
 671.999023438 2464 618.666015625 2485.33300781 575.999023438 2528 c 0
 533.33203125 2570.66699219 511.999023438 2618.66699219 511.999023438 2672 c 0
EndSplineSet
EndChar

StartChar: k
Encoding: 107 107 76
Width: 2016
GlyphClass: 2
Flags: W
LayerCount: 2
Fore
SplineSet
544 176 m 1
 784 176 l 1
 784 80 l 1
 80 80 l 1
 80 176 l 1
 320 176 l 1
 320 2720 l 1
 112 2720 l 1
 112 2800 l 1
 432 2944 l 1
 544 2944 l 1
 544 832 l 1
 1328 1760 l 1
 1040 1760 l 1
 1040 1872 l 1
 1776 1872 l 1
 1776 1760 l 1
 1504 1760 l 1
 1057 1246 l 1
 1696 176 l 1
 1904 176 l 1
 1904 80 l 1
 1184 80 l 1
 1184 176 l 1
 1424 176 l 1
 908 1075 l 1
 544 656 l 1
 544 176 l 1
EndSplineSet
EndChar

StartChar: l
Encoding: 108 108 77
Width: 992
GlyphClass: 2
Flags: W
LayerCount: 2
Fore
SplineSet
368 2704 m 1
 64 2704 l 1
 64 2800 l 1
 288 2800 l 2
 384 2800 448 2848 480 2944 c 1
 592 2944 l 1
 592 176 l 1
 928 176 l 1
 928 80 l 1
 64 80 l 1
 64 176 l 1
 368 176 l 1
 368 2704 l 1
EndSplineSet
EndChar

StartChar: m
Encoding: 109 109 78
Width: 2880
GlyphClass: 2
Flags: W
LayerCount: 2
Fore
SplineSet
2288 1472 m 2
 2288 1557.33300781 2266.66601562 1621.33398438 2223.99902344 1664.00097656 c 0
 2181.33203125 1706.66796875 2127.99902344 1728.00097656 2063.99902344 1728.00097656 c 0
 1903.99902344 1728.00097656 1727.99902344 1674.66796875 1535.99902344 1568.00097656 c 1
 1535.99902344 400.000976562 l 1
 1391.99902344 80.0009765625 l 1
 1311.99902344 80.0009765625 l 1
 1311.99902344 1472.00097656 l 2
 1311.99902344 1568.00097656 1290.66601562 1634.66796875 1247.99902344 1672.00097656 c 0
 1205.33203125 1709.33398438 1157.33203125 1728.00097656 1103.99902344 1728.00097656 c 0
 922.666015625 1728.00097656 741.333007812 1674.66796875 560 1568.00097656 c 1
 560 176.000976562 l 1
 800 176.000976562 l 1
 800 80.0009765625 l 1
 96 80.0009765625 l 1
 96 176.000976562 l 1
 336 176.000976562 l 1
 336 1664.00097656 l 1
 160 1664.00097656 l 1
 160 1760.00097656 l 1
 464 1872.00097656 l 1
 560 1872.00097656 l 1
 560 1712.00097656 l 1
 762.666992188 1818.66796875 944 1872.00097656 1104 1872.00097656 c 2
 1200 1872.00097656 l 2
 1285.33300781 1872.00097656 1357.33300781 1850.66796875 1416 1808.00097656 c 0
 1474.66699219 1765.33398438 1509.33398438 1722.66699219 1520.00097656 1680 c 1
 1733.33398438 1808 1914.66699219 1872 2064 1872 c 2
 2160 1872 l 2
 2245.33300781 1872 2325.33300781 1837.33300781 2400 1768 c 0
 2474.66699219 1698.66699219 2512 1600 2512 1472 c 2
 2512 176 l 1
 2752 176 l 1
 2752 80 l 1
 2048 80 l 1
 2048 176 l 1
 2288 176 l 1
 2288 1472 l 2
EndSplineSet
EndChar

StartChar: n
Encoding: 110 110 79
Width: 2048
GlyphClass: 2
Flags: W
LayerCount: 2
Fore
SplineSet
784 176 m 1
 784 79.9990234375 l 1
 80 79.9990234375 l 1
 80 175.999023438 l 1
 320 175.999023438 l 1
 320 1647.99902344 l 1
 96 1647.99902344 l 1
 96 1743.99902344 l 1
 448 1871.99902344 l 1
 544 1871.99902344 l 1
 544 1583.99902344 l 1
 736 1775.99902344 906.666992188 1871.99902344 1056 1871.99902344 c 2
 1232 1871.99902344 l 2
 1360 1871.99902344 1474.66699219 1829.33203125 1576 1743.99902344 c 0
 1677.33300781 1658.66601562 1728 1525.33300781 1728 1344 c 2
 1728 176 l 1
 1968 176 l 1
 1968 80 l 1
 1264 80 l 1
 1264 176 l 1
 1504 176 l 1
 1504 1344 l 2
 1504 1472 1472 1568 1408 1632 c 0
 1344 1696 1258.66699219 1728 1152 1728 c 0
 992 1728 789.333007812 1642.66699219 544 1472 c 1
 544 176 l 1
 784 176 l 1
EndSplineSet
EndChar

StartChar: o
Encoding: 111 111 80
Width: 2048
GlyphClass: 2
Flags: W
LayerCount: 2
Fore
SplineSet
160 976 m 0
 160 1242.66699219 239.999023438 1458.66699219 399.999023438 1624 c 0
 559.999023438 1789.33300781 767.999023438 1872 1023.99902344 1872 c 0
 1258.66601562 1872 1458.66601562 1789.33300781 1623.99902344 1624 c 0
 1789.33203125 1458.66699219 1871.99902344 1242.66699219 1871.99902344 976 c 0
 1871.99902344 709.333007812 1797.33203125 490.666015625 1647.99902344 319.999023438 c 0
 1498.66601562 149.33203125 1285.33300781 63.9990234375 1008 63.9990234375 c 0
 752 63.9990234375 546.666992188 149.33203125 392 319.999023438 c 0
 237.333007812 490.666015625 160 709.333007812 160 976 c 0
431.999023438 976 m 0
 431.999023438 752 482.666992188 567.999023438 584 423.999023438 c 0
 685.333007812 279.999023438 826.666015625 207.999023438 1007.99902344 207.999023438 c 0
 1189.33203125 207.999023438 1333.33203125 277.33203125 1439.99902344 415.999023438 c 0
 1546.66601562 554.666015625 1599.99902344 741.333007812 1599.99902344 976 c 0
 1599.99902344 1200 1543.99902344 1381.33300781 1431.99902344 1520 c 0
 1319.99902344 1658.66699219 1183.99902344 1728 1023.99902344 1728 c 0
 853.33203125 1728 711.999023438 1661.33300781 599.999023438 1528 c 0
 487.999023438 1394.66699219 431.999023438 1210.66699219 431.999023438 976 c 0
EndSplineSet
EndChar

StartChar: p
Encoding: 112 112 81
Width: 2048
GlyphClass: 2
Flags: W
LayerCount: 2
Fore
SplineSet
1040 208 m 0
 1210.66699219 208 1349.33203125 280 1455.99902344 424 c 0
 1562.66601562 568 1615.99902344 757.333007812 1615.99902344 992 c 0
 1615.99902344 1248 1557.33203125 1437.33300781 1439.99902344 1560 c 0
 1322.66601562 1682.66699219 1189.33300781 1744 1040 1744 c 0
 869.333007812 1744 704 1674.66699219 544 1536 c 1
 544 368 l 1
 704 261.333007812 869.333007812 208 1040 208 c 0
783.998046875 -416 m 1
 783.999023438 -512 l 1
 79.9990234375 -512 l 1
 79.9990234375 -416 l 1
 319.999023438 -416 l 1
 319.999023438 1632 l 1
 111.999023438 1632 l 1
 111.999023438 1744 l 1
 431.999023438 1872 l 1
 543.999023438 1872 l 1
 543.999023438 1664 l 1
 693.33203125 1802.66699219 858.665039062 1872 1039.99804688 1872 c 2
 1151.99804688 1872 l 2
 1343.99804688 1872 1511.99804688 1797.33300781 1655.99804688 1648 c 0
 1799.99804688 1498.66699219 1871.99804688 1280 1871.99804688 992 c 0
 1871.99804688 714.666992188 1799.99804688 490.666992188 1655.99804688 320 c 0
 1511.99804688 149.333007812 1306.66503906 64 1039.99804688 64 c 0
 847.998046875 64 682.665039062 128 543.998046875 256 c 1
 543.998046875 -416 l 1
 783.998046875 -416 l 1
EndSplineSet
EndChar

StartChar: q
Encoding: 113 113 82
Width: 2048
GlyphClass: 2
Flags: W
LayerCount: 2
Fore
SplineSet
1008 208 m 0
 1189.33300781 208 1354.66699219 266.666015625 1504 383.999023438 c 1
 1504 1519.99902344 l 1
 1376 1658.66601562 1205.33300781 1727.99902344 992 1727.99902344 c 0
 842.666992188 1727.99902344 722.666992188 1661.33203125 632 1527.99902344 c 0
 541.333007812 1394.66601562 496 1221.33300781 496 1008 c 0
 496 784 541.333007812 594.666992188 632 440 c 0
 722.666992188 285.333007812 848 208 1008 208 c 0
1968.00097656 -416.000976562 m 1
 1968 -512.000976562 l 1
 1264 -512.000976562 l 1
 1264 -416.000976562 l 1
 1504 -416.000976562 l 1
 1504 239.999023438 l 1
 1365.33300781 122.666015625 1200 63.9990234375 1008 63.9990234375 c 0
 762.666992188 63.9990234375 573.333984375 154.666015625 440.000976562 335.999023438 c 0
 306.66796875 517.33203125 240.000976562 741.33203125 240.000976562 1007.99902344 c 0
 240.000976562 1263.99902344 304.000976562 1471.99902344 432.000976562 1631.99902344 c 0
 560.000976562 1791.99902344 720.000976562 1871.99902344 912.000976562 1871.99902344 c 2
 1040.00097656 1871.99902344 l 2
 1200.00097656 1871.99902344 1354.66796875 1802.66601562 1504.00097656 1663.99902344 c 1
 1568.00097656 1871.99902344 l 1
 1728.00097656 1871.99902344 l 1
 1728.00097656 -416.000976562 l 1
 1968.00097656 -416.000976562 l 1
EndSplineSet
EndChar

StartChar: r
Encoding: 114 114 83
Width: 1504
GlyphClass: 2
Flags: W
LayerCount: 2
Fore
SplineSet
1024 1760 m 0
 842.666992188 1760 687.999023438 1600 559.999023438 1280 c 1
 559.999023438 176 l 1
 799.999023438 176 l 1
 799.999023438 80 l 1
 95.9990234375 80 l 1
 95.9990234375 176 l 1
 335.999023438 176 l 1
 335.999023438 1648 l 1
 95.9990234375 1648 l 1
 95.9990234375 1744 l 1
 447.999023438 1872 l 1
 559.999023438 1872 l 1
 559.999023438 1472 l 1
 677.33203125 1738.66699219 831.999023438 1872 1023.99902344 1872 c 2
 1167.99902344 1872 l 2
 1242.66601562 1872 1309.33300781 1845.33300781 1368 1792 c 0
 1426.66699219 1738.66699219 1456 1674.66699219 1456 1600 c 0
 1456 1525.33300781 1440 1472 1408 1440 c 0
 1376 1408 1333.33300781 1392 1280 1392 c 1
 1205.33300781 1402.66699219 1157.33300781 1434.66699219 1136 1488 c 0
 1114.66699219 1541.33300781 1136 1605.33300781 1200 1680 c 1
 1168 1733.33300781 1109.33300781 1760 1024 1760 c 0
EndSplineSet
EndChar

StartChar: s
Encoding: 115 115 84
Width: 1696
GlyphClass: 2
Flags: W
LayerCount: 2
Fore
SplineSet
1376 1872 m 1
 1488 1871.99902344 l 1
 1488 1231.99902344 l 1
 1376 1231.99902344 l 1
 1312 1402.66601562 1232 1527.99902344 1136 1607.99902344 c 0
 1040 1687.99902344 928 1727.99902344 800 1727.99902344 c 0
 693.333007812 1727.99902344 613.333007812 1695.99902344 560 1631.99902344 c 0
 506.666992188 1567.99902344 480 1493.33203125 480 1407.99902344 c 0
 480 1322.66601562 509.333007812 1255.99902344 568 1207.99902344 c 0
 626.666992188 1159.99902344 730.666992188 1119.99902344 880 1087.99902344 c 1
 1093.33300781 1023.99902344 1248 949.33203125 1344 863.999023438 c 0
 1440 778.666015625 1488 666.666015625 1488 527.999023438 c 0
 1488 389.33203125 1440 277.33203125 1344 191.999023438 c 0
 1248 106.666015625 1098.66699219 63.9990234375 896 63.9990234375 c 0
 725.333007812 63.9990234375 586.666015625 95.9990234375 479.999023438 159.999023438 c 1
 319.999023438 63.9990234375 l 1
 207.999023438 63.9990234375 l 1
 207.999023438 767.999023438 l 1
 319.999023438 767.999023438 l 1
 330.666015625 575.999023438 391.999023438 434.666015625 503.999023438 343.999023438 c 0
 615.999023438 253.33203125 746.666015625 207.999023438 895.999023438 207.999023438 c 0
 1002.66601562 207.999023438 1085.33300781 237.33203125 1144 295.999023438 c 0
 1202.66699219 354.666015625 1232 431.999023438 1232 527.999023438 c 0
 1232 623.999023438 1186.66699219 698.666015625 1096 751.999023438 c 0
 1005.33300781 805.33203125 896 847.999023438 768 879.999023438 c 0
 576 922.666015625 434.666992188 989.333007812 344 1080 c 0
 253.333007812 1170.66699219 208 1280 208 1408 c 0
 208 1557.33300781 264 1672 376 1752 c 0
 488 1832 629.333007812 1872 800 1872 c 0
 938.666992188 1872 1072 1845.33300781 1200 1792 c 1
 1376 1872 l 1
EndSplineSet
EndChar

StartChar: t
Encoding: 116 116 85
Width: 1440
GlyphClass: 2
Flags: W
LayerCount: 2
Fore
SplineSet
608 688 m 2
 608 517.333007812 632 400.000976562 680 336.000976562 c 0
 728 272.000976562 784 245.333984375 848 256.000976562 c 1
 1008 256.000976562 1136 453.333984375 1232 848.000976562 c 1
 1360 800.000976562 l 1
 1274.66699219 309.333984375 1104 64.0009765625 848 64.0009765625 c 0
 709.333007812 64.0009765625 597.333007812 114.66796875 512 216.000976562 c 0
 426.666992188 317.333984375 384 474.666992188 384 688 c 2
 384 1776 l 1
 48 1776 l 1
 48 1872 l 1
 160 1872 l 2
 330.666992188 1872 448 2101.33300781 512 2560 c 1
 608 2560 l 1
 608 1872 l 1
 1120 1872 l 1
 1120 1776 l 1
 608 1776 l 1
 608 688 l 2
EndSplineSet
EndChar

StartChar: u
Encoding: 117 117 86
Width: 2048
GlyphClass: 2
Flags: W
LayerCount: 2
Fore
SplineSet
544 672 m 2
 544 565.333007812 568 469.333007812 616 384 c 0
 664 298.666992188 741.333007812 256 848 256 c 0
 1082.66699219 256 1301.33398438 432 1504.00097656 784 c 1
 1504.00097656 1648 l 1
 1248.00097656 1648 l 1
 1248.00097656 1744 l 1
 1632.00097656 1872 l 1
 1728.00097656 1872 l 1
 1728.00097656 304 l 1
 1936.00097656 304 l 1
 1936.00097656 208 l 1
 1584.00097656 80 l 1
 1504.00097656 80 l 1
 1504.00097656 560 l 1
 1312.00097656 229.333007812 1093.33398438 64 848.000976562 64 c 0
 677.333984375 64 546.666992188 117.333007812 456 224 c 0
 365.333007812 330.666992188 320 480 320 672 c 2
 320 1664 l 1
 80 1664 l 1
 80 1744 l 1
 448 1872 l 1
 544 1872 l 1
 544 672 l 2
EndSplineSet
EndChar

StartChar: v
Encoding: 118 118 87
Width: 1952
GlyphClass: 2
Flags: W
LayerCount: 2
Fore
SplineSet
64 1872 m 1
 768 1872 l 1
 768 1760 l 1
 528 1760 l 1
 1040 464 l 1
 1520 1760 l 1
 1232 1760 l 1
 1232 1872 l 1
 1904 1872 l 1
 1904 1760 l 1
 1648 1760 l 1
 1024 80 l 1
 928 80 l 1
 272 1760 l 1
 64 1760 l 1
 64 1872 l 1
EndSplineSet
EndChar

StartChar: w
Encoding: 119 119 88
Width: 2464
GlyphClass: 2
Flags: W
LayerCount: 2
Fore
SplineSet
16 1872 m 1
 656 1872 l 1
 656 1760 l 1
 448 1760 l 1
 800 576 l 1
 1120 1872 l 1
 1296 1872 l 1
 1728 560 l 1
 2048 1760 l 1
 1856 1760 l 1
 1856 1872 l 1
 2384 1872 l 1
 2384 1760 l 1
 2176 1760 l 1
 1712 80 l 1
 1600 80 l 1
 1168 1488 l 1
 816 80 l 1
 704 80 l 1
 224 1760 l 1
 16 1760 l 1
 16 1872 l 1
EndSplineSet
EndChar

StartChar: x
Encoding: 120 120 89
Width: 1920
GlyphClass: 2
Flags: W
LayerCount: 2
Fore
SplineSet
1472 1776 m 1
 1200 1776 l 1
 1200 1872 l 1
 1856 1872 l 1
 1856 1776 l 1
 1600 1776 l 1
 1056 1000 l 1
 1600 176 l 1
 1856 176 l 1
 1856 80 l 1
 1088 80 l 1
 1088 176 l 1
 1328 176 l 1
 920 804 l 1
 480 176 l 1
 784 176 l 1
 784 80 l 1
 64 80 l 1
 64 176 l 1
 352 176 l 1
 858 899 l 1
 288 1776 l 1
 64 1776 l 1
 64 1872 l 1
 784 1872 l 1
 784 1776 l 1
 544 1776 l 1
 994 1094 l 1
 1472 1776 l 1
EndSplineSet
EndChar

StartChar: y
Encoding: 121 121 90
Width: 1952
GlyphClass: 2
Flags: W
LayerCount: 2
Fore
SplineSet
16 1872 m 1
 720 1872.00097656 l 1
 720 1776.00097656 l 1
 464 1776.00097656 l 1
 1052 630.000976562 l 1
 1520 1776.00097656 l 1
 1280 1776.00097656 l 1
 1280 1872.00097656 l 1
 1888 1872.00097656 l 1
 1888 1776.00097656 l 1
 1648 1776.00097656 l 1
 832 -207.999023438 l 2
 789.333007812 -303.999023438 738.666015625 -378.666015625 679.999023438 -431.999023438 c 0
 621.33203125 -485.33203125 543.999023438 -511.999023438 447.999023438 -511.999023438 c 0
 351.999023438 -511.999023438 271.999023438 -482.666015625 207.999023438 -423.999023438 c 0
 143.999023438 -365.33203125 111.999023438 -309.33203125 111.999023438 -255.999023438 c 0
 111.999023438 -202.666015625 119.999023438 -165.333007812 135.999023438 -144 c 0
 151.999023438 -122.666992188 186.666015625 -106.666992188 239.999023438 -96 c 1
 314.666015625 -96 367.999023438 -125.333007812 399.999023438 -184 c 0
 431.999023438 -242.666992188 410.666015625 -298.666992188 335.999023438 -352 c 1
 367.999023438 -384 405.33203125 -400 447.999023438 -400 c 0
 511.999023438 -400 565.33203125 -378.666992188 607.999023438 -336 c 0
 650.666015625 -293.333007812 693.333007812 -229.333007812 736 -144 c 1
 941 357 l 1
 224 1776 l 1
 16 1776 l 1
 16 1872 l 1
EndSplineSet
EndChar

StartChar: z
Encoding: 122 122 91
Width: 1856
GlyphClass: 2
Flags: W
LayerCount: 2
Fore
SplineSet
192 1872 m 1
 1664.00097656 1872 l 1
 1664.00097656 1776 l 1
 464.000976562 176 l 1
 1088.00097656 176 l 2
 1333.33398438 176 1482.66699219 357.333007812 1536 720 c 1
 1664 720 l 1
 1664 80 l 1
 192 80 l 1
 192 176 l 1
 1376 1776 l 1
 784 1776 l 2
 496 1776 341.333007812 1616 320 1296 c 1
 192 1296 l 1
 192 1872 l 1
EndSplineSet
EndChar

StartChar: braceleft
Encoding: 123 123 92
Width: 992
GlyphClass: 2
Flags: W
LayerCount: 2
Fore
SplineSet
928 3248 m 1
 928 3136.00097656 l 1
 784 3136.00097656 l 2
 592 3136.00097656 496 3008.00097656 496 2752.00097656 c 2
 496 2080.00097656 l 2
 496 1781.33398438 410.666992188 1578.66699219 240 1472 c 1
 410.666992188 1365.33300781 496 1184 496 928 c 2
 496 160 l 2
 496 -74.6669921875 592 -192 784 -192 c 2
 928 -192 l 1
 928 -304 l 1
 784 -304 l 2
 506.666992188 -304 368 -149.333007812 368 160 c 2
 368 928 l 2
 368 1237.33300781 266.666992188 1397.33300781 64 1408 c 1
 64 1536 l 1
 266.666992188 1546.66699219 368 1728 368 2080 c 2
 368 2752 l 2
 368 3082.66699219 506.666992188 3248 784 3248 c 2
 928 3248 l 1
EndSplineSet
EndChar

StartChar: bar
Encoding: 124 124 93
Width: 896
GlyphClass: 2
Flags: W
LayerCount: 2
Fore
SplineSet
320 3488 m 1
 560 3488 l 1
 560 -544 l 1
 320 -544 l 1
 320 3488 l 1
EndSplineSet
EndChar

StartChar: braceright
Encoding: 125 125 94
Width: 992
GlyphClass: 2
Flags: W
LayerCount: 2
Fore
SplineSet
64 -288 m 1
 64 -176.000976562 l 1
 144 -176.000976562 l 2
 378.666992188 -176.000976562 496 -53.333984375 496 191.999023438 c 2
 496 863.999023438 l 2
 496 1162.66601562 581.333007812 1365.33300781 752 1472 c 1
 581.333007812 1589.33300781 496 1776 496 2032 c 2
 496 2800 l 2
 496 3034.66699219 378.666992188 3152 144 3152 c 2
 64 3152 l 1
 64 3264 l 1
 144 3264 l 2
 464 3264 624 3109.33300781 624 2800 c 2
 624 2032 l 2
 624 1722.66699219 725.333007812 1562.66699219 928 1552 c 1
 928 1408 l 1
 725.333007812 1397.33300781 624 1216 624 864 c 2
 624 192 l 2
 624 -128 464 -288 144 -288 c 2
 64 -288 l 1
EndSplineSet
EndChar

StartChar: asciitilde
Encoding: 126 126 95
Width: 2048
GlyphClass: 2
Flags: W
LayerCount: 2
Fore
SplineSet
208 2944 m 1
 314.666992188 3221.33300781 453.33203125 3360 623.999023438 3360 c 0
 773.33203125 3360 917.33203125 3290.66699219 1055.99902344 3152 c 1
 1183.99902344 3013.33300781 1290.66601562 2944 1375.99902344 2944 c 0
 1493.33203125 2944 1610.66503906 3040 1727.99804688 3232 c 1
 1839.99804688 3168 l 1
 1722.66503906 2890.66699219 1567.99804688 2752 1375.99804688 2752 c 0
 1258.66503906 2752 1125.33203125 2832 975.999023438 2992 c 1
 858.666015625 3109.33300781 741.333007812 3168 624 3168 c 0
 528 3168 426.666992188 3072 320 2880 c 1
 208 2944 l 1
EndSplineSet
EndChar

StartChar: exclamdown
Encoding: 161 161 97
Width: 1088
GlyphClass: 2
Flags: W
LayerCount: 2
Fore
SplineSet
320 -176 m 1
 480 2112 l 1
 576 2112 l 1
 720 -176 l 1
 320 -176 l 1
544 2480 m 0
 405.333007812 2480 336 2549.33300781 336 2688 c 0
 336 2826.66699219 405.333007812 2896 544 2896 c 0
 682.666992188 2896 752 2826.66699219 752 2688 c 0
 752 2549.33300781 682.666992188 2480 544 2480 c 0
EndSplineSet
EndChar

StartChar: cent
Encoding: 162 162 98
Width: 1744
GlyphClass: 2
Flags: W
LayerCount: 2
Fore
SplineSet
1232 2224 m 1
 1129 1828.99804688 l 1
 1222.33300781 1803.66503906 1310 1759.33203125 1392 1695.99902344 c 0
 1530.66699219 1589.33203125 1600 1461.33203125 1600 1311.99902344 c 0
 1600 1258.66601562 1586.66699219 1210.66601562 1560 1167.99902344 c 0
 1533.33300781 1125.33203125 1488 1103.99902344 1424 1103.99902344 c 0
 1360 1103.99902344 1317.33300781 1138.66601562 1296 1207.99902344 c 0
 1274.66699219 1277.33203125 1296 1359.99902344 1360 1455.99902344 c 1
 1328 1530.66601562 1274.66699219 1594.66601562 1200 1647.99902344 c 0
 1168 1670.66601562 1133.33300781 1688.66601562 1096 1701.99902344 c 1
 717 251.999023438 l 1
 798.333007812 211.999023438 890 191.999023438 992 191.999023438 c 0
 1088 191.999023438 1184 223.999023438 1280 287.999023438 c 0
 1376 351.999023438 1445.33300781 453.33203125 1488 591.999023438 c 1
 1600 559.999023438 l 1
 1546.66699219 378.666015625 1466.66699219 250.666015625 1360 175.999023438 c 0
 1253.33300781 101.33203125 1130.66601562 63.9990234375 991.999023438 63.9990234375 c 0
 878.666015625 63.9990234375 774.333007812 78.666015625 679 107.999023438 c 1
 576 -288.000976562 l 1
 464 -256.000976562 l 1
 570 150.999023438 l 1
 496 185.666015625 428.666992188 231.333007812 368 288 c 0
 208 437.333007812 128 656 128 944 c 0
 128 1232 202.666992188 1456 352 1616 c 0
 501.333007812 1776 693.333007812 1856 928 1856 c 0
 957.333007812 1856 986 1854.33300781 1014 1851 c 1
 1120 2256 l 1
 1232 2224 l 1
400 943.998046875 m 0
 400 666.665039062 456.000976562 471.998046875 568.000976562 359.998046875 c 0
 582.66796875 345.331054688 598.000976562 331.331054688 614.000976562 317.998046875 c 1
 981.000976562 1725.99804688 l 1
 963.66796875 1727.33105469 946.000976562 1727.99804688 928.000976562 1727.99804688 c 0
 789.333984375 1727.99804688 666.666992188 1663.99804688 560 1535.99804688 c 0
 453.333007812 1407.99804688 400 1210.66503906 400 943.998046875 c 0
EndSplineSet
EndChar

StartChar: sterling
Encoding: 163 163 99
Width: 2448
GlyphClass: 2
Flags: W
LayerCount: 2
Fore
SplineSet
688 64 m 0
 560 64 458.668945312 104.00390625 384.001953125 184.00390625 c 0
 309.334960938 264.00390625 272.001953125 362.670898438 272.001953125 480.00390625 c 0
 272.001953125 618.670898438 312.001953125 722.670898438 392.001953125 792.00390625 c 0
 472.001953125 861.336914062 565.334960938 896.00390625 672.001953125 896.00390625 c 0
 790.668945312 896.00390625 915.3359375 821.670898438 1046.00292969 673.00390625 c 1
 1052.66992188 723.00390625 1056.00292969 776.00390625 1056.00292969 832.00390625 c 0
 1056.00292969 992.00390625 1000.00292969 1181.33691406 888.002929688 1400.00390625 c 0
 878.002929688 1418.67089844 868.669921875 1437.33789062 860.002929688 1456.00488281 c 1
 464.002929688 1456.00488281 l 1
 464.002929688 1568.00488281 l 1
 811.002929688 1568.00488281 l 1
 750.3359375 1717.33789062 720.002929688 1850.67089844 720.002929688 1968.00390625 c 0
 720.002929688 2170.67089844 784.002929688 2352.00390625 912.002929688 2512.00390625 c 0
 1040.00292969 2672.00390625 1221.3359375 2752.00390625 1456.00292969 2752.00390625 c 0
 1584.00292969 2752.00390625 1709.3359375 2712.00390625 1832.00292969 2632.00390625 c 0
 1954.66992188 2552.00390625 2016.00292969 2448.00390625 2016.00292969 2320.00390625 c 0
 2016.00292969 2234.67089844 2000.00292969 2170.67089844 1968.00292969 2128.00390625 c 0
 1936.00292969 2085.33691406 1898.66992188 2064.00390625 1856.00292969 2064.00390625 c 0
 1760.00292969 2064.00390625 1704.00292969 2098.67089844 1688.00292969 2168.00390625 c 0
 1672.00292969 2237.33691406 1696.00292969 2314.66992188 1760.00292969 2400.00292969 c 1
 1749.3359375 2464.00292969 1714.66894531 2514.66992188 1656.00195312 2552.00292969 c 0
 1597.33496094 2589.3359375 1530.66796875 2608.00292969 1456.00097656 2608.00292969 c 0
 1306.66796875 2608.00292969 1194.66796875 2538.66992188 1120.00097656 2400.00292969 c 0
 1045.33398438 2261.3359375 1008.00097656 2122.66894531 1008.00097656 1984.00195312 c 0
 1008.00097656 1851.33496094 1031.00097656 1712.66796875 1077.00097656 1568.00097656 c 1
 1904.00097656 1568.00097656 l 1
 1904.00097656 1456.00097656 l 1
 1117.00097656 1456.00097656 l 1
 1123.00097656 1440.00097656 1129.33398438 1424.00097656 1136.00097656 1408.00097656 c 0
 1221.33398438 1205.33398438 1264.00097656 1013.33398438 1264.00097656 832.000976562 c 0
 1264.00097656 701.333984375 1247.00097656 582.333984375 1213.00097656 475.000976562 c 1
 1337.00097656 350.333984375 1466.00097656 288.000976562 1600.00097656 288.000976562 c 0
 1749.33398438 288.000976562 1872.00097656 410.66796875 1968.00097656 656.000976562 c 1
 2064.00097656 608.000976562 l 1
 1978.66796875 245.333984375 1824.00097656 64.0009765625 1600.00097656 64.0009765625 c 1
 1426.00097656 54.66796875 1271.66796875 134.000976562 1137.00097656 302.000976562 c 1
 1133.66796875 297.333984375 1130.66796875 292.666992188 1128.00097656 288 c 0
 1037.33398438 138.666992188 890.666992188 64 688 64 c 0
672.001953125 736.00390625 m 0
 597.334960938 736.00390625 541.333984375 712.00390625 504.000976562 664.00390625 c 0
 466.66796875 616.00390625 448.000976562 554.670898438 448.000976562 480.00390625 c 0
 448.000976562 405.336914062 469.333984375 341.336914062 512.000976562 288.00390625 c 0
 554.66796875 234.670898438 613.334960938 208.00390625 688.001953125 208.00390625 c 0
 794.668945312 208.00390625 882.668945312 266.670898438 952.001953125 384.00390625 c 0
 972.001953125 417.336914062 989.001953125 453.336914062 1003.00195312 492.00390625 c 1
 881.001953125 654.670898438 770.668945312 736.00390625 672.001953125 736.00390625 c 0
EndSplineSet
EndChar

StartChar: currency
Encoding: 164 164 100
Width: 2080
GlyphClass: 2
Flags: W
LayerCount: 2
Fore
SplineSet
432 656 m 1
 304 869.333007812 240.000976562 1130.66699219 240.000976562 1440 c 0
 240.000976562 1738.66699219 304.000976562 2000 432.000976562 2224 c 1
 176.000976562 2640 l 1
 272.000976562 2768 l 1
 512.000976562 2368 l 1
 661.333984375 2560 832.000976562 2656 1024.00097656 2656 c 0
 1216.00097656 2656 1386.66796875 2560 1536.00097656 2368 c 1
 1792.00097656 2768 l 1
 1888.00097656 2624 l 1
 1616.00097656 2224 l 1
 1744.00097656 2000 1808.00097656 1738.66699219 1808.00097656 1440 c 0
 1808.00097656 1141.33300781 1749.33398438 885.333007812 1632.00097656 672 c 1
 1872.00097656 288 l 1
 1776.00097656 144 l 1
 1536.00097656 528 l 1
 1397.33398438 325.333007812 1226.66699219 224 1024 224 c 0
 832 224 661.333007812 320 512 512 c 1
 272 144 l 1
 176 288 l 1
 432 656 l 1
368.000976562 1440.00097656 m 0
 368.000976562 1130.66796875 442.668945312 880.000976562 592.001953125 688.000976562 c 1
 709.334960938 517.333984375 853.334960938 432.000976562 1024.00195312 432.000976562 c 0
 1237.33496094 432.000976562 1402.66796875 549.333984375 1520.00097656 784.000976562 c 1
 1626.66796875 965.333984375 1680.00097656 1184.00097656 1680.00097656 1440.00097656 c 0
 1680.00097656 1749.33398438 1605.33398438 2000.00097656 1456.00097656 2192.00097656 c 1
 1338.66796875 2362.66796875 1194.66796875 2448.00097656 1024.00097656 2448.00097656 c 0
 821.333984375 2448.00097656 656.000976562 2336.00097656 528.000976562 2112.00097656 c 0
 421.333984375 1920.00097656 368.000976562 1696.00097656 368.000976562 1440.00097656 c 0
EndSplineSet
EndChar

StartChar: yen
Encoding: 165 165 101
Width: 2016
GlyphClass: 2
Flags: W
LayerCount: 2
Fore
SplineSet
1744 1024 m 1
 1136 1024 l 1
 1136 112 l 1
 1472 112 l 1
 1472 0 l 1
 560 0 l 1
 560 112 l 1
 880 112 l 1
 880 1024 l 1
 272 1024 l 1
 272 1120 l 1
 880 1120 l 1
 880 1216 l 1
 738 1648 l 1
 272 1648 l 1
 272 1744 l 1
 706 1744 l 1
 384 2720 l 1
 64 2720 l 1
 64 2816 l 1
 864 2816 l 1
 864 2720 l 1
 640 2720 l 1
 961 1744 l 1
 1187 1744 l 1
 1520 2720 l 1
 1280 2720 l 1
 1280 2816 l 1
 1984 2816 l 1
 1984 2720 l 1
 1664 2720 l 1
 1321 1744 l 1
 1744 1744 l 1
 1744 1648 l 1
 1288 1648 l 1
 1136 1216 l 1
 1136 1120 l 1
 1744 1120 l 1
 1744 1024 l 1
1072 1408 m 1
 1154 1648 l 1
 993 1648 l 1
 1072 1408 l 1
EndSplineSet
EndChar

StartChar: brokenbar
Encoding: 166 166 102
Width: 480
GlyphClass: 2
Flags: W
LayerCount: 2
Fore
SplineSet
352 1728 m 1
 128 1728 l 1
 128 3072 l 1
 352 3072 l 1
 352 1728 l 1
352 -256 m 1
 128 -256 l 1
 128 1088 l 1
 352 1088 l 1
 352 -256 l 1
EndSplineSet
EndChar

StartChar: section
Encoding: 167 167 103
Width: 4096
GlyphClass: 2
Flags: W
LayerCount: 2
Fore
SplineSet
1416 1880 m 0
 1368 1810.66699219 1344 1722.66699219 1344 1616 c 0
 1344 1498.66699219 1402.66699219 1397.33398438 1520 1312.00097656 c 0
 1637.33300781 1226.66796875 1845.33300781 1157.33496094 2144 1104.00195312 c 0
 2289.33300781 1078.00195312 2418.33300781 1042.00195312 2531 996.001953125 c 1
 2600.33300781 1062.00195312 2650 1116.66894531 2680 1160.00195312 c 0
 2728 1229.33496094 2752 1317.33496094 2752 1424.00195312 c 0
 2752 1541.33496094 2693.33300781 1642.66796875 2576 1728.00097656 c 0
 2458.66699219 1813.33398438 2245.33398438 1882.66699219 1936.00097656 1936 c 0
 1797.33398438 1961.33300781 1673.66699219 1997.33300781 1565 2044 c 1
 1495.66699219 1978 1446 1923.33300781 1416 1880 c 0
2832 816 m 0
 2992 677.333007812 3072.00097656 522.66796875 3072.00097656 352.000976562 c 0
 3072.00097656 149.333984375 2989.33398438 -10.666015625 2824.00097656 -127.999023438 c 0
 2658.66796875 -245.33203125 2432.00097656 -303.999023438 2144.00097656 -303.999023438 c 0
 1888.00097656 -303.999023438 1666.66796875 -245.33203125 1480.00097656 -127.999023438 c 0
 1293.33398438 -10.666015625 1200.00097656 128.000976562 1200.00097656 288.000976562 c 0
 1200.00097656 373.333984375 1221.33398438 437.333984375 1264.00097656 480.000976562 c 0
 1306.66796875 522.66796875 1370.66796875 544.000976562 1456.00097656 544.000976562 c 0
 1509.33398438 544.000976562 1554.66699219 528.000976562 1592 496.000976562 c 0
 1629.33300781 464.000976562 1648 416.000976562 1648 352.000976562 c 0
 1648 309.333984375 1634.66699219 266.666992188 1608 224 c 0
 1581.33300781 181.333007812 1546.66601562 154.666015625 1503.99902344 143.999023438 c 1
 1578.66601562 26.666015625 1674.66601562 -53.333984375 1791.99902344 -96.0009765625 c 0
 1909.33203125 -138.66796875 2026.66503906 -160.000976562 2143.99804688 -160.000976562 c 0
 2335.99804688 -160.000976562 2487.99804688 -117.333984375 2599.99804688 -32.0009765625 c 0
 2711.99804688 53.33203125 2767.99804688 170.665039062 2767.99804688 319.998046875 c 0
 2767.99804688 447.998046875 2711.99804688 557.331054688 2599.99804688 647.998046875 c 0
 2487.99804688 738.665039062 2303.99804688 815.998046875 2047.99804688 879.998046875 c 1
 1727.99804688 943.998046875 1482.66503906 1037.33105469 1311.99804688 1159.99804688 c 0
 1141.33105469 1282.66503906 1055.99804688 1434.66503906 1055.99804688 1615.99804688 c 0
 1055.99804688 1765.33105469 1106.66503906 1890.6640625 1207.99804688 1991.99707031 c 0
 1260.66503906 2044.6640625 1321.66503906 2092.6640625 1390.99804688 2135.99707031 c 1
 1344.99804688 2165.33007812 1302.66503906 2197.33007812 1263.99804688 2231.99707031 c 0
 1103.99804688 2375.99707031 1023.99804688 2533.33007812 1023.99804688 2703.99707031 c 0
 1023.99804688 2906.6640625 1106.66503906 3066.6640625 1271.99804688 3183.99707031 c 0
 1437.33105469 3301.33007812 1658.6640625 3359.99707031 1935.99707031 3359.99707031 c 0
 2202.6640625 3359.99707031 2429.33105469 3301.33007812 2615.99804688 3183.99707031 c 0
 2802.66503906 3066.6640625 2895.99804688 2927.99707031 2895.99804688 2767.99707031 c 0
 2895.99804688 2682.6640625 2874.66503906 2618.6640625 2831.99804688 2575.99707031 c 0
 2789.33105469 2533.33007812 2725.33105469 2511.99707031 2639.99804688 2511.99707031 c 0
 2586.66503906 2511.99707031 2541.33203125 2527.99707031 2503.99902344 2559.99707031 c 0
 2466.66601562 2591.99707031 2447.99902344 2639.99707031 2447.99902344 2703.99707031 c 0
 2447.99902344 2746.6640625 2461.33203125 2789.33105469 2487.99902344 2831.99804688 c 0
 2514.66601562 2874.66503906 2549.33300781 2901.33203125 2592 2911.99902344 c 1
 2517.33300781 3029.33203125 2421.33300781 3109.33203125 2304 3151.99902344 c 0
 2186.66699219 3194.66601562 2064 3215.99902344 1936 3215.99902344 c 0
 1744 3215.99902344 1594.66699219 3173.33203125 1488 3087.99902344 c 0
 1381.33300781 3002.66601562 1328 2885.33300781 1328 2736 c 0
 1328 2608 1381.33300781 2498.66699219 1488 2408 c 0
 1594.66699219 2317.33300781 1781.33398438 2240 2048.00097656 2176 c 0
 2368.00097656 2101.33300781 2613.33398438 2002.66601562 2784.00097656 1879.99902344 c 0
 2954.66796875 1757.33203125 3040.00097656 1605.33203125 3040.00097656 1423.99902344 c 0
 3040.00097656 1274.66601562 2989.33398438 1149.33300781 2888.00097656 1048 c 0
 2836.00097656 996 2776.00097656 948.666992188 2708.00097656 906 c 1
 2753.33398438 878.666992188 2794.66699219 848.666992188 2832 816 c 0
EndSplineSet
Substitution2: "sous-table 'vert' Formes verticales alternatives (CJK) dans Hiragana & katakana lookup 0" section.vert
EndChar

StartChar: dieresis
Encoding: 168 168 104
Width: 2048
GlyphClass: 2
Flags: W
LayerCount: 2
Fore
SplineSet
400 3008 m 0
 400 3072 418.666992188 3125.33300781 456 3168 c 0
 493.333007812 3210.66699219 544 3232 608 3232 c 0
 672 3232 725.333007812 3210.66699219 768 3168 c 0
 810.666992188 3125.33300781 832 3072 832 3008 c 0
 832 2944 810.666992188 2888 768 2840 c 0
 725.333007812 2792 672 2768 608 2768 c 0
 544 2768 493.333007812 2792 456 2840 c 0
 418.666992188 2888 400 2944 400 3008 c 0
1232 3008 m 0
 1232 3072 1248 3125.33300781 1280 3168 c 0
 1312 3210.66699219 1365.33300781 3232 1440 3232 c 0
 1504 3232 1557.33300781 3210.66699219 1600 3168 c 0
 1642.66699219 3125.33300781 1664 3072 1664 3008 c 0
 1664 2944 1642.66699219 2888 1600 2840 c 0
 1557.33300781 2792 1504 2768 1440 2768 c 0
 1365.33300781 2768 1312 2792 1280 2840 c 0
 1248 2888 1232 2944 1232 3008 c 0
EndSplineSet
Substitution2: "sous-table 'vert' Formes verticales alternatives (CJK) dans Hiragana & katakana lookup 0" dieresis.vert
EndChar

StartChar: copyright
Encoding: 169 169 105
Width: 2736
GlyphClass: 2
Flags: W
LayerCount: 2
Fore
SplineSet
1344 3008 m 0
 1696 3008 1986.66699219 2858.66699219 2216 2560 c 0
 2445.33300781 2261.33300781 2560 1877.33300781 2560 1408 c 0
 2560 938.666992188 2442.66699219 554.666992188 2208 256 c 1
 1984 -42.6669921875 1696 -192 1344 -192 c 0
 970.666992188 -192 672 -42.6669921875 448 256 c 0
 224 554.666992188 112 938.666992188 112 1408 c 0
 112 1877.33300781 224 2261.33300781 448 2560 c 0
 672 2858.66699219 970.666992188 3008 1344 3008 c 0
1344 2880 m 0
 1013.33300781 2880 744 2741.33300781 536 2464 c 0
 328 2186.66699219 224 1834.66699219 224 1408 c 0
 224 981.333007812 325.333007812 629.333007812 528 352 c 1
 741.333007812 74.6669921875 1013.33300781 -64 1344 -64 c 0
 1664 -64 1930.66699219 74.6669921875 2144 352 c 1
 2346.66699219 629.333007812 2448 981.333007812 2448 1408 c 0
 2448 1834.66699219 2344 2186.66699219 2136 2464 c 0
 1928 2741.33300781 1664 2880 1344 2880 c 0
1920 2560 m 1
 2176.00097656 1792 l 1
 2064.00097656 1728 l 1
 1872.00097656 2218.66699219 1637.33398438 2453.33398438 1360.00097656 2432.00097656 c 1
 1344.00097656 2432.00097656 l 2
 1205.33398438 2432.00097656 1072.00097656 2357.33398438 944.000976562 2208.00097656 c 0
 816.000976562 2058.66796875 752.000976562 1808.00097656 752.000976562 1456.00097656 c 0
 752.000976562 1114.66796875 805.333984375 848.000976562 912.000976562 656.000976562 c 1
 1029.33398438 474.66796875 1184.00097656 384.000976562 1376.00097656 384.000976562 c 0
 1674.66796875 384.000976562 1888.00097656 618.66796875 2016.00097656 1088.00097656 c 1
 2176.00097656 1024.00097656 l 1
 2005.33398438 469.333984375 1738.66699219 192.000976562 1376 192.000976562 c 0
 1056 192.000976562 821.333007812 320.000976562 672 576.000976562 c 0
 522.666992188 832.000976562 448 1109.33398438 448 1408.00097656 c 0
 448 1749.33398438 530.666992188 2026.66699219 696 2240 c 0
 861.333007812 2453.33300781 1077.33300781 2560 1344 2560 c 0
 1397.33300781 2560 1520 2538.66699219 1712 2496 c 1
 1920 2560 l 1
EndSplineSet
EndChar

StartChar: ordfeminine
Encoding: 170 170 106
Width: 1568
GlyphClass: 2
Flags: W
LayerCount: 2
Fore
SplineSet
752 2896 m 2
 869.333007812 2896 981.33203125 2853.33007812 1087.99902344 2767.99707031 c 0
 1194.66601562 2682.6640625 1247.99902344 2549.33105469 1247.99902344 2367.99804688 c 2
 1247.99902344 1535.99804688 l 2
 1247.99902344 1482.66503906 1266.66601562 1453.33203125 1303.99902344 1447.99902344 c 0
 1341.33203125 1442.66601562 1391.99902344 1509.33300781 1455.99902344 1648 c 1
 1551.99902344 1600 l 1
 1498.66601562 1397.33300781 1397.33300781 1296 1248 1296 c 0
 1184 1296 1130.66699219 1317.33300781 1088 1360 c 0
 1045.33300781 1402.66699219 1024 1450.66699219 1024 1504 c 1
 896 1365.33300781 752 1296 592 1296 c 2
 496 1296 l 2
 389.333007812 1296 296 1330.66699219 216 1400 c 0
 136 1469.33300781 96 1568 96 1696 c 0
 96 1877.33300781 194.666992188 2021.33300781 392 2128 c 0
 589.333007812 2234.66699219 800 2282.66699219 1024 2272 c 1
 1024 2368 l 2
 1024 2506.66699219 997.333007812 2610.66699219 944 2680 c 0
 890.666992188 2749.33300781 826.666992188 2784 752 2784 c 0
 656 2784 581.333007812 2752 528 2688 c 0
 474.666992188 2624 448 2544 448 2448 c 0
 448 2384 389.333007812 2330.66699219 272 2288 c 1
 208 2288 176 2320 176 2384 c 0
 176 2544 232 2669.33300781 344 2760 c 0
 456 2850.66699219 570.666992188 2896 688 2896 c 2
 752 2896 l 2
1023.99902344 2143.99707031 m 1
 799.999023438 2122.6640625 629.33203125 2066.6640625 511.999023438 1975.99707031 c 0
 394.666015625 1885.33007812 335.999023438 1791.99707031 335.999023438 1695.99707031 c 0
 335.999023438 1621.33007812 354.666015625 1559.99707031 391.999023438 1511.99707031 c 0
 429.33203125 1463.99707031 495.999023438 1439.99707031 591.999023438 1439.99707031 c 0
 741.33203125 1439.99707031 885.33203125 1509.33007812 1023.99902344 1647.99707031 c 1
 1023.99902344 2143.99707031 l 1
 1023.99902344 2143.99707031 l 1
EndSplineSet
EndChar

StartChar: guillemotleft
Encoding: 171 171 107
Width: 2256
GlyphClass: 2
Flags: W
LayerCount: 2
Fore
SplineSet
1904 2800 m 1
 1968 2688 l 1
 1328 1472 l 1
 1968 352 l 1
 1904 256 l 1
 976 1472 l 1
 1904 2800 l 1
1184 2800 m 1
 1264 2688 l 1
 560 1472 l 1
 1264 352 l 1
 1184 256 l 1
 208 1472 l 1
 1184 2800 l 1
EndSplineSet
EndChar

StartChar: logicalnot
Encoding: 172 172 108
Width: 2736
GlyphClass: 2
Flags: W
LayerCount: 2
Fore
SplineSet
224 2048 m 1
 2400 2048 l 1
 2400 1040 l 1
 2080 1040 l 1
 2080 1776 l 1
 224 1776 l 1
 224 2048 l 1
EndSplineSet
EndChar

StartChar: uni00AD
Encoding: 173 173 109
Width: 2032
GlyphClass: 2
Flags: W
LayerCount: 2
Fore
SplineSet
128 1072 m 1
 128 1232 l 1
 1904 1232 l 1
 1904 1072 l 1
 128 1072 l 1
EndSplineSet
EndChar

StartChar: registered
Encoding: 174 174 110
Width: 2736
GlyphClass: 2
Flags: W
LayerCount: 2
Fore
SplineSet
1344 3008 m 0
 1696 3008 1986.66699219 2858.66699219 2216 2560 c 0
 2445.33300781 2261.33300781 2560 1877.33300781 2560 1408 c 0
 2560 938.666992188 2442.66699219 554.666992188 2208 256 c 1
 1984 -42.6669921875 1696 -192 1344 -192 c 0
 970.666992188 -192 672 -42.6669921875 448 256 c 0
 224 554.666992188 112 938.666992188 112 1408 c 0
 112 1877.33300781 224 2261.33300781 448 2560 c 0
 672 2858.66699219 970.666992188 3008 1344 3008 c 0
1344 2880 m 0
 1013.33300781 2880 744 2741.33300781 536 2464 c 0
 328 2186.66699219 224 1834.66699219 224 1408 c 0
 224 981.333007812 325.333007812 629.333007812 528 352 c 1
 741.333007812 74.6669921875 1013.33300781 -64 1344 -64 c 0
 1664 -64 1930.66699219 74.6669921875 2144 352 c 1
 2346.66699219 629.333007812 2448 981.333007812 2448 1408 c 0
 2448 1834.66699219 2344 2186.66699219 2136 2464 c 0
 1928 2741.33300781 1664 2880 1344 2880 c 0
640 2304 m 1
 1408 2304.00097656 l 2
 1589.33300781 2304.00097656 1736 2258.66796875 1848 2168.00097656 c 0
 1960 2077.33398438 2016 1962.66699219 2016 1824 c 0
 2016 1685.33300781 1965.33300781 1565.33300781 1864 1464 c 0
 1762.66699219 1362.66699219 1610.66699219 1312 1408 1312 c 1
 1952 704 l 1
 2240 704 l 1
 2240 608 l 1
 1712 608 l 1
 1168 1296 l 1
 1088 1296 l 1
 1088 704 l 1
 1312 704 l 1
 1312 608 l 1
 640 608 l 1
 640 704 l 1
 864 704 l 1
 864 2208 l 1
 640 2208 l 1
 640 2304 l 1
1088 2208.00097656 m 1
 1088.00195312 1392 l 1
 1408.00195312 1392 l 2
 1493.33496094 1392 1570.66796875 1432 1640.00097656 1512 c 0
 1709.33398438 1592 1744.00097656 1696 1744.00097656 1824 c 0
 1744.00097656 1930.66699219 1714.66796875 2021.33398438 1656.00097656 2096.00097656 c 0
 1597.33398438 2170.66796875 1514.66699219 2208.00097656 1408 2208.00097656 c 2
 1088 2208.00097656 l 1
EndSplineSet
EndChar

StartChar: macron
Encoding: 175 175 111
Width: 2736
GlyphClass: 2
Flags: W
LayerCount: 2
Fore
SplineSet
2736 3360 m 1
 0 3360 l 1
 0 3520 l 1
 2736 3520 l 1
 2736 3360 l 1
EndSplineSet
EndChar

StartChar: degree
Encoding: 176 176 112
Width: 4096
GlyphClass: 2
Flags: W
LayerCount: 2
Fore
SplineSet
80 2800 m 0
 80 2928 125.333007812 3034.66699219 216 3120 c 0
 306.666992188 3205.33300781 410.666992188 3248 528 3248 c 0
 656 3248 762.666992188 3205.33300781 848 3120 c 0
 933.333007812 3034.66699219 976 2928 976 2800 c 0
 976 2682.66699219 933.333007812 2576 848 2480 c 1
 762.666992188 2394.66699219 656 2352 528 2352 c 0
 410.666992188 2352 304 2394.66699219 208 2480 c 1
 122.666992188 2576 80 2682.66699219 80 2800 c 0
192 2800 m 0
 192 2704 224 2624 288 2560 c 0
 352 2496 432 2464 528 2464 c 0
 624 2464 704 2496 768 2560 c 0
 832 2624 864 2704 864 2800 c 0
 864 2885.33300781 832 2965.33300781 768 3040 c 1
 704 3104 624 3136 528 3136 c 0
 432 3136 352 3104 288 3040 c 1
 224 2965.33300781 192 2885.33300781 192 2800 c 0
EndSplineSet
Substitution2: "sous-table 'vert' Formes verticales alternatives (CJK) dans Hiragana & katakana lookup 0" degree.vert
EndChar

StartChar: plusminus
Encoding: 177 177 113
Width: 4096
GlyphClass: 2
Flags: W
LayerCount: 2
Fore
SplineSet
1920 3104 m 1
 2128 3104 l 1
 2128 1936 l 1
 3424 1936 l 1
 3424 1744 l 1
 2128 1744 l 1
 2128 576 l 1
 1920 576 l 1
 1920 1744 l 1
 624 1744 l 1
 624 1936 l 1
 1920 1936 l 1
 1920 3104 l 1
624 256 m 1
 3424 256 l 1
 3424 64 l 1
 624 64 l 1
 624 256 l 1
EndSplineSet
Substitution2: "sous-table 'vert' Formes verticales alternatives (CJK) dans Hiragana & katakana lookup 0" plusminus.vert
EndChar

StartChar: uni00B2
Encoding: 178 178 114
Width: 1136
GlyphClass: 2
Flags: W
LayerCount: 2
Fore
SplineSet
560 3248 m 0
 698.666992188 3248 813.333007812 3213.33105469 904 3143.99804688 c 0
 994.666992188 3074.66503906 1040 2981.33203125 1040 2863.99902344 c 0
 1040 2714.66601562 928 2554.66601562 704 2383.99902344 c 2
 272 2047.99902344 l 1
 912 2047.99902344 l 1
 992 2255.99902344 l 1
 1088 2255.99902344 l 1
 1040 1871.99902344 l 1
 48 1871.99902344 l 1
 48 2047.99902344 l 1
 608 2495.99902344 l 1
 757.333007812 2623.99902344 832 2746.66601562 832 2863.99902344 c 0
 832 2938.66601562 805.333007812 3002.66601562 752 3055.99902344 c 0
 698.666992188 3109.33203125 634.666992188 3135.99902344 560 3135.99902344 c 0
 464 3135.99902344 392 3117.33203125 344 3079.99902344 c 0
 296 3042.66601562 261.333007812 2997.33300781 240 2944 c 1
 314.666992188 2922.66699219 352 2880 352 2816 c 0
 352 2720 309.333007812 2672 224 2672 c 0
 160 2672 114.666992188 2693.33300781 88 2736 c 0
 61.3330078125 2778.66699219 48 2826.66699219 48 2880 c 0
 48 2997.33300781 101.333007812 3088 208 3152 c 0
 314.666992188 3216 432 3248 560 3248 c 0
EndSplineSet
EndChar

StartChar: uni00B3
Encoding: 179 179 115
Width: 1136
GlyphClass: 2
Flags: W
LayerCount: 2
Fore
SplineSet
1056 2288 m 0
 1056 2149.33300781 1008 2045.33300781 912 1976 c 0
 816 1906.66699219 704 1872 576 1872 c 0
 469.333007812 1872 384 1885.33300781 320 1912 c 0
 256 1938.66699219 197.333007812 1981.33398438 144 2040.00097656 c 0
 90.6669921875 2098.66796875 64 2160.00097656 64 2224.00097656 c 0
 64 2288.00097656 77.3330078125 2333.33398438 104 2360.00097656 c 0
 130.666992188 2386.66796875 170.666992188 2400.00097656 224 2400.00097656 c 0
 266.666992188 2400.00097656 301.333984375 2386.66796875 328.000976562 2360.00097656 c 0
 354.66796875 2333.33398438 368.000976562 2298.66699219 368.000976562 2256 c 0
 368.000976562 2202.66699219 341.333984375 2160 288.000976562 2128 c 1
 320.000976562 2096 354.66796875 2069.33300781 392.000976562 2048 c 0
 429.333984375 2026.66699219 490.666992188 2016 576 2016 c 0
 640 2016 704 2037.33300781 768 2080 c 0
 832 2122.66699219 864 2192 864 2288 c 0
 864 2373.33300781 840 2434.66601562 792 2471.99902344 c 0
 744 2509.33203125 693.333007812 2533.33203125 640 2543.99902344 c 0
 586.666992188 2554.66601562 528 2554.66601562 464 2543.99902344 c 1
 464 2671.99902344 l 1
 880 3055.99902344 l 1
 256 3055.99902344 l 1
 160 2783.99902344 l 1
 64 2783.99902344 l 1
 128 3247.99902344 l 1
 1056 3247.99902344 l 1
 1056 3055.99902344 l 1
 608 2655.99902344 l 1
 672 2666.66601562 738.666992188 2661.33300781 808 2640 c 0
 877.333007812 2618.66699219 936 2578.66699219 984 2520 c 0
 1032 2461.33300781 1056 2384 1056 2288 c 0
EndSplineSet
EndChar

StartChar: acute
Encoding: 180 180 116
Width: 2048
GlyphClass: 2
Flags: W
LayerCount: 2
Fore
SplineSet
1056 3360 m 1
 1600 3360 l 1
 1600 3248 l 1
 608 2624 l 1
 496 2704 l 1
 1056 3360 l 1
EndSplineSet
Substitution2: "sous-table 'vert' Formes verticales alternatives (CJK) dans Hiragana & katakana lookup 0" acute.vert
EndChar

StartChar: uni00B5
Encoding: 181 181 117
Width: 1984
GlyphClass: 2
Flags: W
LayerCount: 2
Fore
SplineSet
544 -352 m 1
 767.999023438 -352 l 1
 767.999023438 -448 l 1
 95.9990234375 -448 l 1
 95.9990234375 -352 l 1
 319.999023438 -352 l 1
 319.999023438 1664 l 1
 79.9990234375 1664 l 1
 79.9990234375 1744 l 1
 447.999023438 1872 l 1
 543.999023438 1872 l 1
 543.999023438 416 l 1
 639.999023438 309.333007812 741.33203125 256 847.999023438 256 c 0
 1082.66601562 256 1301.33300781 432 1504 784 c 1
 1504 1648 l 1
 1248 1648 l 1
 1248 1744 l 1
 1632 1872 l 1
 1728 1872 l 1
 1728 304 l 1
 1936 304 l 1
 1936 208 l 1
 1584 80 l 1
 1504 80 l 1
 1504 560 l 1
 1312 229.333007812 1093.33300781 64 848 64 c 0
 720 64 618.666992188 96 544 160 c 1
 544 -352 l 1
EndSplineSet
EndChar

StartChar: paragraph
Encoding: 182 182 118
Width: 2048
GlyphClass: 2
Flags: W
LayerCount: 2
Fore
SplineSet
224 2368 m 0
 224 2570.66699219 277.333007812 2744 384 2888 c 0
 490.666992188 3032 613.333984375 3104 752.000976562 3104 c 2
 1792.00097656 3104 l 1
 1792.00097656 -64 l 1
 1616.00097656 -64 l 1
 1616.00097656 2960 l 1
 976.000976562 2960 l 1
 976.000976562 -64 l 1
 816.000976562 -64 l 1
 816.000976562 1616 l 1
 752.000976562 1616 l 2
 613.333984375 1616 490.666992188 1688 384 1832 c 0
 277.333007812 1976 224 2154.66699219 224 2368 c 0
EndSplineSet
Substitution2: "sous-table 'vert' Formes verticales alternatives (CJK) dans Hiragana & katakana lookup 0" paragraph.vert
EndChar

StartChar: periodcentered
Encoding: 183 183 119
Width: 912
GlyphClass: 2
Flags: W
LayerCount: 2
Fore
SplineSet
448 1280 m 0
 586.666992188 1280 656 1216 656 1088 c 0
 656 960 586.666992188 896 448 896 c 0
 309.333007812 896 240 960 240 1088 c 0
 240 1216 309.333007812 1280 448 1280 c 0
EndSplineSet
EndChar

StartChar: cedilla
Encoding: 184 184 120
Width: 912
GlyphClass: 2
Flags: W
LayerCount: 2
Fore
SplineSet
464 80 m 1
 336.000976562 -112 l 1
 496.000976562 -26.6669921875 613.333984375 0 688.000976562 -32 c 0
 762.66796875 -64 800.000976562 -133.333007812 800.000976562 -240 c 0
 800.000976562 -336 746.66796875 -416 640.000976562 -480 c 0
 533.333984375 -544 357.333984375 -576 112.000976562 -576 c 1
 64.0009765625 -432 l 1
 245.333984375 -432 386.666992188 -416 488 -384 c 0
 589.333007812 -352 640 -304 640 -240 c 0
 640 -133.333007812 533.333007812 -133.333007812 320 -240 c 1
 128 -240 l 1
 304 80 l 1
 464 80 l 1
EndSplineSet
EndChar

StartChar: uni00B9
Encoding: 185 185 121
Width: 784
GlyphClass: 2
Flags: W
LayerCount: 2
Fore
SplineSet
656 1968 m 1
 656 1872 l 1
 112 1872 l 1
 112 1968 l 1
 304 1968 l 1
 304 3040 l 1
 48 3040 l 1
 48 3120 l 1
 352 3248 l 1
 464 3248 l 1
 464 1968 l 1
 656 1968 l 1
EndSplineSet
EndChar

StartChar: ordmasculine
Encoding: 186 186 122
Width: 1136
GlyphClass: 2
Flags: W
LayerCount: 2
Fore
SplineSet
112 2528 m 0
 112 2730.66699219 173.333007812 2888 296 3000 c 0
 418.666992188 3112 581.333984375 3168 784.000976562 3168 c 0
 986.66796875 3168 1154.66796875 3112 1288.00097656 3000 c 0
 1421.33398438 2888 1488.00097656 2730.66699219 1488.00097656 2528 c 0
 1488.00097656 2325.33300781 1421.33398438 2165.33300781 1288.00097656 2048 c 0
 1154.66796875 1930.66699219 986.66796875 1872 784.000976562 1872 c 0
 581.333984375 1872 418.666992188 1930.66699219 296 2048 c 0
 173.333007812 2165.33300781 112 2325.33300781 112 2528 c 0
352 2528 m 0
 352 2357.33300781 389.333007812 2224 464 2128 c 0
 538.666992188 2032 645.333984375 1984 784.000976562 1984 c 0
 912.000976562 1984 1021.33398438 2032 1112.00097656 2128 c 0
 1202.66796875 2224 1248.00097656 2357.33300781 1248.00097656 2528 c 0
 1248.00097656 2709.33300781 1202.66796875 2842.66601562 1112.00097656 2927.99902344 c 0
 1021.33398438 3013.33203125 912.000976562 3055.99902344 784.000976562 3055.99902344 c 0
 645.333984375 3055.99902344 538.666992188 3013.33203125 464 2927.99902344 c 0
 389.333007812 2842.66601562 352 2709.33300781 352 2528 c 0
EndSplineSet
EndChar

StartChar: guillemotright
Encoding: 187 187 123
Width: 2256
GlyphClass: 2
Flags: W
LayerCount: 2
Fore
SplineSet
288 128 m 1
 224 240 l 1
 864 1472 l 1
 224 2592 l 1
 288 2688 l 1
 1216 1472 l 1
 288 128 l 1
1008 128 m 1
 928 240 l 1
 1648 1472 l 1
 928 2592 l 1
 1008 2688 l 1
 2000 1472 l 1
 1008 128 l 1
EndSplineSet
EndChar

StartChar: onequarter
Encoding: 188 188 124
Width: 2128
GlyphClass: 2
Flags: W
LayerCount: 2
Fore
SplineSet
1952 192 m 1
 1952 96 l 1
 1728 96 l 1
 1728 -208 l 1
 1904 -208 l 1
 1904 -304 l 1
 1376 -304 l 1
 1376 -208 l 1
 1584 -208 l 1
 1584 96 l 1
 928 96 l 1
 928 192 l 1
 1584 1072 l 1
 1728 1072 l 1
 1728 192 l 1
 1952 192 l 1
1584 880 m 1
 1056 192 l 1
 1584 192 l 1
 1584 880 l 1
1616 3248 m 1
 1760 3184 l 1
 432 -304 l 1
 288 -240 l 1
 1616 3248 l 1
832 1968 m 1
 832 1872 l 1
 288 1872 l 1
 288 1968 l 1
 480 1968 l 1
 480 3040 l 1
 224 3040 l 1
 224 3120 l 1
 528 3248 l 1
 640 3248 l 1
 640 1968 l 1
 832 1968 l 1
EndSplineSet
EndChar

StartChar: onehalf
Encoding: 189 189 125
Width: 2128
GlyphClass: 2
Flags: W
LayerCount: 2
Fore
SplineSet
1616 3248 m 1
 1760 3184 l 1
 432 -304 l 1
 288 -240 l 1
 1616 3248 l 1
832 1968 m 1
 832 1872 l 1
 288 1872 l 1
 288 1968 l 1
 480 1968 l 1
 480 3040 l 1
 224 3040 l 1
 224 3120 l 1
 528 3248 l 1
 640 3248 l 1
 640 1968 l 1
 832 1968 l 1
1440 1072 m 0
 1578.66699219 1072 1693.33300781 1037.33105469 1784 967.998046875 c 0
 1874.66699219 898.665039062 1920 805.33203125 1920 687.999023438 c 0
 1920 538.666015625 1808 378.666015625 1584 207.999023438 c 2
 1152 -128.000976562 l 1
 1792 -128.000976562 l 1
 1872 79.9990234375 l 1
 1968 79.9990234375 l 1
 1920 -304.000976562 l 1
 928 -304.000976562 l 1
 928 -128.000976562 l 1
 1488 319.999023438 l 1
 1637.33300781 447.999023438 1712 570.666015625 1712 687.999023438 c 0
 1712 762.666015625 1685.33300781 826.666015625 1632 879.999023438 c 0
 1578.66699219 933.33203125 1514.66699219 959.999023438 1440 959.999023438 c 0
 1344 959.999023438 1272 941.33203125 1224 903.999023438 c 0
 1176 866.666015625 1141.33300781 821.333007812 1120 768 c 1
 1194.66699219 746.666992188 1232 704 1232 640 c 0
 1232 544 1189.33300781 496 1104 496 c 0
 1040 496 994.666992188 517.333007812 968 560 c 0
 941.333007812 602.666992188 928 650.666992188 928 704 c 0
 928 821.333007812 981.333007812 912 1088 976 c 0
 1194.66699219 1040 1312 1072 1440 1072 c 0
EndSplineSet
EndChar

StartChar: threequarters
Encoding: 190 190 126
Width: 2128
GlyphClass: 2
Flags: W
LayerCount: 2
Fore
SplineSet
1952 192 m 1
 1952 96 l 1
 1728 96 l 1
 1728 -208 l 1
 1904 -208 l 1
 1904 -304 l 1
 1376 -304 l 1
 1376 -208 l 1
 1584 -208 l 1
 1584 96 l 1
 928 96 l 1
 928 192 l 1
 1584 1072 l 1
 1728 1072 l 1
 1728 192 l 1
 1952 192 l 1
1584 880 m 1
 1056 192 l 1
 1584 192 l 1
 1584 880 l 1
1616 3248 m 1
 1760 3184 l 1
 432 -304 l 1
 288 -240 l 1
 1616 3248 l 1
1088 2288 m 0
 1088 2149.33300781 1040 2045.33300781 944 1976 c 0
 848 1906.66699219 736 1872 608 1872 c 0
 501.333007812 1872 416 1885.33300781 352 1912 c 0
 288 1938.66699219 229.333007812 1981.33398438 176 2040.00097656 c 0
 122.666992188 2098.66796875 96 2160.00097656 96 2224.00097656 c 0
 96 2288.00097656 109.333007812 2333.33398438 136 2360.00097656 c 0
 162.666992188 2386.66796875 202.666992188 2400.00097656 256 2400.00097656 c 0
 298.666992188 2400.00097656 333.333984375 2386.66796875 360.000976562 2360.00097656 c 0
 386.66796875 2333.33398438 400.000976562 2298.66699219 400.000976562 2256 c 0
 400.000976562 2202.66699219 373.333984375 2160 320.000976562 2128 c 1
 352.000976562 2096 386.66796875 2069.33300781 424.000976562 2048 c 0
 461.333984375 2026.66699219 522.666992188 2016 608 2016 c 0
 672 2016 736 2037.33300781 800 2080 c 0
 864 2122.66699219 896 2192 896 2288 c 0
 896 2373.33300781 872 2434.66601562 824 2471.99902344 c 0
 776 2509.33203125 725.333007812 2533.33203125 672 2543.99902344 c 0
 618.666992188 2554.66601562 560 2554.66601562 496 2543.99902344 c 1
 496 2671.99902344 l 1
 912 3055.99902344 l 1
 288 3055.99902344 l 1
 192 2783.99902344 l 1
 96 2783.99902344 l 1
 160 3247.99902344 l 1
 1088 3247.99902344 l 1
 1088 3055.99902344 l 1
 640 2655.99902344 l 1
 704 2666.66601562 770.666992188 2661.33300781 840 2640 c 0
 909.333007812 2618.66699219 968 2578.66699219 1016 2520 c 0
 1064 2461.33300781 1088 2384 1088 2288 c 0
EndSplineSet
EndChar

StartChar: questiondown
Encoding: 191 191 127
Width: 1856
GlyphClass: 2
Flags: W
LayerCount: 2
Fore
SplineSet
944 -112 m 0
 698.666992188 -112 496 -47.9990234375 336 80.0009765625 c 0
 176 208.000976562 96 384.000976562 96 608.000976562 c 0
 96 746.66796875 136 872.000976562 216 984.000976562 c 0
 296 1096.00097656 400 1216.00097656 528 1344.00097656 c 1
 741.333007812 1610.66796875 848 1856.00097656 848 2080.00097656 c 2
 848 2272.00097656 l 1
 992 2272.00097656 l 1
 992 2080.00097656 l 2
 992 1856.00097656 880 1578.66796875 656 1248.00097656 c 1
 538.666992188 1098.66796875 464 981.334960938 432 896.001953125 c 0
 400 810.668945312 384 714.668945312 384 608.001953125 c 0
 384 448.001953125 429.333007812 306.668945312 520 184.001953125 c 0
 610.666992188 61.3349609375 752 0.001953125 944 0.001953125 c 0
 1125.33300781 0.001953125 1269.33300781 58.6689453125 1376 176.001953125 c 0
 1482.66699219 293.334960938 1546.66699219 426.66796875 1568 576.000976562 c 1
 1525.33300781 576.000976562 1485.33300781 592.000976562 1448 624.000976562 c 0
 1410.66699219 656.000976562 1392 698.66796875 1392 752.000976562 c 0
 1392 805.333984375 1408 848.000976562 1440 880.000976562 c 0
 1472 912.000976562 1514.66699219 928.000976562 1568 928.000976562 c 0
 1610.66699219 928.000976562 1650.66699219 909.333984375 1688 872.000976562 c 0
 1725.33300781 834.66796875 1744 778.66796875 1744 704.000976562 c 0
 1744 469.333984375 1672 274.666992188 1528 120 c 0
 1384 -34.6669921875 1189.33300781 -112 944 -112 c 0
1136 2976.00097656 m 0
 1136 2912.00097656 1117.33300781 2858.66796875 1080 2816.00097656 c 0
 1042.66699219 2773.33398438 992 2752.00097656 928 2752.00097656 c 0
 853.333007812 2752.00097656 797.333007812 2773.33398438 760 2816.00097656 c 0
 722.666992188 2858.66796875 704 2912.00097656 704 2976.00097656 c 0
 704 3040.00097656 722.666992188 3090.66796875 760 3128.00097656 c 0
 797.333007812 3165.33398438 853.333007812 3184.00097656 928 3184.00097656 c 0
 992 3184.00097656 1042.66699219 3165.33398438 1080 3128.00097656 c 0
 1117.33300781 3090.66796875 1136 3040.00097656 1136 2976.00097656 c 0
EndSplineSet
EndChar

StartChar: Agrave
Encoding: 192 192 128
Width: 2736
GlyphClass: 2
Flags: W
LayerCount: 2
Fore
SplineSet
768 176 m 1
 1088 176 l 1
 1088 80 l 1
 320 80 l 1
 320 176 l 1
 624 176 l 1
 1248 2336 l 1
 1376 2336 l 1
 2080 176 l 1
 2368 176 l 1
 2368 80 l 1
 1520 80 l 1
 1520 176 l 1
 1792 176 l 1
 1595 832 l 1
 953 832 l 1
 768 176 l 1
864 3328 m 1
 864 3440 l 1
 1344 3440 l 1
 1824 2832 l 1
 1728 2752 l 1
 864 3328 l 1
1264 1936 m 1
 984 944 l 1
 1562 944 l 1
 1264 1936 l 1
EndSplineSet
EndChar

StartChar: Aacute
Encoding: 193 193 129
Width: 2736
GlyphClass: 2
Flags: W
LayerCount: 2
Fore
SplineSet
768 176 m 1
 1088 176 l 1
 1088 80 l 1
 320 80 l 1
 320 176 l 1
 624 176 l 1
 1248 2336 l 1
 1376 2336 l 1
 2080 176 l 1
 2368 176 l 1
 2368 80 l 1
 1520 80 l 1
 1520 176 l 1
 1792 176 l 1
 1595 832 l 1
 953 832 l 1
 768 176 l 1
1344 3440 m 1
 1856 3440 l 1
 1856 3328 l 1
 912 2752 l 1
 832 2832 l 1
 1344 3440 l 1
1264 1936 m 1
 984 944 l 1
 1562 944 l 1
 1264 1936 l 1
EndSplineSet
EndChar

StartChar: Acircumflex
Encoding: 194 194 130
Width: 2736
GlyphClass: 2
Flags: W
LayerCount: 2
Fore
SplineSet
768 176 m 1
 1088 176 l 1
 1088 80 l 1
 320 80 l 1
 320 176 l 1
 624 176 l 1
 1248 2336 l 1
 1376 2336 l 1
 2080 176 l 1
 2368 176 l 1
 2368 80 l 1
 1520 80 l 1
 1520 176 l 1
 1792 176 l 1
 1595 832 l 1
 953 832 l 1
 768 176 l 1
1120 3440 m 1
 1552 3440 l 1
 2080 2736 l 1
 1952 2704 l 1
 1344 3152 l 1
 736 2704 l 1
 608 2736 l 1
 1120 3440 l 1
1264 1936 m 1
 984 944 l 1
 1562 944 l 1
 1264 1936 l 1
EndSplineSet
EndChar

StartChar: Atilde
Encoding: 195 195 131
Width: 2736
GlyphClass: 2
Flags: W
LayerCount: 2
Fore
SplineSet
768 176 m 1
 1088 176 l 1
 1088 80 l 1
 320 80 l 1
 320 176 l 1
 624 176 l 1
 1248 2336 l 1
 1376 2336 l 1
 2080 176 l 1
 2368 176 l 1
 2368 80 l 1
 1520 80 l 1
 1520 176 l 1
 1792 176 l 1
 1595 832 l 1
 953 832 l 1
 768 176 l 1
528 3024 m 1
 634.666992188 3301.33300781 773.33203125 3440 943.999023438 3440 c 0
 1093.33203125 3440 1237.33203125 3370.66699219 1375.99902344 3232 c 1
 1503.99902344 3093.33300781 1610.66601562 3024 1695.99902344 3024 c 0
 1813.33203125 3024 1930.66503906 3120 2047.99804688 3312 c 1
 2159.99804688 3248 l 1
 2042.66503906 2970.66699219 1887.99804688 2832 1695.99804688 2832 c 0
 1578.66503906 2832 1445.33203125 2912 1295.99902344 3072 c 1
 1178.66601562 3189.33300781 1061.33300781 3248 944 3248 c 0
 848 3248 746.666992188 3152 640 2960 c 1
 528 3024 l 1
1263.99804688 1936 m 1
 983.998046875 944 l 1
 1561.99804688 944 l 1
 1263.99804688 1936 l 1
EndSplineSet
EndChar

StartChar: Adieresis
Encoding: 196 196 132
Width: 2736
GlyphClass: 2
Flags: W
LayerCount: 2
Fore
SplineSet
768 176 m 1
 1088 176 l 1
 1088 80 l 1
 320 80 l 1
 320 176 l 1
 624 176 l 1
 1248 2336 l 1
 1376 2336 l 1
 2080 176 l 1
 2368 176 l 1
 2368 80 l 1
 1520 80 l 1
 1520 176 l 1
 1792 176 l 1
 1595 832 l 1
 953 832 l 1
 768 176 l 1
608 3136 m 0
 608 3200 629.333007812 3253.33300781 672 3296 c 0
 714.666992188 3338.66699219 768 3360 832 3360 c 0
 885.333007812 3360 933.333007812 3338.66699219 976 3296 c 0
 1018.66699219 3253.33300781 1040 3200 1040 3136 c 0
 1040 3072 1021.33300781 3018.66699219 984 2976 c 0
 946.666992188 2933.33300781 896 2912 832 2912 c 0
 768 2912 714.666992188 2933.33300781 672 2976 c 0
 629.333007812 3018.66699219 608 3072 608 3136 c 0
1632 3136 m 0
 1632 3200 1653.33300781 3253.33300781 1696 3296 c 0
 1738.66699219 3338.66699219 1792 3360 1856 3360 c 0
 1909.33300781 3360 1957.33300781 3338.66699219 2000 3296 c 0
 2042.66699219 3253.33300781 2064 3200 2064 3136 c 0
 2064 3072 2045.33300781 3018.66699219 2008 2976 c 0
 1970.66699219 2933.33300781 1920 2912 1856 2912 c 0
 1792 2912 1738.66699219 2933.33300781 1696 2976 c 0
 1653.33300781 3018.66699219 1632 3072 1632 3136 c 0
1264 1936 m 1
 984 944 l 1
 1562 944 l 1
 1264 1936 l 1
EndSplineSet
EndChar

StartChar: Aring
Encoding: 197 197 133
Width: 2736
GlyphClass: 2
Flags: W
LayerCount: 2
Fore
SplineSet
768 176 m 1
 1088 176 l 1
 1088 80 l 1
 320 80 l 1
 320 176 l 1
 624 176 l 1
 1248 2336 l 1
 1376 2336 l 1
 2080 176 l 1
 2368 176 l 1
 2368 80 l 1
 1520 80 l 1
 1520 176 l 1
 1792 176 l 1
 1595 832 l 1
 953 832 l 1
 768 176 l 1
896 2992 m 0
 896 3120 938.666992188 3226.66699219 1024 3312 c 0
 1109.33300781 3397.33300781 1216 3440 1344 3440 c 0
 1472 3440 1578.66699219 3400 1664 3320 c 0
 1749.33300781 3240 1792 3130.66699219 1792 2992 c 0
 1792 2864 1749.33300781 2757.33300781 1664 2672 c 0
 1578.66699219 2586.66699219 1472 2544 1344 2544 c 0
 1205.33300781 2544 1096 2589.33300781 1016 2680 c 0
 936 2770.66699219 896 2874.66699219 896 2992 c 0
1008 2992 m 0
 1008 2896 1037.33300781 2815.99902344 1096 2751.99902344 c 0
 1154.66699219 2687.99902344 1237.33398438 2655.99902344 1344.00097656 2655.99902344 c 0
 1440.00097656 2655.99902344 1520.00097656 2685.33203125 1584.00097656 2743.99902344 c 0
 1648.00097656 2802.66601562 1680.00097656 2885.33300781 1680.00097656 2992 c 0
 1680.00097656 3098.66699219 1648.00097656 3181.33398438 1584.00097656 3240.00097656 c 0
 1520.00097656 3298.66796875 1440.00097656 3328.00097656 1344.00097656 3328.00097656 c 0
 1237.33398438 3328.00097656 1154.66699219 3298.66796875 1096 3240.00097656 c 0
 1037.33300781 3181.33398438 1008 3098.66699219 1008 2992 c 0
1264 1935.99902344 m 1
 984 943.999023438 l 1
 1562 943.999023438 l 1
 1264 1935.99902344 l 1
EndSplineSet
EndChar

StartChar: AE
Encoding: 198 198 134
Width: 2736
GlyphClass: 2
Flags: W
LayerCount: 2
Fore
SplineSet
688 176 m 1
 880 176 l 1
 880 80 l 1
 352 80 l 1
 352 176 l 1
 544 176 l 1
 1248 2816 l 1
 1376 2816 l 1
 1504 2816 l 1
 2288 2816 l 1
 2288 2128 l 1
 2144 2128 l 1
 2144 2522.66699219 1984 2720 1664 2720 c 2
 1600 2720 l 1
 1600 1568 l 1
 1920 1568 l 1
 1920 1936 l 1
 2048 1936 l 1
 2048 1136 l 1
 1920 1136 l 1
 1920 1472 l 1
 1600 1472 l 1
 1600 176 l 1
 1664 176 l 2
 1984 176 2144 368 2144 752 c 1
 2288 752 l 1
 2288 80 l 1
 1120 80 l 1
 1120 176 l 1
 1376 176 l 1
 1376 1184 l 1
 961 1184 l 1
 688 176 l 1
1376 2720 m 1
 991 1296 l 1
 1376 1296 l 1
 1376 2720 l 1
EndSplineSet
EndChar

StartChar: Ccedilla
Encoding: 199 199 135
Width: 2736
GlyphClass: 2
Flags: W
LayerCount: 2
Fore
SplineSet
400 1472 m 0
 400 1856 493.331054688 2176.00097656 679.998046875 2432.00097656 c 0
 866.665039062 2688.00097656 1098.66503906 2816.00097656 1375.99804688 2816.00097656 c 0
 1482.66503906 2816.00097656 1573.33203125 2802.66796875 1647.99902344 2776.00097656 c 0
 1722.66601562 2749.33398438 1797.33300781 2714.66699219 1872 2672 c 1
 2048 2816 l 1
 2160 2816 l 1
 2160 1984 l 1
 2016 1984 l 1
 2005.33300781 2186.66699219 1941.33300781 2352 1824 2480 c 0
 1706.66699219 2608 1557.33398438 2672 1376.00097656 2672 c 0
 1152.00097656 2672 981.333984375 2554.66699219 864.000976562 2320 c 0
 746.66796875 2085.33300781 688.000976562 1802.66601562 688.000976562 1471.99902344 c 0
 688.000976562 1130.66601562 749.333984375 842.666015625 872.000976562 607.999023438 c 0
 994.66796875 373.33203125 1168.00097656 255.999023438 1392.00097656 255.999023438 c 0
 1530.66796875 255.999023438 1666.66796875 314.666015625 1800.00097656 431.999023438 c 0
 1933.33398438 549.33203125 2026.66699219 719.999023438 2080 943.999023438 c 1
 2224 911.999023438 l 1
 2170.66699219 634.666015625 2066.66699219 423.999023438 1912 279.999023438 c 0
 1757.33300781 135.999023438 1584 63.9990234375 1392 63.9990234375 c 0
 1332 63.9990234375 1274.66699219 68.9990234375 1220 78.9990234375 c 1
 1168 -112.000976562 l 1
 1328 -37.333984375 1450.66699219 -21.333984375 1536 -64.0009765625 c 0
 1621.33300781 -106.66796875 1664 -176.000976562 1664 -272.000976562 c 0
 1664 -400.000976562 1602.66699219 -482.66796875 1480 -520.000976562 c 0
 1357.33300781 -557.333984375 1184 -576.000976562 960 -576.000976562 c 1
 896 -432.000976562 l 1
 1056 -432.000976562 1192 -424.000976562 1304 -408.000976562 c 0
 1416 -392.000976562 1472 -346.66796875 1472 -272.000976562 c 0
 1472 -165.333984375 1365.33300781 -154.666992188 1152 -240 c 1
 960 -240 l 1
 1057 127 l 1
 895 195 761.333007812 318 656 496 c 0
 485.333007812 784 400 1109.33300781 400 1472 c 0
EndSplineSet
EndChar

StartChar: Egrave
Encoding: 200 200 136
Width: 2384
GlyphClass: 2
Flags: W
LayerCount: 2
Fore
SplineSet
256 2336 m 1
 2064 2336 l 1
 2064 1744 l 1
 1920 1744 l 1
 1920 2074.66699219 1760 2240 1440 2240 c 2
 704 2240 l 1
 704 1264 l 1
 1312 1264 l 2
 1472 1264 1557.33300781 1354.66699219 1568 1536 c 1
 1696 1536 l 1
 1696 912 l 1
 1568 912 l 1
 1557.33300781 1082.66699219 1472 1168 1312 1168 c 2
 704 1168 l 1
 704 176 l 1
 1440 176 l 2
 1760 176 1920 336 1920 656 c 1
 2064 656 l 1
 2064 80 l 1
 224 80 l 1
 224 176 l 1
 480 176 l 1
 480 2240 l 1
 256 2240 l 1
 256 2336 l 1
704 3328 m 1
 704 3440 l 1
 1184 3440 l 1
 1664 2832 l 1
 1568 2752 l 1
 704 3328 l 1
EndSplineSet
EndChar

StartChar: Eacute
Encoding: 201 201 137
Width: 2384
GlyphClass: 2
Flags: W
LayerCount: 2
Fore
SplineSet
256 2336 m 1
 2064 2336 l 1
 2064 1744 l 1
 1920 1744 l 1
 1920 2074.66699219 1760 2240 1440 2240 c 2
 704 2240 l 1
 704 1264 l 1
 1312 1264 l 2
 1472 1264 1557.33300781 1354.66699219 1568 1536 c 1
 1696 1536 l 1
 1696 912 l 1
 1568 912 l 1
 1557.33300781 1082.66699219 1472 1168 1312 1168 c 2
 704 1168 l 1
 704 176 l 1
 1440 176 l 2
 1760 176 1920 336 1920 656 c 1
 2064 656 l 1
 2064 80 l 1
 224 80 l 1
 224 176 l 1
 480 176 l 1
 480 2240 l 1
 256 2240 l 1
 256 2336 l 1
1184 3440 m 1
 1696 3440 l 1
 1696 3328 l 1
 752 2752 l 1
 672 2832 l 1
 1184 3440 l 1
EndSplineSet
EndChar

StartChar: Ecircumflex
Encoding: 202 202 138
Width: 2384
GlyphClass: 2
Flags: W
LayerCount: 2
Fore
SplineSet
256 2336 m 1
 2064 2336 l 1
 2064 1744 l 1
 1920 1744 l 1
 1920 2074.66699219 1760 2240 1440 2240 c 2
 704 2240 l 1
 704 1264 l 1
 1312 1264 l 2
 1472 1264 1557.33300781 1354.66699219 1568 1536 c 1
 1696 1536 l 1
 1696 912 l 1
 1568 912 l 1
 1557.33300781 1082.66699219 1472 1168 1312 1168 c 2
 704 1168 l 1
 704 176 l 1
 1440 176 l 2
 1760 176 1920 336 1920 656 c 1
 2064 656 l 1
 2064 80 l 1
 224 80 l 1
 224 176 l 1
 480 176 l 1
 480 2240 l 1
 256 2240 l 1
 256 2336 l 1
960 3440 m 1
 1392 3440 l 1
 1920 2736 l 1
 1792 2704 l 1
 1184 3152 l 1
 576 2704 l 1
 448 2736 l 1
 960 3440 l 1
EndSplineSet
EndChar

StartChar: Edieresis
Encoding: 203 203 139
Width: 2384
GlyphClass: 2
Flags: W
LayerCount: 2
Fore
SplineSet
256 2336 m 1
 2064 2336 l 1
 2064 1744 l 1
 1920 1744 l 1
 1920 2074.66699219 1760 2240 1440 2240 c 2
 704 2240 l 1
 704 1264 l 1
 1312 1264 l 2
 1472 1264 1557.33300781 1354.66699219 1568 1536 c 1
 1696 1536 l 1
 1696 912 l 1
 1568 912 l 1
 1557.33300781 1082.66699219 1472 1168 1312 1168 c 2
 704 1168 l 1
 704 176 l 1
 1440 176 l 2
 1760 176 1920 336 1920 656 c 1
 2064 656 l 1
 2064 80 l 1
 224 80 l 1
 224 176 l 1
 480 176 l 1
 480 2240 l 1
 256 2240 l 1
 256 2336 l 1
448 3136 m 0
 448 3200 469.333007812 3253.33300781 512 3296 c 0
 554.666992188 3338.66699219 608 3360 672 3360 c 0
 725.333007812 3360 773.333007812 3338.66699219 816 3296 c 0
 858.666992188 3253.33300781 880 3200 880 3136 c 0
 880 3072 861.333007812 3018.66699219 824 2976 c 0
 786.666992188 2933.33300781 736 2912 672 2912 c 0
 608 2912 554.666992188 2933.33300781 512 2976 c 0
 469.333007812 3018.66699219 448 3072 448 3136 c 0
1472 3136 m 0
 1472 3200 1493.33300781 3253.33300781 1536 3296 c 0
 1578.66699219 3338.66699219 1632 3360 1696 3360 c 0
 1749.33300781 3360 1797.33300781 3338.66699219 1840 3296 c 0
 1882.66699219 3253.33300781 1904 3200 1904 3136 c 0
 1904 3072 1885.33300781 3018.66699219 1848 2976 c 0
 1810.66699219 2933.33300781 1760 2912 1696 2912 c 0
 1632 2912 1578.66699219 2933.33300781 1536 2976 c 0
 1493.33300781 3018.66699219 1472 3072 1472 3136 c 0
EndSplineSet
EndChar

StartChar: Igrave
Encoding: 204 204 140
Width: 1200
GlyphClass: 2
Flags: W
LayerCount: 2
Fore
SplineSet
704 176 m 1
 944 176 l 1
 944 80 l 1
 240 80 l 1
 240 176 l 1
 480 176 l 1
 480 2240 l 1
 256 2240 l 1
 256 2336 l 1
 928 2336 l 1
 928 2240 l 1
 704 2240 l 1
 704 176 l 1
128 3328 m 1
 128 3440 l 1
 608 3440 l 1
 1088 2832 l 1
 992 2752 l 1
 128 3328 l 1
EndSplineSet
EndChar

StartChar: Iacute
Encoding: 205 205 141
Width: 1200
GlyphClass: 2
Flags: W
LayerCount: 2
Fore
SplineSet
704 176 m 1
 944 176 l 1
 944 80 l 1
 240 80 l 1
 240 176 l 1
 480 176 l 1
 480 2240 l 1
 256 2240 l 1
 256 2336 l 1
 928 2336 l 1
 928 2240 l 1
 704 2240 l 1
 704 176 l 1
608 3440 m 1
 1120 3440 l 1
 1120 3328 l 1
 176 2752 l 1
 96 2832 l 1
 608 3440 l 1
EndSplineSet
EndChar

StartChar: Icircumflex
Encoding: 206 206 142
Width: 1200
GlyphClass: 2
Flags: W
LayerCount: 2
Fore
SplineSet
704 176 m 1
 944 176 l 1
 944 80 l 1
 240 80 l 1
 240 176 l 1
 480 176 l 1
 480 2240 l 1
 256 2240 l 1
 256 2336 l 1
 928 2336 l 1
 928 2240 l 1
 704 2240 l 1
 704 176 l 1
384 3440 m 1
 816 3440 l 1
 1184 2736 l 1
 1088 2704 l 1
 608 3248 l 1
 96 2704 l 1
 32 2736 l 1
 384 3440 l 1
EndSplineSet
EndChar

StartChar: Idieresis
Encoding: 207 207 143
Width: 1392
GlyphClass: 2
Flags: W
LayerCount: 2
Fore
SplineSet
800 176 m 1
 1040 176 l 1
 1040 80 l 1
 336 80 l 1
 336 176 l 1
 576 176 l 1
 576 2240 l 1
 352 2240 l 1
 352 2336 l 1
 1024 2336 l 1
 1024 2240 l 1
 800 2240 l 1
 800 176 l 1
96 3136 m 0
 96 3200 117.333007812 3253.33300781 160 3296 c 0
 202.666992188 3338.66699219 256 3360 320 3360 c 0
 373.333007812 3360 421.333007812 3338.66699219 464 3296 c 0
 506.666992188 3253.33300781 528 3200 528 3136 c 0
 528 3072 509.333007812 3018.66699219 472 2976 c 0
 434.666992188 2933.33300781 384 2912 320 2912 c 0
 256 2912 202.666992188 2933.33300781 160 2976 c 0
 117.333007812 3018.66699219 96 3072 96 3136 c 0
864 3136 m 0
 864 3200 885.333007812 3253.33300781 928 3296 c 0
 970.666992188 3338.66699219 1024 3360 1088 3360 c 0
 1141.33300781 3360 1189.33300781 3338.66699219 1232 3296 c 0
 1274.66699219 3253.33300781 1296 3200 1296 3136 c 0
 1296 3072 1277.33300781 3018.66699219 1240 2976 c 0
 1202.66699219 2933.33300781 1152 2912 1088 2912 c 0
 1024 2912 970.666992188 2933.33300781 928 2976 c 0
 885.333007812 3018.66699219 864 3072 864 3136 c 0
EndSplineSet
EndChar

StartChar: Eth
Encoding: 208 208 144
Width: 2624
GlyphClass: 2
Flags: W
LayerCount: 2
Fore
SplineSet
1504 1424 m 1
 832 1424 l 1
 832 176 l 1
 1216 176 l 2
 1376 176 1530.66699219 290.666992188 1680 520 c 0
 1829.33300781 749.333007812 1904 1061.33300781 1904 1456 c 0
 1904 1850.66699219 1832 2160 1688 2384 c 0
 1544 2608 1392 2720 1232 2720 c 2
 832 2720 l 1
 832 1520 l 1
 1504 1520 l 1
 1504 1424 l 1
352 2816 m 1
 1231.99902344 2816 l 2
 1530.66601562 2816 1765.33300781 2693.33300781 1936 2448 c 0
 2106.66699219 2202.66699219 2192 1872 2192 1456 c 0
 2192 1018.66699219 2104 680 1928 440 c 0
 1752 200 1514.66699219 80 1216 80 c 2
 352 80 l 1
 352 176 l 1
 608 176 l 1
 608 1424 l 1
 352 1424 l 1
 352 1520 l 1
 608 1520 l 1
 608 2720 l 1
 352 2720 l 1
 352 2816 l 1
EndSplineSet
EndChar

StartChar: Ntilde
Encoding: 209 209 145
Width: 2736
GlyphClass: 2
Flags: W
LayerCount: 2
Fore
SplineSet
384 2336 m 1
 800 2336 l 1
 2016 560 l 1
 2016 2240 l 1
 1776 2240 l 1
 1776 2336 l 1
 2352 2336 l 1
 2352 2240 l 1
 2112 2240 l 1
 2112 80 l 1
 2016 80 l 1
 736 1984 l 1
 736 512 l 1
 736 448 l 1
 736 176 l 1
 976 176 l 1
 976 80 l 1
 400 80 l 1
 400 176 l 1
 640 176 l 1
 640 448 l 1
 640 512 l 1
 640 2240 l 1
 384 2240 l 1
 384 2336 l 1
560 3024 m 1
 666.666992188 3301.33300781 805.33203125 3440 975.999023438 3440 c 0
 1125.33203125 3440 1269.33203125 3370.66699219 1407.99902344 3232 c 1
 1535.99902344 3093.33300781 1642.66601562 3024 1727.99902344 3024 c 0
 1845.33203125 3024 1962.66503906 3120 2079.99804688 3312 c 1
 2191.99804688 3248 l 1
 2074.66503906 2970.66699219 1919.99804688 2832 1727.99804688 2832 c 0
 1610.66503906 2832 1477.33203125 2912 1327.99902344 3072 c 1
 1210.66601562 3189.33300781 1093.33300781 3248 976 3248 c 0
 880 3248 778.666992188 3152 672 2960 c 1
 560 3024 l 1
EndSplineSet
EndChar

StartChar: Ograve
Encoding: 210 210 146
Width: 2736
GlyphClass: 2
Flags: W
LayerCount: 2
Fore
SplineSet
432 1200 m 0
 432 1552 522.666992188 1829.33300781 704 2032 c 0
 885.333007812 2234.66699219 1109.33300781 2336 1376 2336 c 0
 1632 2336 1853.33300781 2229.33300781 2040 2016 c 0
 2226.66699219 1802.66699219 2320 1530.66699219 2320 1200 c 0
 2320 848 2229.33300781 570.666992188 2048 368 c 0
 1866.66699219 165.333007812 1642.66699219 64 1376 64 c 0
 1109.33300781 64 885.333007812 165.333007812 704 368 c 0
 522.666992188 570.666992188 432 848 432 1200 c 0
720 1200 m 0
 720 901.333007812 784 661.333007812 912 480 c 0
 1040 298.666992188 1194.66699219 208 1376 208 c 0
 1557.33300781 208 1712 298.666992188 1840 480 c 0
 1968 661.333007812 2032 901.333007812 2032 1200 c 0
 2032 1488 1968 1725.33300781 1840 1912 c 0
 1712 2098.66699219 1557.33300781 2192 1376 2192 c 0
 1194.66699219 2192 1040 2101.33300781 912 1920 c 0
 784 1738.66699219 720 1498.66699219 720 1200 c 0
896 3328 m 1
 896 3440 l 1
 1376 3440 l 1
 1856 2832 l 1
 1760 2752 l 1
 896 3328 l 1
EndSplineSet
EndChar

StartChar: Oacute
Encoding: 211 211 147
Width: 2736
GlyphClass: 2
Flags: W
LayerCount: 2
Fore
SplineSet
432 1200 m 0
 432 1552 522.666992188 1829.33300781 704 2032 c 0
 885.333007812 2234.66699219 1109.33300781 2336 1376 2336 c 0
 1632 2336 1853.33300781 2229.33300781 2040 2016 c 0
 2226.66699219 1802.66699219 2320 1530.66699219 2320 1200 c 0
 2320 848 2229.33300781 570.666992188 2048 368 c 0
 1866.66699219 165.333007812 1642.66699219 64 1376 64 c 0
 1109.33300781 64 885.333007812 165.333007812 704 368 c 0
 522.666992188 570.666992188 432 848 432 1200 c 0
720 1200 m 0
 720 901.333007812 784 661.333007812 912 480 c 0
 1040 298.666992188 1194.66699219 208 1376 208 c 0
 1557.33300781 208 1712 298.666992188 1840 480 c 0
 1968 661.333007812 2032 901.333007812 2032 1200 c 0
 2032 1488 1968 1725.33300781 1840 1912 c 0
 1712 2098.66699219 1557.33300781 2192 1376 2192 c 0
 1194.66699219 2192 1040 2101.33300781 912 1920 c 0
 784 1738.66699219 720 1498.66699219 720 1200 c 0
1376 3440 m 1
 1888 3440 l 1
 1888 3328 l 1
 944 2752 l 1
 864 2832 l 1
 1376 3440 l 1
EndSplineSet
EndChar

StartChar: Ocircumflex
Encoding: 212 212 148
Width: 2736
GlyphClass: 2
Flags: W
LayerCount: 2
Fore
SplineSet
432 1200 m 0
 432 1552 522.666992188 1829.33300781 704 2032 c 0
 885.333007812 2234.66699219 1109.33300781 2336 1376 2336 c 0
 1632 2336 1853.33300781 2229.33300781 2040 2016 c 0
 2226.66699219 1802.66699219 2320 1530.66699219 2320 1200 c 0
 2320 848 2229.33300781 570.666992188 2048 368 c 0
 1866.66699219 165.333007812 1642.66699219 64 1376 64 c 0
 1109.33300781 64 885.333007812 165.333007812 704 368 c 0
 522.666992188 570.666992188 432 848 432 1200 c 0
720 1200 m 0
 720 901.333007812 784 661.333007812 912 480 c 0
 1040 298.666992188 1194.66699219 208 1376 208 c 0
 1557.33300781 208 1712 298.666992188 1840 480 c 0
 1968 661.333007812 2032 901.333007812 2032 1200 c 0
 2032 1488 1968 1725.33300781 1840 1912 c 0
 1712 2098.66699219 1557.33300781 2192 1376 2192 c 0
 1194.66699219 2192 1040 2101.33300781 912 1920 c 0
 784 1738.66699219 720 1498.66699219 720 1200 c 0
1152 3440 m 1
 1584 3440 l 1
 2112 2736 l 1
 1984 2704 l 1
 1376 3152 l 1
 768 2704 l 1
 640 2736 l 1
 1152 3440 l 1
EndSplineSet
EndChar

StartChar: Otilde
Encoding: 213 213 149
Width: 2736
GlyphClass: 2
Flags: W
LayerCount: 2
Fore
SplineSet
432 1200 m 0
 432 1552 522.666992188 1829.33300781 704 2032 c 0
 885.333007812 2234.66699219 1109.33300781 2336 1376 2336 c 0
 1632 2336 1853.33300781 2229.33300781 2040 2016 c 0
 2226.66699219 1802.66699219 2320 1530.66699219 2320 1200 c 0
 2320 848 2229.33300781 570.666992188 2048 368 c 0
 1866.66699219 165.333007812 1642.66699219 64 1376 64 c 0
 1109.33300781 64 885.333007812 165.333007812 704 368 c 0
 522.666992188 570.666992188 432 848 432 1200 c 0
720 1200 m 0
 720 901.333007812 784 661.333007812 912 480 c 0
 1040 298.666992188 1194.66699219 208 1376 208 c 0
 1557.33300781 208 1712 298.666992188 1840 480 c 0
 1968 661.333007812 2032 901.333007812 2032 1200 c 0
 2032 1488 1968 1725.33300781 1840 1912 c 0
 1712 2098.66699219 1557.33300781 2192 1376 2192 c 0
 1194.66699219 2192 1040 2101.33300781 912 1920 c 0
 784 1738.66699219 720 1498.66699219 720 1200 c 0
560 3008 m 1
 688 3296 826.665039062 3440 975.998046875 3440 c 0
 1103.99804688 3440 1247.99804688 3365.33300781 1407.99804688 3216 c 1
 1535.99804688 3088 1642.66503906 3024 1727.99804688 3024 c 0
 1855.99804688 3024 1973.33105469 3120 2079.99804688 3312 c 1
 2159.99804688 3264 l 1
 2074.66503906 2976 1930.66503906 2832 1727.99804688 2832 c 0
 1610.66503906 2832 1477.33203125 2906.66699219 1327.99902344 3056 c 1
 1210.66601562 3194.66699219 1093.33300781 3264 976 3264 c 0
 890.666992188 3264 778.666992188 3162.66699219 640 2960 c 1
 560 3008 l 1
EndSplineSet
EndChar

StartChar: Odieresis
Encoding: 214 214 150
Width: 2736
GlyphClass: 2
Flags: W
LayerCount: 2
Fore
SplineSet
432 1200 m 0
 432 1552 522.666992188 1829.33300781 704 2032 c 0
 885.333007812 2234.66699219 1109.33300781 2336 1376 2336 c 0
 1632 2336 1853.33300781 2229.33300781 2040 2016 c 0
 2226.66699219 1802.66699219 2320 1530.66699219 2320 1200 c 0
 2320 848 2229.33300781 570.666992188 2048 368 c 0
 1866.66699219 165.333007812 1642.66699219 64 1376 64 c 0
 1109.33300781 64 885.333007812 165.333007812 704 368 c 0
 522.666992188 570.666992188 432 848 432 1200 c 0
720 1200 m 0
 720 901.333007812 784 661.333007812 912 480 c 0
 1040 298.666992188 1194.66699219 208 1376 208 c 0
 1557.33300781 208 1712 298.666992188 1840 480 c 0
 1968 661.333007812 2032 901.333007812 2032 1200 c 0
 2032 1488 1968 1725.33300781 1840 1912 c 0
 1712 2098.66699219 1557.33300781 2192 1376 2192 c 0
 1194.66699219 2192 1040 2101.33300781 912 1920 c 0
 784 1738.66699219 720 1498.66699219 720 1200 c 0
640 3136 m 0
 640 3200 661.333007812 3253.33300781 704 3296 c 0
 746.666992188 3338.66699219 800 3360 864 3360 c 0
 917.333007812 3360 965.333007812 3338.66699219 1008 3296 c 0
 1050.66699219 3253.33300781 1072 3200 1072 3136 c 0
 1072 3072 1053.33300781 3018.66699219 1016 2976 c 0
 978.666992188 2933.33300781 928 2912 864 2912 c 0
 800 2912 746.666992188 2933.33300781 704 2976 c 0
 661.333007812 3018.66699219 640 3072 640 3136 c 0
1664 3136 m 0
 1664 3200 1685.33300781 3253.33300781 1728 3296 c 0
 1770.66699219 3338.66699219 1824 3360 1888 3360 c 0
 1941.33300781 3360 1989.33300781 3338.66699219 2032 3296 c 0
 2074.66699219 3253.33300781 2096 3200 2096 3136 c 0
 2096 3072 2077.33300781 3018.66699219 2040 2976 c 0
 2002.66699219 2933.33300781 1952 2912 1888 2912 c 0
 1824 2912 1770.66699219 2933.33300781 1728 2976 c 0
 1685.33300781 3018.66699219 1664 3072 1664 3136 c 0
EndSplineSet
EndChar

StartChar: multiply
Encoding: 215 215 151
Width: 4096
GlyphClass: 2
Flags: W
LayerCount: 2
Fore
SplineSet
592 144 m 1
 1912 1464 l 1
 608 2784 l 1
 720 2912 l 1
 2040 1592 l 1
 3360 2912 l 1
 3488 2784 l 1
 2164 1468 l 1
 3488 144 l 1
 3344 16 l 1
 2035 1340 l 1
 704 16 l 1
 592 144 l 1
EndSplineSet
Substitution2: "sous-table 'vert' Formes verticales alternatives (CJK) dans Hiragana & katakana lookup 0" multiply.vert
EndChar

StartChar: Oslash
Encoding: 216 216 152
Width: 2736
GlyphClass: 2
Flags: W
LayerCount: 2
Fore
SplineSet
2144 3216 m 1
 2303.99902344 3136 l 1
 1967.99902344 2480 l 1
 1978.66601562 2467.33300781 1989.33300781 2454 2000 2440 c 0
 2192 2189.33300781 2288 1866.66601562 2288 1471.99902344 c 0
 2288 1055.99902344 2194.66699219 717.33203125 2008 455.999023438 c 0
 1821.33300781 194.666015625 1600 63.9990234375 1344 63.9990234375 c 0
 1157.33300781 63.9990234375 989 133.666015625 839 272.999023438 c 1
 544 -304.000976562 l 1
 384 -224.000976562 l 1
 711 414.999023438 l 1
 700.333007812 428.33203125 690 441.999023438 680 455.999023438 c 0
 493.333007812 717.33203125 400 1055.99902344 400 1471.99902344 c 0
 400 1866.66601562 493.333007812 2189.33300781 680 2440 c 0
 866.666992188 2690.66699219 1088 2816 1344 2816 c 0
 1522.66699219 2816 1687 2749.66699219 1837 2617 c 1
 2144 3216 l 1
687.999023438 1472 m 0
 687.999023438 1160.66699219 737.999023438 890.999023438 837.999023438 662.999023438 c 1
 1740.99902344 2428.99902344 l 1
 1626.99902344 2590.99902344 1494.66601562 2671.99902344 1343.99902344 2671.99902344 c 0
 1162.66601562 2671.99902344 1007.99902344 2557.33203125 879.999023438 2327.99902344 c 0
 751.999023438 2098.66601562 687.999023438 1813.33300781 687.999023438 1472 c 0
1343.99902344 207.999023438 m 0
 1525.33203125 207.999023438 1680 330.666015625 1808 575.999023438 c 0
 1936 821.33203125 2000 1119.99902344 2000 1471.99902344 c 0
 2000 1767.33203125 1949 2024.33203125 1847 2242.99902344 c 1
 941 471.999023438 l 1
 1056.33300781 295.999023438 1190.66601562 207.999023438 1343.99902344 207.999023438 c 0
EndSplineSet
EndChar

StartChar: Ugrave
Encoding: 217 217 153
Width: 2736
GlyphClass: 2
Flags: W
LayerCount: 2
Fore
SplineSet
832 848 m 2
 832 656 882.66796875 498.666992188 984.000976562 376 c 0
 1085.33398438 253.333007812 1216.00097656 192 1376.00097656 192 c 0
 1546.66796875 192 1680.00097656 245.333007812 1776.00097656 352 c 0
 1872.00097656 458.666992188 1925.33398438 624 1936.00097656 848 c 1
 1936.00097656 2240 l 1
 1648.00097656 2240 l 1
 1648.00097656 2336 l 1
 2352.00097656 2336 l 1
 2352.00097656 2240 l 1
 2080.00097656 2240 l 1
 2080.00097656 848 l 2
 2080.00097656 613.333007812 2021.33398438 424 1904.00097656 280 c 0
 1786.66796875 136 1610.66796875 64 1376.00097656 64 c 0
 1141.33398438 64 954.666992188 138.666992188 816 288 c 0
 677.333007812 437.333007812 608 624 608 848 c 2
 608 2240 l 1
 384 2240 l 1
 384 2336 l 1
 1072 2336 l 1
 1072 2240 l 1
 832 2240 l 1
 832 848 l 2
864.000976562 3328 m 1
 864.000976562 3440 l 1
 1344.00097656 3440 l 1
 1824.00097656 2832 l 1
 1728.00097656 2752 l 1
 864.000976562 3328 l 1
EndSplineSet
EndChar

StartChar: Uacute
Encoding: 218 218 154
Width: 2736
GlyphClass: 2
Flags: W
LayerCount: 2
Fore
SplineSet
832 848 m 2
 832 656 882.66796875 498.666992188 984.000976562 376 c 0
 1085.33398438 253.333007812 1216.00097656 192 1376.00097656 192 c 0
 1546.66796875 192 1680.00097656 245.333007812 1776.00097656 352 c 0
 1872.00097656 458.666992188 1925.33398438 624 1936.00097656 848 c 1
 1936.00097656 2240 l 1
 1648.00097656 2240 l 1
 1648.00097656 2336 l 1
 2352.00097656 2336 l 1
 2352.00097656 2240 l 1
 2080.00097656 2240 l 1
 2080.00097656 848 l 2
 2080.00097656 613.333007812 2021.33398438 424 1904.00097656 280 c 0
 1786.66796875 136 1610.66796875 64 1376.00097656 64 c 0
 1141.33398438 64 954.666992188 138.666992188 816 288 c 0
 677.333007812 437.333007812 608 624 608 848 c 2
 608 2240 l 1
 384 2240 l 1
 384 2336 l 1
 1072 2336 l 1
 1072 2240 l 1
 832 2240 l 1
 832 848 l 2
1344.00097656 3440 m 1
 1856.00097656 3440 l 1
 1856.00097656 3328 l 1
 912.000976562 2752 l 1
 832.000976562 2832 l 1
 1344.00097656 3440 l 1
EndSplineSet
EndChar

StartChar: Ucircumflex
Encoding: 219 219 155
Width: 2736
GlyphClass: 2
Flags: W
LayerCount: 2
Fore
SplineSet
832 848 m 2
 832 656 882.66796875 498.666992188 984.000976562 376 c 0
 1085.33398438 253.333007812 1216.00097656 192 1376.00097656 192 c 0
 1546.66796875 192 1680.00097656 245.333007812 1776.00097656 352 c 0
 1872.00097656 458.666992188 1925.33398438 624 1936.00097656 848 c 1
 1936.00097656 2240 l 1
 1648.00097656 2240 l 1
 1648.00097656 2336 l 1
 2352.00097656 2336 l 1
 2352.00097656 2240 l 1
 2080.00097656 2240 l 1
 2080.00097656 848 l 2
 2080.00097656 613.333007812 2021.33398438 424 1904.00097656 280 c 0
 1786.66796875 136 1610.66796875 64 1376.00097656 64 c 0
 1141.33398438 64 954.666992188 138.666992188 816 288 c 0
 677.333007812 437.333007812 608 624 608 848 c 2
 608 2240 l 1
 384 2240 l 1
 384 2336 l 1
 1072 2336 l 1
 1072 2240 l 1
 832 2240 l 1
 832 848 l 2
1120.00097656 3440 m 1
 1552.00097656 3440 l 1
 2080.00097656 2736 l 1
 1952.00097656 2704 l 1
 1344.00097656 3152 l 1
 736.000976562 2704 l 1
 608.000976562 2736 l 1
 1120.00097656 3440 l 1
EndSplineSet
EndChar

StartChar: Udieresis
Encoding: 220 220 156
Width: 2736
GlyphClass: 2
Flags: W
LayerCount: 2
Fore
SplineSet
832 848 m 2
 832 656 882.66796875 498.666992188 984.000976562 376 c 0
 1085.33398438 253.333007812 1216.00097656 192 1376.00097656 192 c 0
 1546.66796875 192 1680.00097656 245.333007812 1776.00097656 352 c 0
 1872.00097656 458.666992188 1925.33398438 624 1936.00097656 848 c 1
 1936.00097656 2240 l 1
 1648.00097656 2240 l 1
 1648.00097656 2336 l 1
 2352.00097656 2336 l 1
 2352.00097656 2240 l 1
 2080.00097656 2240 l 1
 2080.00097656 848 l 2
 2080.00097656 613.333007812 2021.33398438 424 1904.00097656 280 c 0
 1786.66796875 136 1610.66796875 64 1376.00097656 64 c 0
 1141.33398438 64 954.666992188 138.666992188 816 288 c 0
 677.333007812 437.333007812 608 624 608 848 c 2
 608 2240 l 1
 384 2240 l 1
 384 2336 l 1
 1072 2336 l 1
 1072 2240 l 1
 832 2240 l 1
 832 848 l 2
608.000976562 3136 m 0
 608.000976562 3200 629.333984375 3253.33300781 672.000976562 3296 c 0
 714.66796875 3338.66699219 768.000976562 3360 832.000976562 3360 c 0
 885.333984375 3360 933.333984375 3338.66699219 976.000976562 3296 c 0
 1018.66796875 3253.33300781 1040.00097656 3200 1040.00097656 3136 c 0
 1040.00097656 3072 1021.33398438 3018.66699219 984.000976562 2976 c 0
 946.66796875 2933.33300781 896.000976562 2912 832.000976562 2912 c 0
 768.000976562 2912 714.66796875 2933.33300781 672.000976562 2976 c 0
 629.333984375 3018.66699219 608.000976562 3072 608.000976562 3136 c 0
1632.00097656 3136 m 0
 1632.00097656 3200 1653.33398438 3253.33300781 1696.00097656 3296 c 0
 1738.66796875 3338.66699219 1792.00097656 3360 1856.00097656 3360 c 0
 1909.33398438 3360 1957.33398438 3338.66699219 2000.00097656 3296 c 0
 2042.66796875 3253.33300781 2064.00097656 3200 2064.00097656 3136 c 0
 2064.00097656 3072 2045.33398438 3018.66699219 2008.00097656 2976 c 0
 1970.66796875 2933.33300781 1920.00097656 2912 1856.00097656 2912 c 0
 1792.00097656 2912 1738.66796875 2933.33300781 1696.00097656 2976 c 0
 1653.33398438 3018.66699219 1632.00097656 3072 1632.00097656 3136 c 0
EndSplineSet
EndChar

StartChar: Yacute
Encoding: 221 221 157
Width: 2736
GlyphClass: 2
Flags: W
LayerCount: 2
Fore
SplineSet
1456 176 m 1
 1696 176 l 1
 1696 80 l 1
 992 80 l 1
 992 176 l 1
 1232 176 l 1
 1232 1088 l 1
 608 2240 l 1
 400 2240 l 1
 400 2336 l 1
 1088 2336 l 1
 1088 2240 l 1
 864 2240 l 1
 1408 1232 l 1
 1936 2240 l 1
 1728 2240 l 1
 1728 2336 l 1
 2288 2336 l 1
 2288 2240 l 1
 2080 2240 l 1
 1456 1088 l 1
 1456 176 l 1
1344 3440 m 1
 1856 3440 l 1
 1856 3328 l 1
 912 2752 l 1
 832 2832 l 1
 1344 3440 l 1
EndSplineSet
EndChar

StartChar: Thorn
Encoding: 222 222 158
Width: 1984
GlyphClass: 2
Flags: W
LayerCount: 2
Fore
SplineSet
624 2016 m 1
 624.001953125 896 l 1
 960.001953125 896 l 2
 1109.33496094 896 1242.66796875 941.333007812 1360.00097656 1032 c 0
 1477.33398438 1122.66699219 1536.00097656 1264 1536.00097656 1456 c 0
 1536.00097656 1658.66699219 1474.66796875 1802.66699219 1352.00097656 1888 c 0
 1229.33398438 1973.33300781 1098.66699219 2016 960 2016 c 2
 624 2016 l 1
624.001953125 784 m 1
 624.001953125 176.001953125 l 1
 912.001953125 176.001953125 l 1
 912.001953125 80.001953125 l 1
 96.001953125 80.001953125 l 1
 96.001953125 176.001953125 l 1
 384.001953125 176.001953125 l 1
 384.001953125 2704.00195312 l 1
 96.001953125 2704.00195312 l 1
 96.001953125 2816.00195312 l 1
 912.001953125 2816.00195312 l 1
 912.001953125 2704.00195312 l 1
 624.001953125 2704.00195312 l 1
 624.001953125 2128.00195312 l 1
 960.001953125 2128.00195312 l 2
 1226.66894531 2128.00195312 1437.3359375 2066.66894531 1592.00292969 1944.00195312 c 0
 1746.66992188 1821.33496094 1824.00292969 1658.66796875 1824.00292969 1456.00097656 c 0
 1824.00292969 1253.33398438 1746.66992188 1090.66699219 1592.00292969 968 c 0
 1437.3359375 845.333007812 1226.66894531 784 960.001953125 784 c 2
 624.001953125 784 l 1
EndSplineSet
EndChar

StartChar: germandbls
Encoding: 223 223 159
Width: 2304
GlyphClass: 2
Flags: W
LayerCount: 2
Fore
SplineSet
448 176 m 1
 447.999023438 2175.99804688 l 2
 447.999023438 2367.99804688 514.666015625 2522.66503906 647.999023438 2639.99804688 c 0
 781.33203125 2757.33105469 938.665039062 2815.99804688 1119.99804688 2815.99804688 c 0
 1343.99804688 2815.99804688 1527.99804688 2751.99804688 1671.99804688 2623.99804688 c 0
 1815.99804688 2495.99804688 1887.99804688 2330.66503906 1887.99804688 2127.99804688 c 0
 1887.99804688 1882.66503906 1754.66503906 1701.33203125 1487.99804688 1583.99902344 c 1
 1839.99804688 1423.99902344 2015.99804688 1167.99902344 2015.99804688 815.999023438 c 0
 2015.99804688 570.666015625 1946.66503906 383.999023438 1807.99804688 255.999023438 c 0
 1669.33105469 127.999023438 1503.99804688 63.9990234375 1311.99804688 63.9990234375 c 0
 1151.99804688 63.9990234375 1018.66503906 101.33203125 911.998046875 175.999023438 c 0
 805.331054688 250.666015625 751.998046875 335.999023438 751.998046875 431.999023438 c 0
 751.998046875 506.666015625 770.665039062 559.999023438 807.998046875 591.999023438 c 0
 845.331054688 623.999023438 895.998046875 639.999023438 959.998046875 639.999023438 c 0
 1034.66503906 639.999023438 1079.99804688 605.33203125 1095.99804688 535.999023438 c 0
 1111.99804688 466.666015625 1077.33105469 410.666015625 991.998046875 367.999023438 c 1
 1066.66503906 250.666015625 1173.33203125 191.999023438 1311.99902344 191.999023438 c 0
 1418.66601562 191.999023438 1517.33300781 245.33203125 1608 351.999023438 c 0
 1698.66699219 458.666015625 1744 613.333007812 1744 816 c 0
 1744 1018.66699219 1693.33300781 1186.66699219 1592 1320 c 0
 1490.66699219 1453.33300781 1370.66699219 1520 1232 1520 c 2
 1024 1520 l 1
 1024 1632 l 1
 1232 1632 l 2
 1328 1632 1418.66699219 1674.66699219 1504 1760 c 0
 1589.33300781 1845.33300781 1632 1968 1632 2128 c 0
 1632 2309.33300781 1581.33300781 2445.33300781 1480 2536 c 0
 1378.66699219 2626.66699219 1258.66699219 2672 1120 2672 c 0
 992 2672 888 2626.66699219 808 2536 c 0
 728 2445.33300781 688 2325.33300781 688 2176 c 2
 688 80 l 1
 144 80 l 1
 144 176 l 1
 448 176 l 1
EndSplineSet
EndChar

StartChar: agrave
Encoding: 224 224 160
Width: 1824
GlyphClass: 2
Flags: W
LayerCount: 2
Fore
SplineSet
416 3328 m 1
 416 3440 l 1
 896 3440 l 1
 1376 2832 l 1
 1280 2752 l 1
 416 3328 l 1
944 1872 m 2
 1072 1872 1194.66308594 1826.66796875 1311.99609375 1736.00097656 c 0
 1429.32910156 1645.33398438 1487.99609375 1514.66699219 1487.99609375 1344 c 2
 1487.99609375 304 l 2
 1487.99609375 250.666992188 1514.66308594 224 1567.99609375 224 c 0
 1631.99609375 224 1685.32910156 309.333007812 1727.99609375 480 c 1
 1823.99609375 448 l 1
 1781.32910156 192 1669.32910156 64 1487.99609375 64 c 0
 1423.99609375 64 1370.66308594 85.3330078125 1327.99609375 128 c 0
 1285.32910156 170.666992188 1263.99609375 218.666992188 1263.99609375 272 c 1
 1114.66308594 133.333007812 933.330078125 64 719.997070312 64 c 2
 527.997070312 64 l 2
 378.6640625 64 261.331054688 106.666992188 175.998046875 192 c 0
 90.6650390625 277.333007812 47.998046875 368 47.998046875 464 c 0
 47.998046875 677.333007812 117.331054688 834.666015625 255.998046875 935.999023438 c 0
 394.665039062 1037.33203125 538.665039062 1109.33203125 687.998046875 1151.99902344 c 0
 837.331054688 1194.66601562 1029.33105469 1226.66601562 1263.99804688 1247.99902344 c 1
 1263.99804688 1343.99902344 l 2
 1263.99804688 1482.66601562 1223.99804688 1581.33300781 1143.99804688 1640 c 0
 1063.99804688 1698.66699219 959.998046875 1728 831.998046875 1728 c 0
 735.998046875 1728 642.665039062 1704 551.998046875 1656 c 0
 461.331054688 1608 415.998046875 1536 415.998046875 1440 c 0
 415.998046875 1376 397.331054688 1330.66699219 359.998046875 1304 c 0
 322.665039062 1277.33300781 277.33203125 1264 223.999023438 1264 c 0
 159.999023438 1264 127.999023438 1296 127.999023438 1360 c 0
 127.999023438 1520 205.33203125 1645.33300781 359.999023438 1736 c 0
 514.666015625 1826.66699219 645.333007812 1872 752 1872 c 2
 944 1872 l 2
1263.99609375 1120.00097656 m 1
 1029.32910156 1088.00097656 850.663085938 1048.00097656 727.99609375 1000.00097656 c 0
 605.329101562 952.000976562 503.99609375 885.333984375 423.99609375 800.000976562 c 0
 343.99609375 714.66796875 303.99609375 618.66796875 303.99609375 512.000976562 c 0
 303.99609375 405.333984375 335.99609375 328.000976562 399.99609375 280.000976562 c 0
 463.99609375 232.000976562 570.663085938 208.000976562 719.99609375 208.000976562 c 0
 911.99609375 208.000976562 1093.32910156 277.333984375 1263.99609375 416.000976562 c 1
 1263.99609375 1120.00097656 l 1
 1263.99609375 1120.00097656 l 1
EndSplineSet
EndChar

StartChar: aacute
Encoding: 225 225 161
Width: 1824
GlyphClass: 2
Flags: W
LayerCount: 2
Fore
SplineSet
896 3440 m 1
 1408 3440 l 1
 1408 3328 l 1
 464 2752 l 1
 384 2832 l 1
 896 3440 l 1
944 1872 m 2
 1072 1872 1194.66308594 1826.66796875 1311.99609375 1736.00097656 c 0
 1429.32910156 1645.33398438 1487.99609375 1514.66699219 1487.99609375 1344 c 2
 1487.99609375 304 l 2
 1487.99609375 250.666992188 1514.66308594 224 1567.99609375 224 c 0
 1631.99609375 224 1685.32910156 309.333007812 1727.99609375 480 c 1
 1823.99609375 448 l 1
 1781.32910156 192 1669.32910156 64 1487.99609375 64 c 0
 1423.99609375 64 1370.66308594 85.3330078125 1327.99609375 128 c 0
 1285.32910156 170.666992188 1263.99609375 218.666992188 1263.99609375 272 c 1
 1114.66308594 133.333007812 933.330078125 64 719.997070312 64 c 2
 527.997070312 64 l 2
 378.6640625 64 261.331054688 106.666992188 175.998046875 192 c 0
 90.6650390625 277.333007812 47.998046875 368 47.998046875 464 c 0
 47.998046875 677.333007812 117.331054688 834.666015625 255.998046875 935.999023438 c 0
 394.665039062 1037.33203125 538.665039062 1109.33203125 687.998046875 1151.99902344 c 0
 837.331054688 1194.66601562 1029.33105469 1226.66601562 1263.99804688 1247.99902344 c 1
 1263.99804688 1343.99902344 l 2
 1263.99804688 1482.66601562 1223.99804688 1581.33300781 1143.99804688 1640 c 0
 1063.99804688 1698.66699219 959.998046875 1728 831.998046875 1728 c 0
 735.998046875 1728 642.665039062 1704 551.998046875 1656 c 0
 461.331054688 1608 415.998046875 1536 415.998046875 1440 c 0
 415.998046875 1376 397.331054688 1330.66699219 359.998046875 1304 c 0
 322.665039062 1277.33300781 277.33203125 1264 223.999023438 1264 c 0
 159.999023438 1264 127.999023438 1296 127.999023438 1360 c 0
 127.999023438 1520 205.33203125 1645.33300781 359.999023438 1736 c 0
 514.666015625 1826.66699219 645.333007812 1872 752 1872 c 2
 944 1872 l 2
1263.99609375 1120.00097656 m 1
 1029.32910156 1088.00097656 850.663085938 1048.00097656 727.99609375 1000.00097656 c 0
 605.329101562 952.000976562 503.99609375 885.333984375 423.99609375 800.000976562 c 0
 343.99609375 714.66796875 303.99609375 618.66796875 303.99609375 512.000976562 c 0
 303.99609375 405.333984375 335.99609375 328.000976562 399.99609375 280.000976562 c 0
 463.99609375 232.000976562 570.663085938 208.000976562 719.99609375 208.000976562 c 0
 911.99609375 208.000976562 1093.32910156 277.333984375 1263.99609375 416.000976562 c 1
 1263.99609375 1120.00097656 l 1
 1263.99609375 1120.00097656 l 1
EndSplineSet
EndChar

StartChar: acircumflex
Encoding: 226 226 162
Width: 1824
GlyphClass: 2
Flags: W
LayerCount: 2
Fore
SplineSet
944 1872 m 2
 1072 1872 1194.66308594 1826.66796875 1311.99609375 1736.00097656 c 0
 1429.32910156 1645.33398438 1487.99609375 1514.66699219 1487.99609375 1344 c 2
 1487.99609375 304 l 2
 1487.99609375 250.666992188 1514.66308594 224 1567.99609375 224 c 0
 1631.99609375 224 1685.32910156 309.333007812 1727.99609375 480 c 1
 1823.99609375 448 l 1
 1781.32910156 192 1669.32910156 64 1487.99609375 64 c 0
 1423.99609375 64 1370.66308594 85.3330078125 1327.99609375 128 c 0
 1285.32910156 170.666992188 1263.99609375 218.666992188 1263.99609375 272 c 1
 1114.66308594 133.333007812 933.330078125 64 719.997070312 64 c 2
 527.997070312 64 l 2
 378.6640625 64 261.331054688 106.666992188 175.998046875 192 c 0
 90.6650390625 277.333007812 47.998046875 368 47.998046875 464 c 0
 47.998046875 677.333007812 117.331054688 834.666015625 255.998046875 935.999023438 c 0
 394.665039062 1037.33203125 538.665039062 1109.33203125 687.998046875 1151.99902344 c 0
 837.331054688 1194.66601562 1029.33105469 1226.66601562 1263.99804688 1247.99902344 c 1
 1263.99804688 1343.99902344 l 2
 1263.99804688 1482.66601562 1223.99804688 1581.33300781 1143.99804688 1640 c 0
 1063.99804688 1698.66699219 959.998046875 1728 831.998046875 1728 c 0
 735.998046875 1728 642.665039062 1704 551.998046875 1656 c 0
 461.331054688 1608 415.998046875 1536 415.998046875 1440 c 0
 415.998046875 1376 397.331054688 1330.66699219 359.998046875 1304 c 0
 322.665039062 1277.33300781 277.33203125 1264 223.999023438 1264 c 0
 159.999023438 1264 127.999023438 1296 127.999023438 1360 c 0
 127.999023438 1520 205.33203125 1645.33300781 359.999023438 1736 c 0
 514.666015625 1826.66699219 645.333007812 1872 752 1872 c 2
 944 1872 l 2
1263.99609375 1120.00097656 m 1
 1029.32910156 1088.00097656 850.663085938 1048.00097656 727.99609375 1000.00097656 c 0
 605.329101562 952.000976562 503.99609375 885.333984375 423.99609375 800.000976562 c 0
 343.99609375 714.66796875 303.99609375 618.66796875 303.99609375 512.000976562 c 0
 303.99609375 405.333984375 335.99609375 328.000976562 399.99609375 280.000976562 c 0
 463.99609375 232.000976562 570.663085938 208.000976562 719.99609375 208.000976562 c 0
 911.99609375 208.000976562 1093.32910156 277.333984375 1263.99609375 416.000976562 c 1
 1263.99609375 1120.00097656 l 1
 1263.99609375 1120.00097656 l 1
671.997070312 3440.00097656 m 1
 1103.99707031 3440.00097656 l 1
 1631.99707031 2736.00097656 l 1
 1503.99707031 2704.00097656 l 1
 895.997070312 3152.00097656 l 1
 287.997070312 2704.00097656 l 1
 159.997070312 2736.00097656 l 1
 671.997070312 3440.00097656 l 1
EndSplineSet
EndChar

StartChar: atilde
Encoding: 227 227 163
Width: 1824
GlyphClass: 2
Flags: W
LayerCount: 2
Fore
SplineSet
944 1872 m 2
 1072 1872 1194.66308594 1826.66796875 1311.99609375 1736.00097656 c 0
 1429.32910156 1645.33398438 1487.99609375 1514.66699219 1487.99609375 1344 c 2
 1487.99609375 304 l 2
 1487.99609375 250.666992188 1514.66308594 224 1567.99609375 224 c 0
 1631.99609375 224 1685.32910156 309.333007812 1727.99609375 480 c 1
 1823.99609375 448 l 1
 1781.32910156 192 1669.32910156 64 1487.99609375 64 c 0
 1423.99609375 64 1370.66308594 85.3330078125 1327.99609375 128 c 0
 1285.32910156 170.666992188 1263.99609375 218.666992188 1263.99609375 272 c 1
 1114.66308594 133.333007812 933.330078125 64 719.997070312 64 c 2
 527.997070312 64 l 2
 378.6640625 64 261.331054688 106.666992188 175.998046875 192 c 0
 90.6650390625 277.333007812 47.998046875 368 47.998046875 464 c 0
 47.998046875 677.333007812 117.331054688 834.666015625 255.998046875 935.999023438 c 0
 394.665039062 1037.33203125 538.665039062 1109.33203125 687.998046875 1151.99902344 c 0
 837.331054688 1194.66601562 1029.33105469 1226.66601562 1263.99804688 1247.99902344 c 1
 1263.99804688 1343.99902344 l 2
 1263.99804688 1482.66601562 1223.99804688 1581.33300781 1143.99804688 1640 c 0
 1063.99804688 1698.66699219 959.998046875 1728 831.998046875 1728 c 0
 735.998046875 1728 642.665039062 1704 551.998046875 1656 c 0
 461.331054688 1608 415.998046875 1536 415.998046875 1440 c 0
 415.998046875 1376 397.331054688 1330.66699219 359.998046875 1304 c 0
 322.665039062 1277.33300781 277.33203125 1264 223.999023438 1264 c 0
 159.999023438 1264 127.999023438 1296 127.999023438 1360 c 0
 127.999023438 1520 205.33203125 1645.33300781 359.999023438 1736 c 0
 514.666015625 1826.66699219 645.333007812 1872 752 1872 c 2
 944 1872 l 2
1263.99609375 1120.00097656 m 1
 1029.32910156 1088.00097656 850.663085938 1048.00097656 727.99609375 1000.00097656 c 0
 605.329101562 952.000976562 503.99609375 885.333984375 423.99609375 800.000976562 c 0
 343.99609375 714.66796875 303.99609375 618.66796875 303.99609375 512.000976562 c 0
 303.99609375 405.333984375 335.99609375 328.000976562 399.99609375 280.000976562 c 0
 463.99609375 232.000976562 570.663085938 208.000976562 719.99609375 208.000976562 c 0
 911.99609375 208.000976562 1093.32910156 277.333984375 1263.99609375 416.000976562 c 1
 1263.99609375 1120.00097656 l 1
 1263.99609375 1120.00097656 l 1
79.9970703125 3008.00097656 m 1
 207.997070312 3296.00097656 346.662109375 3440.00097656 495.995117188 3440.00097656 c 0
 623.995117188 3440.00097656 767.995117188 3365.33398438 927.995117188 3216.00097656 c 1
 1055.99511719 3088.00097656 1162.66210938 3024.00097656 1247.99511719 3024.00097656 c 0
 1375.99511719 3024.00097656 1493.328125 3120.00097656 1599.99511719 3312.00097656 c 1
 1679.99511719 3264.00097656 l 1
 1594.66210938 2976.00097656 1450.66210938 2832.00097656 1247.99511719 2832.00097656 c 0
 1130.66210938 2832.00097656 997.329101562 2906.66796875 847.99609375 3056.00097656 c 1
 730.663085938 3194.66796875 613.330078125 3264.00097656 495.997070312 3264.00097656 c 0
 410.6640625 3264.00097656 298.6640625 3162.66796875 159.997070312 2960.00097656 c 1
 79.9970703125 3008.00097656 l 1
EndSplineSet
EndChar

StartChar: adieresis
Encoding: 228 228 164
Width: 1824
GlyphClass: 2
Flags: W
LayerCount: 2
Fore
SplineSet
944 1872 m 2
 1072 1872 1194.66308594 1826.66796875 1311.99609375 1736.00097656 c 0
 1429.32910156 1645.33398438 1487.99609375 1514.66699219 1487.99609375 1344 c 2
 1487.99609375 304 l 2
 1487.99609375 250.666992188 1514.66308594 224 1567.99609375 224 c 0
 1631.99609375 224 1685.32910156 309.333007812 1727.99609375 480 c 1
 1823.99609375 448 l 1
 1781.32910156 192 1669.32910156 64 1487.99609375 64 c 0
 1423.99609375 64 1370.66308594 85.3330078125 1327.99609375 128 c 0
 1285.32910156 170.666992188 1263.99609375 218.666992188 1263.99609375 272 c 1
 1114.66308594 133.333007812 933.330078125 64 719.997070312 64 c 2
 527.997070312 64 l 2
 378.6640625 64 261.331054688 106.666992188 175.998046875 192 c 0
 90.6650390625 277.333007812 47.998046875 368 47.998046875 464 c 0
 47.998046875 677.333007812 117.331054688 834.666015625 255.998046875 935.999023438 c 0
 394.665039062 1037.33203125 538.665039062 1109.33203125 687.998046875 1151.99902344 c 0
 837.331054688 1194.66601562 1029.33105469 1226.66601562 1263.99804688 1247.99902344 c 1
 1263.99804688 1343.99902344 l 2
 1263.99804688 1482.66601562 1223.99804688 1581.33300781 1143.99804688 1640 c 0
 1063.99804688 1698.66699219 959.998046875 1728 831.998046875 1728 c 0
 735.998046875 1728 642.665039062 1704 551.998046875 1656 c 0
 461.331054688 1608 415.998046875 1536 415.998046875 1440 c 0
 415.998046875 1376 397.331054688 1330.66699219 359.998046875 1304 c 0
 322.665039062 1277.33300781 277.33203125 1264 223.999023438 1264 c 0
 159.999023438 1264 127.999023438 1296 127.999023438 1360 c 0
 127.999023438 1520 205.33203125 1645.33300781 359.999023438 1736 c 0
 514.666015625 1826.66699219 645.333007812 1872 752 1872 c 2
 944 1872 l 2
1263.99609375 1120.00097656 m 1
 1029.32910156 1088.00097656 850.663085938 1048.00097656 727.99609375 1000.00097656 c 0
 605.329101562 952.000976562 503.99609375 885.333984375 423.99609375 800.000976562 c 0
 343.99609375 714.66796875 303.99609375 618.66796875 303.99609375 512.000976562 c 0
 303.99609375 405.333984375 335.99609375 328.000976562 399.99609375 280.000976562 c 0
 463.99609375 232.000976562 570.663085938 208.000976562 719.99609375 208.000976562 c 0
 911.99609375 208.000976562 1093.32910156 277.333984375 1263.99609375 416.000976562 c 1
 1263.99609375 1120.00097656 l 1
 1263.99609375 1120.00097656 l 1
239.997070312 3136.00097656 m 0
 239.997070312 3200.00097656 261.330078125 3253.33398438 303.997070312 3296.00097656 c 0
 346.6640625 3338.66796875 399.997070312 3360.00097656 463.997070312 3360.00097656 c 0
 527.997070312 3360.00097656 581.330078125 3338.66796875 623.997070312 3296.00097656 c 0
 666.6640625 3253.33398438 687.997070312 3200.00097656 687.997070312 3136.00097656 c 0
 687.997070312 3072.00097656 666.6640625 3018.66796875 623.997070312 2976.00097656 c 0
 581.330078125 2933.33398438 527.997070312 2912.00097656 463.997070312 2912.00097656 c 0
 399.997070312 2912.00097656 346.6640625 2933.33398438 303.997070312 2976.00097656 c 0
 261.330078125 3018.66796875 239.997070312 3072.00097656 239.997070312 3136.00097656 c 0
1071.99707031 3136.00097656 m 0
 1071.99707031 3200.00097656 1093.33007812 3253.33398438 1135.99707031 3296.00097656 c 0
 1178.6640625 3338.66796875 1231.99707031 3360.00097656 1295.99707031 3360.00097656 c 0
 1359.99707031 3360.00097656 1413.33007812 3338.66796875 1455.99707031 3296.00097656 c 0
 1498.6640625 3253.33398438 1519.99707031 3200.00097656 1519.99707031 3136.00097656 c 0
 1519.99707031 3072.00097656 1498.6640625 3018.66796875 1455.99707031 2976.00097656 c 0
 1413.33007812 2933.33398438 1359.99707031 2912.00097656 1295.99707031 2912.00097656 c 0
 1231.99707031 2912.00097656 1178.6640625 2933.33398438 1135.99707031 2976.00097656 c 0
 1093.33007812 3018.66796875 1071.99707031 3072.00097656 1071.99707031 3136.00097656 c 0
EndSplineSet
EndChar

StartChar: aring
Encoding: 229 229 165
Width: 1824
GlyphClass: 2
Flags: W
LayerCount: 2
Fore
SplineSet
448 2800 m 0
 448 2928 490.66796875 3034.66699219 576.000976562 3120 c 0
 661.333984375 3205.33300781 768.000976562 3248 896.000976562 3248 c 0
 1013.33398438 3248 1117.33398438 3205.33300781 1208.00097656 3120 c 0
 1298.66796875 3034.66699219 1344.00097656 2928 1344.00097656 2800 c 0
 1344.00097656 2672 1298.66796875 2565.33300781 1208.00097656 2480 c 0
 1117.33398438 2394.66699219 1010.66699219 2352 888 2352 c 0
 765.333007812 2352 661.333007812 2394.66699219 576 2480 c 0
 490.666992188 2565.33300781 448 2672 448 2800 c 0
544.000976562 2800 m 0
 544.000976562 2704 578.66796875 2624 648.000976562 2560 c 0
 717.333984375 2496 800.000976562 2464 896.000976562 2464 c 0
 981.333984375 2464 1058.66699219 2496 1128 2560 c 0
 1197.33300781 2624 1232 2704 1232 2800 c 0
 1232 2885.33300781 1197.33300781 2962.66601562 1128 3031.99902344 c 0
 1058.66699219 3101.33203125 981.333984375 3135.99902344 896.000976562 3135.99902344 c 0
 800.000976562 3135.99902344 717.333984375 3101.33203125 648.000976562 3031.99902344 c 0
 578.66796875 2962.66601562 544.000976562 2885.33300781 544.000976562 2800 c 0
944.000976562 1872 m 2
 1072.00097656 1872 1194.6640625 1826.66796875 1311.99707031 1736.00097656 c 0
 1429.33007812 1645.33398438 1487.99707031 1514.66699219 1487.99707031 1344 c 2
 1487.99707031 304 l 2
 1487.99707031 250.666992188 1514.6640625 224 1567.99707031 224 c 0
 1631.99707031 224 1685.33007812 309.333007812 1727.99707031 480 c 1
 1823.99707031 448 l 1
 1781.33007812 192 1669.33007812 64 1487.99707031 64 c 0
 1423.99707031 64 1370.6640625 85.3330078125 1327.99707031 128 c 0
 1285.33007812 170.666992188 1263.99707031 218.666992188 1263.99707031 272 c 1
 1114.6640625 133.333007812 933.331054688 64 719.998046875 64 c 2
 527.998046875 64 l 2
 378.665039062 64 261.33203125 106.666992188 175.999023438 192 c 0
 90.666015625 277.333007812 47.9990234375 368 47.9990234375 464 c 0
 47.9990234375 677.333007812 117.33203125 834.666015625 255.999023438 935.999023438 c 0
 394.666015625 1037.33203125 538.666015625 1109.33203125 687.999023438 1151.99902344 c 0
 837.33203125 1194.66601562 1029.33203125 1226.66601562 1263.99902344 1247.99902344 c 1
 1263.99902344 1343.99902344 l 2
 1263.99902344 1482.66601562 1223.99902344 1581.33300781 1143.99902344 1640 c 0
 1063.99902344 1698.66699219 959.999023438 1728 831.999023438 1728 c 0
 735.999023438 1728 642.666015625 1704 551.999023438 1656 c 0
 461.33203125 1608 415.999023438 1536 415.999023438 1440 c 0
 415.999023438 1376 397.33203125 1330.66699219 359.999023438 1304 c 0
 322.666015625 1277.33300781 277.333007812 1264 224 1264 c 0
 160 1264 128 1296 128 1360 c 0
 128 1520 205.333007812 1645.33300781 360 1736 c 0
 514.666992188 1826.66699219 645.333984375 1872 752.000976562 1872 c 2
 944.000976562 1872 l 2
1263.99707031 1120.00097656 m 1
 1029.33007812 1088.00097656 850.6640625 1048.00097656 727.997070312 1000.00097656 c 0
 605.330078125 952.000976562 503.997070312 885.333984375 423.997070312 800.000976562 c 0
 343.997070312 714.66796875 303.997070312 618.66796875 303.997070312 512.000976562 c 0
 303.997070312 405.333984375 335.997070312 328.000976562 399.997070312 280.000976562 c 0
 463.997070312 232.000976562 570.6640625 208.000976562 719.997070312 208.000976562 c 0
 911.997070312 208.000976562 1093.33007812 277.333984375 1263.99707031 416.000976562 c 1
 1263.99707031 1120.00097656 l 1
 1263.99707031 1120.00097656 l 1
EndSplineSet
EndChar

StartChar: ae
Encoding: 230 230 166
Width: 2736
GlyphClass: 2
Flags: W
LayerCount: 2
Fore
SplineSet
1024 1872 m 2
 1141.33300781 1872 1234.66503906 1829.33007812 1303.99804688 1743.99707031 c 0
 1324.66503906 1718.6640625 1342.33203125 1688.99707031 1356.99902344 1654.99707031 c 1
 1446.99902344 1799.6640625 1565.33203125 1871.99707031 1711.99902344 1871.99707031 c 0
 1871.99902344 1871.99707031 2005.33203125 1802.6640625 2111.99902344 1663.99707031 c 0
 2218.66601562 1525.33007812 2271.99902344 1354.66308594 2271.99902344 1151.99609375 c 2
 2271.99902344 1039.99609375 l 1
 1439.99902344 1039.99609375 l 1
 1439.99902344 991.99609375 l 2
 1439.99902344 725.329101562 1474.66601562 535.99609375 1543.99902344 423.99609375 c 0
 1613.33203125 311.99609375 1690.66503906 255.99609375 1775.99804688 255.99609375 c 0
 1871.99804688 255.99609375 1949.33105469 285.329101562 2007.99804688 343.99609375 c 0
 2066.66503906 402.663085938 2122.66503906 501.330078125 2175.99804688 639.997070312 c 1
 2271.99804688 591.997070312 l 1
 2250.66503906 431.997070312 2191.99804688 303.997070312 2095.99804688 207.997070312 c 0
 1999.99804688 111.997070312 1893.33105469 63.9970703125 1775.99804688 63.9970703125 c 0
 1626.66503906 63.9970703125 1495.99804688 138.6640625 1383.99804688 287.997070312 c 0
 1371.99804688 303.330078125 1360.99804688 319.997070312 1350.99804688 337.997070312 c 1
 1207.66503906 155.330078125 1055.99804688 63.9970703125 895.998046875 63.9970703125 c 2
 831.998046875 63.9970703125 l 2
 682.665039062 63.9970703125 565.33203125 106.6640625 479.999023438 191.997070312 c 0
 394.666015625 277.330078125 351.999023438 367.997070312 351.999023438 463.997070312 c 0
 351.999023438 645.330078125 415.999023438 797.330078125 543.999023438 919.997070312 c 0
 671.999023438 1042.6640625 786.666015625 1125.33105469 887.999023438 1167.99804688 c 0
 989.33203125 1210.66503906 1087.99902344 1237.33203125 1183.99902344 1247.99902344 c 1
 1183.99902344 1343.99902344 l 2
 1183.99902344 1482.66601562 1167.99902344 1581.33300781 1135.99902344 1640 c 0
 1103.99902344 1698.66699219 1045.33203125 1728 959.999023438 1728 c 0
 863.999023438 1728 799.999023438 1704 767.999023438 1656 c 0
 735.999023438 1608 719.999023438 1536 719.999023438 1440 c 0
 719.999023438 1376 701.33203125 1330.66699219 663.999023438 1304 c 0
 626.666015625 1277.33300781 581.333007812 1264 528 1264 c 0
 464 1264 432 1296 432 1360 c 0
 432 1520 482.666992188 1645.33300781 584 1736 c 0
 685.333007812 1826.66699219 789.333007812 1872 896 1872 c 2
 1024 1872 l 2
1183.99902344 1119.99707031 m 1
 1109.33203125 1098.6640625 1029.33105469 1063.99707031 943.998046875 1015.99707031 c 0
 858.665039062 967.997070312 781.33203125 895.997070312 711.999023438 799.997070312 c 0
 642.666015625 703.997070312 607.999023438 607.997070312 607.999023438 511.997070312 c 0
 607.999023438 405.330078125 639.999023438 327.997070312 703.999023438 279.997070312 c 0
 767.999023438 231.997070312 831.999023438 207.997070312 895.999023438 207.997070312 c 0
 981.33203125 207.997070312 1077.33203125 277.330078125 1183.99902344 415.997070312 c 1
 1183.99902344 1119.99707031 l 1
2015.99804688 1151.99707031 m 1
 2005.33105469 1354.6640625 1970.66503906 1503.99707031 1911.99804688 1599.99707031 c 0
 1853.33105469 1695.99707031 1786.6640625 1743.99707031 1711.99707031 1743.99707031 c 0
 1637.33007812 1743.99707031 1573.33007812 1679.99707031 1519.99707031 1551.99707031 c 0
 1478.6640625 1453.33007812 1453.33105469 1319.99707031 1443.99804688 1151.99707031 c 1
 2015.99804688 1151.99707031 l 1
EndSplineSet
EndChar

StartChar: ccedilla
Encoding: 231 231 167
Width: 1744
GlyphClass: 2
Flags: W
LayerCount: 2
Fore
SplineSet
928 1872 m 0
 1109.33300781 1872 1272.00097656 1815.99902344 1416.00097656 1703.99902344 c 0
 1560.00097656 1591.99902344 1632.00097656 1471.99902344 1632.00097656 1343.99902344 c 0
 1632.00097656 1290.66601562 1616.00097656 1242.66601562 1584.00097656 1199.99902344 c 0
 1552.00097656 1157.33203125 1504.00097656 1135.99902344 1440.00097656 1135.99902344 c 0
 1386.66796875 1135.99902344 1344.00097656 1149.33203125 1312.00097656 1175.99902344 c 0
 1280.00097656 1202.66601562 1264.00097656 1237.33300781 1264.00097656 1280 c 0
 1264.00097656 1376 1306.66796875 1434.66699219 1392.00097656 1456 c 1
 1349.33398438 1530.66699219 1288.00097656 1597.33398438 1208.00097656 1656.00097656 c 0
 1128.00097656 1714.66796875 1034.66796875 1744.00097656 928.000976562 1744.00097656 c 0
 746.66796875 1744.00097656 602.66796875 1672.00097656 496.000976562 1528.00097656 c 0
 389.333984375 1384.00097656 336.000976562 1189.33398438 336.000976562 944.000976562 c 0
 336.000976562 730.66796875 394.66796875 562.66796875 512.000976562 440.000976562 c 0
 629.333984375 317.333984375 768.000976562 256.000976562 928.000976562 256.000976562 c 0
 1077.33398438 256.000976562 1208.00097656 290.66796875 1320.00097656 360.000976562 c 0
 1432.00097656 429.333984375 1530.66796875 522.666992188 1616.00097656 640 c 1
 1696.00097656 592 l 1
 1632.00097656 432 1528.00097656 304 1384.00097656 208 c 0
 1240.00097656 112 1088.00097656 64 928.000976562 64 c 0
 906.000976562 64 884.333984375 64.6669921875 863.000976562 66 c 1
 784.000976562 -112 l 1
 944.000976562 -26.6669921875 1061.33398438 0 1136.00097656 -32 c 0
 1210.66796875 -64 1248.00097656 -133.333007812 1248.00097656 -240 c 0
 1248.00097656 -336 1194.66796875 -416 1088.00097656 -480 c 0
 981.333984375 -544 805.333984375 -576 560.000976562 -576 c 1
 512.000976562 -432 l 1
 693.333984375 -432 834.666992188 -416 936 -384 c 0
 1037.33300781 -352 1088 -304 1088 -240 c 0
 1088 -133.333007812 981.333007812 -133.333007812 768 -240 c 1
 576 -240 l 1
 714 86 l 1
 554.666992188 120 420.666992188 195.333007812 312 312 c 0
 157.333007812 477.333007812 80 688 80 944 c 0
 80 1242.66699219 165.333007812 1472 336 1632 c 0
 506.666992188 1792 704 1872 928 1872 c 0
EndSplineSet
EndChar

StartChar: egrave
Encoding: 232 232 168
Width: 1792
GlyphClass: 2
Flags: W
LayerCount: 2
Fore
SplineSet
416 3328 m 1
 416 3440 l 1
 896 3440 l 1
 1376 2832 l 1
 1280 2752 l 1
 416 3328 l 1
880 1872 m 0
 1018.66699219 1872 1149.33203125 1834.66699219 1271.99902344 1760 c 0
 1394.66601562 1685.33300781 1485.33300781 1594.66601562 1544 1487.99902344 c 0
 1602.66699219 1381.33203125 1632 1269.33203125 1632 1151.99902344 c 2
 1632 1039.99902344 l 1
 385 1039.99902344 l 1
 384.333007812 1023.99902344 384 1007.99902344 384 991.999023438 c 0
 384 757.33203125 437.333007812 575.999023438 544 447.999023438 c 0
 650.666992188 319.999023438 778.666992188 255.999023438 928 255.999023438 c 0
 1088 255.999023438 1221.33300781 285.33203125 1328 343.999023438 c 0
 1434.66699219 402.666015625 1530.66699219 501.333007812 1616 640 c 1
 1712 592 l 1
 1648 432 1549.33300781 304 1416 208 c 0
 1282.66699219 112 1120 64 928 64 c 0
 704 64 514.666992188 149.333007812 360 320 c 0
 205.333007812 490.666992188 128 714.666992188 128 992 c 0
 128 1269.33300781 200 1485.33300781 344 1640 c 0
 488 1794.66699219 666.666992188 1872 880 1872 c 0
1375.99804688 1152 m 1
 1365.33105469 1322.66699219 1309.32910156 1464 1207.99609375 1576 c 0
 1106.66308594 1688 997.330078125 1744 879.997070312 1744 c 0
 773.330078125 1744 663.997070312 1682.66699219 551.997070312 1560 c 0
 464.6640625 1464.66699219 411.331054688 1328.66699219 391.998046875 1152 c 1
 1375.99804688 1152 l 1
EndSplineSet
EndChar

StartChar: eacute
Encoding: 233 233 169
Width: 1792
GlyphClass: 2
Flags: W
LayerCount: 2
Fore
SplineSet
896 3440 m 1
 1408 3440 l 1
 1408 3328 l 1
 464 2752 l 1
 384 2832 l 1
 896 3440 l 1
880 1872 m 0
 1018.66699219 1872 1149.33203125 1834.66699219 1271.99902344 1760 c 0
 1394.66601562 1685.33300781 1485.33300781 1594.66601562 1544 1487.99902344 c 0
 1602.66699219 1381.33203125 1632 1269.33203125 1632 1151.99902344 c 2
 1632 1039.99902344 l 1
 385 1039.99902344 l 1
 384.333007812 1023.99902344 384 1007.99902344 384 991.999023438 c 0
 384 757.33203125 437.333007812 575.999023438 544 447.999023438 c 0
 650.666992188 319.999023438 778.666992188 255.999023438 928 255.999023438 c 0
 1088 255.999023438 1221.33300781 285.33203125 1328 343.999023438 c 0
 1434.66699219 402.666015625 1530.66699219 501.333007812 1616 640 c 1
 1712 592 l 1
 1648 432 1549.33300781 304 1416 208 c 0
 1282.66699219 112 1120 64 928 64 c 0
 704 64 514.666992188 149.333007812 360 320 c 0
 205.333007812 490.666992188 128 714.666992188 128 992 c 0
 128 1269.33300781 200 1485.33300781 344 1640 c 0
 488 1794.66699219 666.666992188 1872 880 1872 c 0
1375.99804688 1152 m 1
 1365.33105469 1322.66699219 1309.32910156 1464 1207.99609375 1576 c 0
 1106.66308594 1688 997.330078125 1744 879.997070312 1744 c 0
 773.330078125 1744 663.997070312 1682.66699219 551.997070312 1560 c 0
 464.6640625 1464.66699219 411.331054688 1328.66699219 391.998046875 1152 c 1
 1375.99804688 1152 l 1
EndSplineSet
EndChar

StartChar: ecircumflex
Encoding: 234 234 170
Width: 1792
GlyphClass: 2
Flags: W
LayerCount: 2
Fore
SplineSet
672 3440 m 1
 1104 3440 l 1
 1632 2736 l 1
 1504 2704 l 1
 896 3152 l 1
 288 2704 l 1
 160 2736 l 1
 672 3440 l 1
880 1872 m 0
 1018.66699219 1872 1149.33203125 1834.66699219 1271.99902344 1760 c 0
 1394.66601562 1685.33300781 1485.33300781 1594.66601562 1544 1487.99902344 c 0
 1602.66699219 1381.33203125 1632 1269.33203125 1632 1151.99902344 c 2
 1632 1039.99902344 l 1
 385 1039.99902344 l 1
 384.333007812 1023.99902344 384 1007.99902344 384 991.999023438 c 0
 384 757.33203125 437.333007812 575.999023438 544 447.999023438 c 0
 650.666992188 319.999023438 778.666992188 255.999023438 928 255.999023438 c 0
 1088 255.999023438 1221.33300781 285.33203125 1328 343.999023438 c 0
 1434.66699219 402.666015625 1530.66699219 501.333007812 1616 640 c 1
 1712 592 l 1
 1648 432 1549.33300781 304 1416 208 c 0
 1282.66699219 112 1120 64 928 64 c 0
 704 64 514.666992188 149.333007812 360 320 c 0
 205.333007812 490.666992188 128 714.666992188 128 992 c 0
 128 1269.33300781 200 1485.33300781 344 1640 c 0
 488 1794.66699219 666.666992188 1872 880 1872 c 0
1375.99804688 1152 m 1
 1365.33105469 1322.66699219 1309.32910156 1464 1207.99609375 1576 c 0
 1106.66308594 1688 997.330078125 1744 879.997070312 1744 c 0
 773.330078125 1744 663.997070312 1682.66699219 551.997070312 1560 c 0
 464.6640625 1464.66699219 411.331054688 1328.66699219 391.998046875 1152 c 1
 1375.99804688 1152 l 1
EndSplineSet
EndChar

StartChar: edieresis
Encoding: 235 235 171
Width: 1792
GlyphClass: 2
Flags: W
LayerCount: 2
Fore
SplineSet
240 3136 m 0
 240 3200 261.333007812 3253.33300781 304 3296 c 0
 346.666992188 3338.66699219 400 3360 464 3360 c 0
 528 3360 581.333007812 3338.66699219 624 3296 c 0
 666.666992188 3253.33300781 688 3200 688 3136 c 0
 688 3072 666.666992188 3018.66699219 624 2976 c 0
 581.333007812 2933.33300781 528 2912 464 2912 c 0
 400 2912 346.666992188 2933.33300781 304 2976 c 0
 261.333007812 3018.66699219 240 3072 240 3136 c 0
1072 3136 m 0
 1072 3200 1093.33300781 3253.33300781 1136 3296 c 0
 1178.66699219 3338.66699219 1232 3360 1296 3360 c 0
 1360 3360 1413.33300781 3338.66699219 1456 3296 c 0
 1498.66699219 3253.33300781 1520 3200 1520 3136 c 0
 1520 3072 1498.66699219 3018.66699219 1456 2976 c 0
 1413.33300781 2933.33300781 1360 2912 1296 2912 c 0
 1232 2912 1178.66699219 2933.33300781 1136 2976 c 0
 1093.33300781 3018.66699219 1072 3072 1072 3136 c 0
880 1872 m 0
 1018.66699219 1872 1149.33203125 1834.66699219 1271.99902344 1760 c 0
 1394.66601562 1685.33300781 1485.33300781 1594.66601562 1544 1487.99902344 c 0
 1602.66699219 1381.33203125 1632 1269.33203125 1632 1151.99902344 c 2
 1632 1039.99902344 l 1
 385 1039.99902344 l 1
 384.333007812 1023.99902344 384 1007.99902344 384 991.999023438 c 0
 384 757.33203125 437.333007812 575.999023438 544 447.999023438 c 0
 650.666992188 319.999023438 778.666992188 255.999023438 928 255.999023438 c 0
 1088 255.999023438 1221.33300781 285.33203125 1328 343.999023438 c 0
 1434.66699219 402.666015625 1530.66699219 501.333007812 1616 640 c 1
 1712 592 l 1
 1648 432 1549.33300781 304 1416 208 c 0
 1282.66699219 112 1120 64 928 64 c 0
 704 64 514.666992188 149.333007812 360 320 c 0
 205.333007812 490.666992188 128 714.666992188 128 992 c 0
 128 1269.33300781 200 1485.33300781 344 1640 c 0
 488 1794.66699219 666.666992188 1872 880 1872 c 0
1375.99804688 1152 m 1
 1365.33105469 1322.66699219 1309.32910156 1464 1207.99609375 1576 c 0
 1106.66308594 1688 997.330078125 1744 879.997070312 1744 c 0
 773.330078125 1744 663.997070312 1682.66699219 551.997070312 1560 c 0
 464.6640625 1464.66699219 411.331054688 1328.66699219 391.998046875 1152 c 1
 1375.99804688 1152 l 1
EndSplineSet
EndChar

